%TF.GenerationSoftware,KiCad,Pcbnew,8.0.6*%
%TF.CreationDate,2024-11-23T21:18:31+01:00*%
%TF.ProjectId,smart home,736d6172-7420-4686-9f6d-652e6b696361,rev?*%
%TF.SameCoordinates,Original*%
%TF.FileFunction,Drillmap*%
%TF.FilePolarity,Positive*%
%FSLAX45Y45*%
G04 Gerber Fmt 4.5, Leading zero omitted, Abs format (unit mm)*
G04 Created by KiCad (PCBNEW 8.0.6) date 2024-11-23 21:18:31*
%MOMM*%
%LPD*%
G01*
G04 APERTURE LIST*
%ADD10C,0.050000*%
%ADD11C,0.200000*%
%ADD12C,0.100000*%
G04 APERTURE END LIST*
D10*
X12050000Y-2000000D02*
G75*
G02*
X12350000Y-2300000I0J-300000D01*
G01*
X12050000Y-11300000D02*
X2350000Y-11300000D01*
X2050000Y-2300000D02*
G75*
G02*
X2350000Y-2000000I300000J0D01*
G01*
X12350000Y-11000000D02*
X12350000Y-2300000D01*
X2350000Y-2000000D02*
X12050000Y-2000000D01*
X2350000Y-11300000D02*
G75*
G02*
X2050000Y-11000000I0J300000D01*
G01*
X2050000Y-2300000D02*
X2050000Y-11000000D01*
X12350000Y-11000000D02*
G75*
G02*
X12050000Y-11300000I-300000J0D01*
G01*
D11*
D12*
X8415000Y-3515000D02*
X8485000Y-3585000D01*
X8485000Y-3515000D02*
X8415000Y-3585000D01*
X8615000Y-3515000D02*
X8685000Y-3585000D01*
X8685000Y-3515000D02*
X8615000Y-3585000D01*
X5487500Y-4796000D02*
G75*
G02*
X5412500Y-4796000I-37500J0D01*
G01*
X5412500Y-4796000D02*
G75*
G02*
X5487500Y-4796000I37500J0D01*
G01*
X5487500Y-5050000D02*
G75*
G02*
X5412500Y-5050000I-37500J0D01*
G01*
X5412500Y-5050000D02*
G75*
G02*
X5487500Y-5050000I37500J0D01*
G01*
X5487500Y-6000000D02*
G75*
G02*
X5412500Y-6000000I-37500J0D01*
G01*
X5412500Y-6000000D02*
G75*
G02*
X5487500Y-6000000I37500J0D01*
G01*
X5487500Y-6254000D02*
G75*
G02*
X5412500Y-6254000I-37500J0D01*
G01*
X5412500Y-6254000D02*
G75*
G02*
X5487500Y-6254000I37500J0D01*
G01*
X5487500Y-6800000D02*
G75*
G02*
X5412500Y-6800000I-37500J0D01*
G01*
X5412500Y-6800000D02*
G75*
G02*
X5487500Y-6800000I37500J0D01*
G01*
X5487500Y-7054000D02*
G75*
G02*
X5412500Y-7054000I-37500J0D01*
G01*
X5412500Y-7054000D02*
G75*
G02*
X5487500Y-7054000I37500J0D01*
G01*
X5551500Y-3623000D02*
G75*
G02*
X5476500Y-3623000I-37500J0D01*
G01*
X5476500Y-3623000D02*
G75*
G02*
X5551500Y-3623000I37500J0D01*
G01*
X5551500Y-3877000D02*
G75*
G02*
X5476500Y-3877000I-37500J0D01*
G01*
X5476500Y-3877000D02*
G75*
G02*
X5551500Y-3877000I37500J0D01*
G01*
X5560500Y-7973000D02*
G75*
G02*
X5485500Y-7973000I-37500J0D01*
G01*
X5485500Y-7973000D02*
G75*
G02*
X5560500Y-7973000I37500J0D01*
G01*
X5560500Y-8227000D02*
G75*
G02*
X5485500Y-8227000I-37500J0D01*
G01*
X5485500Y-8227000D02*
G75*
G02*
X5560500Y-8227000I37500J0D01*
G01*
X5614500Y-4923000D02*
G75*
G02*
X5539500Y-4923000I-37500J0D01*
G01*
X5539500Y-4923000D02*
G75*
G02*
X5614500Y-4923000I37500J0D01*
G01*
X5614500Y-6127000D02*
G75*
G02*
X5539500Y-6127000I-37500J0D01*
G01*
X5539500Y-6127000D02*
G75*
G02*
X5614500Y-6127000I37500J0D01*
G01*
X5614500Y-6927000D02*
G75*
G02*
X5539500Y-6927000I-37500J0D01*
G01*
X5539500Y-6927000D02*
G75*
G02*
X5614500Y-6927000I37500J0D01*
G01*
X5678500Y-3750000D02*
G75*
G02*
X5603500Y-3750000I-37500J0D01*
G01*
X5603500Y-3750000D02*
G75*
G02*
X5678500Y-3750000I37500J0D01*
G01*
X5687500Y-8100000D02*
G75*
G02*
X5612500Y-8100000I-37500J0D01*
G01*
X5612500Y-8100000D02*
G75*
G02*
X5687500Y-8100000I37500J0D01*
G01*
X5710500Y-10336000D02*
G75*
G02*
X5635500Y-10336000I-37500J0D01*
G01*
X5635500Y-10336000D02*
G75*
G02*
X5710500Y-10336000I37500J0D01*
G01*
X5837500Y-10209000D02*
G75*
G02*
X5762500Y-10209000I-37500J0D01*
G01*
X5762500Y-10209000D02*
G75*
G02*
X5837500Y-10209000I37500J0D01*
G01*
X5964500Y-10336000D02*
G75*
G02*
X5889500Y-10336000I-37500J0D01*
G01*
X5889500Y-10336000D02*
G75*
G02*
X5964500Y-10336000I37500J0D01*
G01*
X7760500Y-10477000D02*
G75*
G02*
X7685500Y-10477000I-37500J0D01*
G01*
X7685500Y-10477000D02*
G75*
G02*
X7760500Y-10477000I37500J0D01*
G01*
X7887500Y-10350000D02*
G75*
G02*
X7812500Y-10350000I-37500J0D01*
G01*
X7812500Y-10350000D02*
G75*
G02*
X7887500Y-10350000I37500J0D01*
G01*
X7887500Y-10604000D02*
G75*
G02*
X7812500Y-10604000I-37500J0D01*
G01*
X7812500Y-10604000D02*
G75*
G02*
X7887500Y-10604000I37500J0D01*
G01*
X3828000Y-3133000D02*
X3828000Y-3213000D01*
X3788000Y-3173000D02*
X3868000Y-3173000D01*
X3828000Y-3588000D02*
X3828000Y-3668000D01*
X3788000Y-3628000D02*
X3868000Y-3628000D01*
X3828000Y-4033000D02*
X3828000Y-4113000D01*
X3788000Y-4073000D02*
X3868000Y-4073000D01*
X3828000Y-4583000D02*
X3828000Y-4663000D01*
X3788000Y-4623000D02*
X3868000Y-4623000D01*
X3828000Y-5133000D02*
X3828000Y-5213000D01*
X3788000Y-5173000D02*
X3868000Y-5173000D01*
X3828000Y-5683000D02*
X3828000Y-5763000D01*
X3788000Y-5723000D02*
X3868000Y-5723000D01*
X3828000Y-6333000D02*
X3828000Y-6413000D01*
X3788000Y-6373000D02*
X3868000Y-6373000D01*
X3828000Y-7133000D02*
X3828000Y-7213000D01*
X3788000Y-7173000D02*
X3868000Y-7173000D01*
X3892000Y-8160000D02*
X3892000Y-8240000D01*
X3852000Y-8200000D02*
X3932000Y-8200000D01*
X3942000Y-8910000D02*
X3942000Y-8990000D01*
X3902000Y-8950000D02*
X3982000Y-8950000D01*
X3942000Y-9410000D02*
X3942000Y-9490000D01*
X3902000Y-9450000D02*
X3982000Y-9450000D01*
X3942000Y-9910000D02*
X3942000Y-9990000D01*
X3902000Y-9950000D02*
X3982000Y-9950000D01*
X4844000Y-3133000D02*
X4844000Y-3213000D01*
X4804000Y-3173000D02*
X4884000Y-3173000D01*
X4844000Y-3588000D02*
X4844000Y-3668000D01*
X4804000Y-3628000D02*
X4884000Y-3628000D01*
X4844000Y-4033000D02*
X4844000Y-4113000D01*
X4804000Y-4073000D02*
X4884000Y-4073000D01*
X4844000Y-4583000D02*
X4844000Y-4663000D01*
X4804000Y-4623000D02*
X4884000Y-4623000D01*
X4844000Y-5133000D02*
X4844000Y-5213000D01*
X4804000Y-5173000D02*
X4884000Y-5173000D01*
X4844000Y-5683000D02*
X4844000Y-5763000D01*
X4804000Y-5723000D02*
X4884000Y-5723000D01*
X4844000Y-6333000D02*
X4844000Y-6413000D01*
X4804000Y-6373000D02*
X4884000Y-6373000D01*
X4844000Y-7133000D02*
X4844000Y-7213000D01*
X4804000Y-7173000D02*
X4884000Y-7173000D01*
X4908000Y-8160000D02*
X4908000Y-8240000D01*
X4868000Y-8200000D02*
X4948000Y-8200000D01*
X4958000Y-8910000D02*
X4958000Y-8990000D01*
X4918000Y-8950000D02*
X4998000Y-8950000D01*
X4958000Y-9410000D02*
X4958000Y-9490000D01*
X4918000Y-9450000D02*
X4998000Y-9450000D01*
X4958000Y-9910000D02*
X4958000Y-9990000D01*
X4918000Y-9950000D02*
X4998000Y-9950000D01*
X5742000Y-8910000D02*
X5742000Y-8990000D01*
X5702000Y-8950000D02*
X5782000Y-8950000D01*
X5792000Y-9510000D02*
X5792000Y-9590000D01*
X5752000Y-9550000D02*
X5832000Y-9550000D01*
X6100000Y-6502000D02*
X6100000Y-6582000D01*
X6060000Y-6542000D02*
X6140000Y-6542000D01*
X6100000Y-7518000D02*
X6100000Y-7598000D01*
X6060000Y-7558000D02*
X6140000Y-7558000D01*
X6250000Y-4652000D02*
X6250000Y-4732000D01*
X6210000Y-4692000D02*
X6290000Y-4692000D01*
X6250000Y-5668000D02*
X6250000Y-5748000D01*
X6210000Y-5708000D02*
X6290000Y-5708000D01*
X6550000Y-6202000D02*
X6550000Y-6282000D01*
X6510000Y-6242000D02*
X6590000Y-6242000D01*
X6550000Y-7218000D02*
X6550000Y-7298000D01*
X6510000Y-7258000D02*
X6590000Y-7258000D01*
X6700000Y-4402000D02*
X6700000Y-4482000D01*
X6660000Y-4442000D02*
X6740000Y-4442000D01*
X6700000Y-5418000D02*
X6700000Y-5498000D01*
X6660000Y-5458000D02*
X6740000Y-5458000D01*
X6758000Y-8910000D02*
X6758000Y-8990000D01*
X6718000Y-8950000D02*
X6798000Y-8950000D01*
X6808000Y-9510000D02*
X6808000Y-9590000D01*
X6768000Y-9550000D02*
X6848000Y-9550000D01*
X7300000Y-9102000D02*
X7300000Y-9182000D01*
X7260000Y-9142000D02*
X7340000Y-9142000D01*
X7300000Y-10118000D02*
X7300000Y-10198000D01*
X7260000Y-10158000D02*
X7340000Y-10158000D01*
X9242000Y-10310000D02*
X9242000Y-10390000D01*
X9202000Y-10350000D02*
X9282000Y-10350000D01*
X10258000Y-10310000D02*
X10258000Y-10390000D01*
X10218000Y-10350000D02*
X10298000Y-10350000D01*
X11250000Y-4902000D02*
X11250000Y-4982000D01*
X11210000Y-4942000D02*
X11290000Y-4942000D01*
X11250000Y-5918000D02*
X11250000Y-5998000D01*
X11210000Y-5958000D02*
X11290000Y-5958000D01*
X2960356Y-3556356D02*
X2960356Y-3485644D01*
X2889644Y-3485644D01*
X2889644Y-3556356D01*
X2960356Y-3556356D01*
X2960356Y-3810356D02*
X2960356Y-3739644D01*
X2889644Y-3739644D01*
X2889644Y-3810356D01*
X2960356Y-3810356D01*
X2981356Y-5056356D02*
X2981356Y-4985644D01*
X2910644Y-4985644D01*
X2910644Y-5056356D01*
X2981356Y-5056356D01*
X2981356Y-5310356D02*
X2981356Y-5239644D01*
X2910644Y-5239644D01*
X2910644Y-5310356D01*
X2981356Y-5310356D01*
X2981356Y-9281356D02*
X2981356Y-9210644D01*
X2910644Y-9210644D01*
X2910644Y-9281356D01*
X2981356Y-9281356D01*
X2981356Y-9535356D02*
X2981356Y-9464644D01*
X2910644Y-9464644D01*
X2910644Y-9535356D01*
X2981356Y-9535356D01*
X2985356Y-7335356D02*
X2985356Y-7264644D01*
X2914644Y-7264644D01*
X2914644Y-7335356D01*
X2985356Y-7335356D01*
X2985356Y-7589356D02*
X2985356Y-7518644D01*
X2914644Y-7518644D01*
X2914644Y-7589356D01*
X2985356Y-7589356D01*
X3214356Y-3556356D02*
X3214356Y-3485644D01*
X3143644Y-3485644D01*
X3143644Y-3556356D01*
X3214356Y-3556356D01*
X3214356Y-3810356D02*
X3214356Y-3739644D01*
X3143644Y-3739644D01*
X3143644Y-3810356D01*
X3214356Y-3810356D01*
X3235356Y-5056356D02*
X3235356Y-4985644D01*
X3164644Y-4985644D01*
X3164644Y-5056356D01*
X3235356Y-5056356D01*
X3235356Y-5310356D02*
X3235356Y-5239644D01*
X3164644Y-5239644D01*
X3164644Y-5310356D01*
X3235356Y-5310356D01*
X3235356Y-9281356D02*
X3235356Y-9210644D01*
X3164644Y-9210644D01*
X3164644Y-9281356D01*
X3235356Y-9281356D01*
X3235356Y-9535356D02*
X3235356Y-9464644D01*
X3164644Y-9464644D01*
X3164644Y-9535356D01*
X3235356Y-9535356D01*
X3239356Y-7335356D02*
X3239356Y-7264644D01*
X3168644Y-7264644D01*
X3168644Y-7335356D01*
X3239356Y-7335356D01*
X3239356Y-7589356D02*
X3239356Y-7518644D01*
X3168644Y-7518644D01*
X3168644Y-7589356D01*
X3239356Y-7589356D01*
X6757856Y-8335356D02*
X6757856Y-8264644D01*
X6687144Y-8264644D01*
X6687144Y-8335356D01*
X6757856Y-8335356D01*
X6781356Y-7835356D02*
X6781356Y-7764644D01*
X6710644Y-7764644D01*
X6710644Y-7835356D01*
X6781356Y-7835356D01*
X7011856Y-8335356D02*
X7011856Y-8264644D01*
X6941144Y-8264644D01*
X6941144Y-8335356D01*
X7011856Y-8335356D01*
X7031356Y-6435356D02*
X7031356Y-6364644D01*
X6960644Y-6364644D01*
X6960644Y-6435356D01*
X7031356Y-6435356D01*
X7035356Y-7835356D02*
X7035356Y-7764644D01*
X6964644Y-7764644D01*
X6964644Y-7835356D01*
X7035356Y-7835356D01*
X7285356Y-4729856D02*
X7285356Y-4659144D01*
X7214644Y-4659144D01*
X7214644Y-4729856D01*
X7285356Y-4729856D01*
X7285356Y-4983856D02*
X7285356Y-4913144D01*
X7214644Y-4913144D01*
X7214644Y-4983856D01*
X7285356Y-4983856D01*
X7285356Y-5237856D02*
X7285356Y-5167144D01*
X7214644Y-5167144D01*
X7214644Y-5237856D01*
X7285356Y-5237856D01*
X7285356Y-6435356D02*
X7285356Y-6364644D01*
X7214644Y-6364644D01*
X7214644Y-6435356D01*
X7285356Y-6435356D01*
X7585356Y-3757856D02*
X7585356Y-3687144D01*
X7514644Y-3687144D01*
X7514644Y-3757856D01*
X7585356Y-3757856D01*
X7585356Y-4011856D02*
X7585356Y-3941144D01*
X7514644Y-3941144D01*
X7514644Y-4011856D01*
X7585356Y-4011856D01*
X7935356Y-9658856D02*
X7935356Y-9588144D01*
X7864644Y-9588144D01*
X7864644Y-9658856D01*
X7935356Y-9658856D01*
X7935356Y-9912856D02*
X7935356Y-9842144D01*
X7864644Y-9842144D01*
X7864644Y-9912856D01*
X7935356Y-9912856D01*
X8174356Y-4930356D02*
X8174356Y-4859644D01*
X8103644Y-4859644D01*
X8103644Y-4930356D01*
X8174356Y-4930356D01*
X8174356Y-5184356D02*
X8174356Y-5113644D01*
X8103644Y-5113644D01*
X8103644Y-5184356D01*
X8174356Y-5184356D01*
X8174356Y-5438356D02*
X8174356Y-5367644D01*
X8103644Y-5367644D01*
X8103644Y-5438356D01*
X8174356Y-5438356D01*
X8174356Y-5692356D02*
X8174356Y-5621644D01*
X8103644Y-5621644D01*
X8103644Y-5692356D01*
X8174356Y-5692356D01*
X8174356Y-5946356D02*
X8174356Y-5875644D01*
X8103644Y-5875644D01*
X8103644Y-5946356D01*
X8174356Y-5946356D01*
X8174356Y-6200356D02*
X8174356Y-6129644D01*
X8103644Y-6129644D01*
X8103644Y-6200356D01*
X8174356Y-6200356D01*
X8174356Y-6454356D02*
X8174356Y-6383644D01*
X8103644Y-6383644D01*
X8103644Y-6454356D01*
X8174356Y-6454356D01*
X8174356Y-6708356D02*
X8174356Y-6637644D01*
X8103644Y-6637644D01*
X8103644Y-6708356D01*
X8174356Y-6708356D01*
X8174356Y-6962356D02*
X8174356Y-6891644D01*
X8103644Y-6891644D01*
X8103644Y-6962356D01*
X8174356Y-6962356D01*
X8174356Y-7216356D02*
X8174356Y-7145644D01*
X8103644Y-7145644D01*
X8103644Y-7216356D01*
X8174356Y-7216356D01*
X8174356Y-7470356D02*
X8174356Y-7399644D01*
X8103644Y-7399644D01*
X8103644Y-7470356D01*
X8174356Y-7470356D01*
X8174356Y-7724356D02*
X8174356Y-7653644D01*
X8103644Y-7653644D01*
X8103644Y-7724356D01*
X8174356Y-7724356D01*
X8174356Y-7978356D02*
X8174356Y-7907644D01*
X8103644Y-7907644D01*
X8103644Y-7978356D01*
X8174356Y-7978356D01*
X8174356Y-8232356D02*
X8174356Y-8161644D01*
X8103644Y-8161644D01*
X8103644Y-8232356D01*
X8174356Y-8232356D01*
X8174356Y-8486356D02*
X8174356Y-8415644D01*
X8103644Y-8415644D01*
X8103644Y-8486356D01*
X8174356Y-8486356D01*
X8457856Y-2985356D02*
X8457856Y-2914644D01*
X8387144Y-2914644D01*
X8387144Y-2985356D01*
X8457856Y-2985356D01*
X8685356Y-10407856D02*
X8685356Y-10337144D01*
X8614644Y-10337144D01*
X8614644Y-10407856D01*
X8685356Y-10407856D01*
X8685356Y-10661856D02*
X8685356Y-10591144D01*
X8614644Y-10591144D01*
X8614644Y-10661856D01*
X8685356Y-10661856D01*
X8711856Y-2985356D02*
X8711856Y-2914644D01*
X8641144Y-2914644D01*
X8641144Y-2985356D01*
X8711856Y-2985356D01*
X9698356Y-4930356D02*
X9698356Y-4859644D01*
X9627644Y-4859644D01*
X9627644Y-4930356D01*
X9698356Y-4930356D01*
X9698356Y-5184356D02*
X9698356Y-5113644D01*
X9627644Y-5113644D01*
X9627644Y-5184356D01*
X9698356Y-5184356D01*
X9698356Y-5438356D02*
X9698356Y-5367644D01*
X9627644Y-5367644D01*
X9627644Y-5438356D01*
X9698356Y-5438356D01*
X9698356Y-5692356D02*
X9698356Y-5621644D01*
X9627644Y-5621644D01*
X9627644Y-5692356D01*
X9698356Y-5692356D01*
X9698356Y-5946356D02*
X9698356Y-5875644D01*
X9627644Y-5875644D01*
X9627644Y-5946356D01*
X9698356Y-5946356D01*
X9698356Y-6200356D02*
X9698356Y-6129644D01*
X9627644Y-6129644D01*
X9627644Y-6200356D01*
X9698356Y-6200356D01*
X9698356Y-6454356D02*
X9698356Y-6383644D01*
X9627644Y-6383644D01*
X9627644Y-6454356D01*
X9698356Y-6454356D01*
X9698356Y-6708356D02*
X9698356Y-6637644D01*
X9627644Y-6637644D01*
X9627644Y-6708356D01*
X9698356Y-6708356D01*
X9698356Y-6962356D02*
X9698356Y-6891644D01*
X9627644Y-6891644D01*
X9627644Y-6962356D01*
X9698356Y-6962356D01*
X9698356Y-7216356D02*
X9698356Y-7145644D01*
X9627644Y-7145644D01*
X9627644Y-7216356D01*
X9698356Y-7216356D01*
X9698356Y-7470356D02*
X9698356Y-7399644D01*
X9627644Y-7399644D01*
X9627644Y-7470356D01*
X9698356Y-7470356D01*
X9698356Y-7724356D02*
X9698356Y-7653644D01*
X9627644Y-7653644D01*
X9627644Y-7724356D01*
X9698356Y-7724356D01*
X9698356Y-7978356D02*
X9698356Y-7907644D01*
X9627644Y-7907644D01*
X9627644Y-7978356D01*
X9698356Y-7978356D01*
X9698356Y-8232356D02*
X9698356Y-8161644D01*
X9627644Y-8161644D01*
X9627644Y-8232356D01*
X9698356Y-8232356D01*
X9698356Y-8486356D02*
X9698356Y-8415644D01*
X9627644Y-8415644D01*
X9627644Y-8486356D01*
X9698356Y-8486356D01*
X10529856Y-7835356D02*
X10529856Y-7764644D01*
X10459144Y-7764644D01*
X10459144Y-7835356D01*
X10529856Y-7835356D01*
X10531356Y-5885356D02*
X10531356Y-5814644D01*
X10460644Y-5814644D01*
X10460644Y-5885356D01*
X10531356Y-5885356D01*
X10531356Y-8285356D02*
X10531356Y-8214644D01*
X10460644Y-8214644D01*
X10460644Y-8285356D01*
X10531356Y-8285356D01*
X10531356Y-8735356D02*
X10531356Y-8664644D01*
X10460644Y-8664644D01*
X10460644Y-8735356D01*
X10531356Y-8735356D01*
X10535356Y-7385356D02*
X10535356Y-7314644D01*
X10464644Y-7314644D01*
X10464644Y-7385356D01*
X10535356Y-7385356D01*
X10558856Y-6435356D02*
X10558856Y-6364644D01*
X10488144Y-6364644D01*
X10488144Y-6435356D01*
X10558856Y-6435356D01*
X10558856Y-9185356D02*
X10558856Y-9114644D01*
X10488144Y-9114644D01*
X10488144Y-9185356D01*
X10558856Y-9185356D01*
X10573356Y-6985356D02*
X10573356Y-6914644D01*
X10502644Y-6914644D01*
X10502644Y-6985356D01*
X10573356Y-6985356D01*
X10783856Y-7835356D02*
X10783856Y-7764644D01*
X10713144Y-7764644D01*
X10713144Y-7835356D01*
X10783856Y-7835356D01*
X10785356Y-5885356D02*
X10785356Y-5814644D01*
X10714644Y-5814644D01*
X10714644Y-5885356D01*
X10785356Y-5885356D01*
X10785356Y-8285356D02*
X10785356Y-8214644D01*
X10714644Y-8214644D01*
X10714644Y-8285356D01*
X10785356Y-8285356D01*
X10785356Y-8735356D02*
X10785356Y-8664644D01*
X10714644Y-8664644D01*
X10714644Y-8735356D01*
X10785356Y-8735356D01*
X10789356Y-7385356D02*
X10789356Y-7314644D01*
X10718644Y-7314644D01*
X10718644Y-7385356D01*
X10789356Y-7385356D01*
X10812856Y-6435356D02*
X10812856Y-6364644D01*
X10742144Y-6364644D01*
X10742144Y-6435356D01*
X10812856Y-6435356D01*
X10812856Y-9185356D02*
X10812856Y-9114644D01*
X10742144Y-9114644D01*
X10742144Y-9185356D01*
X10812856Y-9185356D01*
X10827356Y-6985356D02*
X10827356Y-6914644D01*
X10756644Y-6914644D01*
X10756644Y-6985356D01*
X10827356Y-6985356D01*
X11037856Y-7835356D02*
X11037856Y-7764644D01*
X10967144Y-7764644D01*
X10967144Y-7835356D01*
X11037856Y-7835356D01*
X11039356Y-8285356D02*
X11039356Y-8214644D01*
X10968644Y-8214644D01*
X10968644Y-8285356D01*
X11039356Y-8285356D01*
X11039356Y-8735356D02*
X11039356Y-8664644D01*
X10968644Y-8664644D01*
X10968644Y-8735356D01*
X11039356Y-8735356D01*
X11043356Y-7385356D02*
X11043356Y-7314644D01*
X10972644Y-7314644D01*
X10972644Y-7385356D01*
X11043356Y-7385356D01*
X11081356Y-6985356D02*
X11081356Y-6914644D01*
X11010644Y-6914644D01*
X11010644Y-6985356D01*
X11081356Y-6985356D01*
X11335356Y-6985356D02*
X11335356Y-6914644D01*
X11264644Y-6914644D01*
X11264644Y-6985356D01*
X11335356Y-6985356D01*
D11*
X2308277Y-11613984D02*
X2308277Y-11413984D01*
X2308277Y-11413984D02*
X2355896Y-11413984D01*
X2355896Y-11413984D02*
X2384467Y-11423508D01*
X2384467Y-11423508D02*
X2403515Y-11442555D01*
X2403515Y-11442555D02*
X2413039Y-11461603D01*
X2413039Y-11461603D02*
X2422563Y-11499698D01*
X2422563Y-11499698D02*
X2422563Y-11528269D01*
X2422563Y-11528269D02*
X2413039Y-11566365D01*
X2413039Y-11566365D02*
X2403515Y-11585412D01*
X2403515Y-11585412D02*
X2384467Y-11604460D01*
X2384467Y-11604460D02*
X2355896Y-11613984D01*
X2355896Y-11613984D02*
X2308277Y-11613984D01*
X2508277Y-11613984D02*
X2508277Y-11480650D01*
X2508277Y-11518746D02*
X2517801Y-11499698D01*
X2517801Y-11499698D02*
X2527324Y-11490174D01*
X2527324Y-11490174D02*
X2546372Y-11480650D01*
X2546372Y-11480650D02*
X2565420Y-11480650D01*
X2632086Y-11613984D02*
X2632086Y-11480650D01*
X2632086Y-11413984D02*
X2622563Y-11423508D01*
X2622563Y-11423508D02*
X2632086Y-11433031D01*
X2632086Y-11433031D02*
X2641610Y-11423508D01*
X2641610Y-11423508D02*
X2632086Y-11413984D01*
X2632086Y-11413984D02*
X2632086Y-11433031D01*
X2755896Y-11613984D02*
X2736848Y-11604460D01*
X2736848Y-11604460D02*
X2727324Y-11585412D01*
X2727324Y-11585412D02*
X2727324Y-11413984D01*
X2860658Y-11613984D02*
X2841610Y-11604460D01*
X2841610Y-11604460D02*
X2832086Y-11585412D01*
X2832086Y-11585412D02*
X2832086Y-11413984D01*
X3089229Y-11613984D02*
X3089229Y-11413984D01*
X3089229Y-11413984D02*
X3155896Y-11556841D01*
X3155896Y-11556841D02*
X3222562Y-11413984D01*
X3222562Y-11413984D02*
X3222562Y-11613984D01*
X3403515Y-11613984D02*
X3403515Y-11509222D01*
X3403515Y-11509222D02*
X3393991Y-11490174D01*
X3393991Y-11490174D02*
X3374943Y-11480650D01*
X3374943Y-11480650D02*
X3336848Y-11480650D01*
X3336848Y-11480650D02*
X3317801Y-11490174D01*
X3403515Y-11604460D02*
X3384467Y-11613984D01*
X3384467Y-11613984D02*
X3336848Y-11613984D01*
X3336848Y-11613984D02*
X3317801Y-11604460D01*
X3317801Y-11604460D02*
X3308277Y-11585412D01*
X3308277Y-11585412D02*
X3308277Y-11566365D01*
X3308277Y-11566365D02*
X3317801Y-11547317D01*
X3317801Y-11547317D02*
X3336848Y-11537793D01*
X3336848Y-11537793D02*
X3384467Y-11537793D01*
X3384467Y-11537793D02*
X3403515Y-11528269D01*
X3498753Y-11480650D02*
X3498753Y-11680650D01*
X3498753Y-11490174D02*
X3517801Y-11480650D01*
X3517801Y-11480650D02*
X3555896Y-11480650D01*
X3555896Y-11480650D02*
X3574943Y-11490174D01*
X3574943Y-11490174D02*
X3584467Y-11499698D01*
X3584467Y-11499698D02*
X3593991Y-11518746D01*
X3593991Y-11518746D02*
X3593991Y-11575888D01*
X3593991Y-11575888D02*
X3584467Y-11594936D01*
X3584467Y-11594936D02*
X3574943Y-11604460D01*
X3574943Y-11604460D02*
X3555896Y-11613984D01*
X3555896Y-11613984D02*
X3517801Y-11613984D01*
X3517801Y-11613984D02*
X3498753Y-11604460D01*
X3679705Y-11594936D02*
X3689229Y-11604460D01*
X3689229Y-11604460D02*
X3679705Y-11613984D01*
X3679705Y-11613984D02*
X3670182Y-11604460D01*
X3670182Y-11604460D02*
X3679705Y-11594936D01*
X3679705Y-11594936D02*
X3679705Y-11613984D01*
X3679705Y-11490174D02*
X3689229Y-11499698D01*
X3689229Y-11499698D02*
X3679705Y-11509222D01*
X3679705Y-11509222D02*
X3670182Y-11499698D01*
X3670182Y-11499698D02*
X3679705Y-11490174D01*
X3679705Y-11490174D02*
X3679705Y-11509222D01*
D12*
X1977500Y-11907500D02*
X2047500Y-11977500D01*
X2047500Y-11907500D02*
X1977500Y-11977500D01*
D11*
X2346372Y-11833984D02*
X2365420Y-11833984D01*
X2365420Y-11833984D02*
X2384467Y-11843508D01*
X2384467Y-11843508D02*
X2393991Y-11853031D01*
X2393991Y-11853031D02*
X2403515Y-11872079D01*
X2403515Y-11872079D02*
X2413039Y-11910174D01*
X2413039Y-11910174D02*
X2413039Y-11957793D01*
X2413039Y-11957793D02*
X2403515Y-11995888D01*
X2403515Y-11995888D02*
X2393991Y-12014936D01*
X2393991Y-12014936D02*
X2384467Y-12024460D01*
X2384467Y-12024460D02*
X2365420Y-12033984D01*
X2365420Y-12033984D02*
X2346372Y-12033984D01*
X2346372Y-12033984D02*
X2327324Y-12024460D01*
X2327324Y-12024460D02*
X2317801Y-12014936D01*
X2317801Y-12014936D02*
X2308277Y-11995888D01*
X2308277Y-11995888D02*
X2298753Y-11957793D01*
X2298753Y-11957793D02*
X2298753Y-11910174D01*
X2298753Y-11910174D02*
X2308277Y-11872079D01*
X2308277Y-11872079D02*
X2317801Y-11853031D01*
X2317801Y-11853031D02*
X2327324Y-11843508D01*
X2327324Y-11843508D02*
X2346372Y-11833984D01*
X2498753Y-12014936D02*
X2508277Y-12024460D01*
X2508277Y-12024460D02*
X2498753Y-12033984D01*
X2498753Y-12033984D02*
X2489229Y-12024460D01*
X2489229Y-12024460D02*
X2498753Y-12014936D01*
X2498753Y-12014936D02*
X2498753Y-12033984D01*
X2574944Y-11833984D02*
X2708277Y-11833984D01*
X2708277Y-11833984D02*
X2622563Y-12033984D01*
X2822562Y-11833984D02*
X2841610Y-11833984D01*
X2841610Y-11833984D02*
X2860658Y-11843508D01*
X2860658Y-11843508D02*
X2870182Y-11853031D01*
X2870182Y-11853031D02*
X2879705Y-11872079D01*
X2879705Y-11872079D02*
X2889229Y-11910174D01*
X2889229Y-11910174D02*
X2889229Y-11957793D01*
X2889229Y-11957793D02*
X2879705Y-11995888D01*
X2879705Y-11995888D02*
X2870182Y-12014936D01*
X2870182Y-12014936D02*
X2860658Y-12024460D01*
X2860658Y-12024460D02*
X2841610Y-12033984D01*
X2841610Y-12033984D02*
X2822562Y-12033984D01*
X2822562Y-12033984D02*
X2803515Y-12024460D01*
X2803515Y-12024460D02*
X2793991Y-12014936D01*
X2793991Y-12014936D02*
X2784467Y-11995888D01*
X2784467Y-11995888D02*
X2774944Y-11957793D01*
X2774944Y-11957793D02*
X2774944Y-11910174D01*
X2774944Y-11910174D02*
X2784467Y-11872079D01*
X2784467Y-11872079D02*
X2793991Y-11853031D01*
X2793991Y-11853031D02*
X2803515Y-11843508D01*
X2803515Y-11843508D02*
X2822562Y-11833984D01*
X3013039Y-11833984D02*
X3032086Y-11833984D01*
X3032086Y-11833984D02*
X3051134Y-11843508D01*
X3051134Y-11843508D02*
X3060658Y-11853031D01*
X3060658Y-11853031D02*
X3070182Y-11872079D01*
X3070182Y-11872079D02*
X3079705Y-11910174D01*
X3079705Y-11910174D02*
X3079705Y-11957793D01*
X3079705Y-11957793D02*
X3070182Y-11995888D01*
X3070182Y-11995888D02*
X3060658Y-12014936D01*
X3060658Y-12014936D02*
X3051134Y-12024460D01*
X3051134Y-12024460D02*
X3032086Y-12033984D01*
X3032086Y-12033984D02*
X3013039Y-12033984D01*
X3013039Y-12033984D02*
X2993991Y-12024460D01*
X2993991Y-12024460D02*
X2984467Y-12014936D01*
X2984467Y-12014936D02*
X2974943Y-11995888D01*
X2974943Y-11995888D02*
X2965420Y-11957793D01*
X2965420Y-11957793D02*
X2965420Y-11910174D01*
X2965420Y-11910174D02*
X2974943Y-11872079D01*
X2974943Y-11872079D02*
X2984467Y-11853031D01*
X2984467Y-11853031D02*
X2993991Y-11843508D01*
X2993991Y-11843508D02*
X3013039Y-11833984D01*
X3165420Y-12033984D02*
X3165420Y-11900650D01*
X3165420Y-11919698D02*
X3174943Y-11910174D01*
X3174943Y-11910174D02*
X3193991Y-11900650D01*
X3193991Y-11900650D02*
X3222563Y-11900650D01*
X3222563Y-11900650D02*
X3241610Y-11910174D01*
X3241610Y-11910174D02*
X3251134Y-11929222D01*
X3251134Y-11929222D02*
X3251134Y-12033984D01*
X3251134Y-11929222D02*
X3260658Y-11910174D01*
X3260658Y-11910174D02*
X3279705Y-11900650D01*
X3279705Y-11900650D02*
X3308277Y-11900650D01*
X3308277Y-11900650D02*
X3327324Y-11910174D01*
X3327324Y-11910174D02*
X3336848Y-11929222D01*
X3336848Y-11929222D02*
X3336848Y-12033984D01*
X3432086Y-12033984D02*
X3432086Y-11900650D01*
X3432086Y-11919698D02*
X3441610Y-11910174D01*
X3441610Y-11910174D02*
X3460658Y-11900650D01*
X3460658Y-11900650D02*
X3489229Y-11900650D01*
X3489229Y-11900650D02*
X3508277Y-11910174D01*
X3508277Y-11910174D02*
X3517801Y-11929222D01*
X3517801Y-11929222D02*
X3517801Y-12033984D01*
X3517801Y-11929222D02*
X3527324Y-11910174D01*
X3527324Y-11910174D02*
X3546372Y-11900650D01*
X3546372Y-11900650D02*
X3574943Y-11900650D01*
X3574943Y-11900650D02*
X3593991Y-11910174D01*
X3593991Y-11910174D02*
X3603515Y-11929222D01*
X3603515Y-11929222D02*
X3603515Y-12033984D01*
X3993991Y-11824460D02*
X3822563Y-12081603D01*
X4251134Y-11833984D02*
X4270182Y-11833984D01*
X4270182Y-11833984D02*
X4289229Y-11843508D01*
X4289229Y-11843508D02*
X4298753Y-11853031D01*
X4298753Y-11853031D02*
X4308277Y-11872079D01*
X4308277Y-11872079D02*
X4317801Y-11910174D01*
X4317801Y-11910174D02*
X4317801Y-11957793D01*
X4317801Y-11957793D02*
X4308277Y-11995888D01*
X4308277Y-11995888D02*
X4298753Y-12014936D01*
X4298753Y-12014936D02*
X4289229Y-12024460D01*
X4289229Y-12024460D02*
X4270182Y-12033984D01*
X4270182Y-12033984D02*
X4251134Y-12033984D01*
X4251134Y-12033984D02*
X4232087Y-12024460D01*
X4232087Y-12024460D02*
X4222563Y-12014936D01*
X4222563Y-12014936D02*
X4213039Y-11995888D01*
X4213039Y-11995888D02*
X4203515Y-11957793D01*
X4203515Y-11957793D02*
X4203515Y-11910174D01*
X4203515Y-11910174D02*
X4213039Y-11872079D01*
X4213039Y-11872079D02*
X4222563Y-11853031D01*
X4222563Y-11853031D02*
X4232087Y-11843508D01*
X4232087Y-11843508D02*
X4251134Y-11833984D01*
X4403515Y-12014936D02*
X4413039Y-12024460D01*
X4413039Y-12024460D02*
X4403515Y-12033984D01*
X4403515Y-12033984D02*
X4393991Y-12024460D01*
X4393991Y-12024460D02*
X4403515Y-12014936D01*
X4403515Y-12014936D02*
X4403515Y-12033984D01*
X4536848Y-11833984D02*
X4555896Y-11833984D01*
X4555896Y-11833984D02*
X4574944Y-11843508D01*
X4574944Y-11843508D02*
X4584468Y-11853031D01*
X4584468Y-11853031D02*
X4593991Y-11872079D01*
X4593991Y-11872079D02*
X4603515Y-11910174D01*
X4603515Y-11910174D02*
X4603515Y-11957793D01*
X4603515Y-11957793D02*
X4593991Y-11995888D01*
X4593991Y-11995888D02*
X4584468Y-12014936D01*
X4584468Y-12014936D02*
X4574944Y-12024460D01*
X4574944Y-12024460D02*
X4555896Y-12033984D01*
X4555896Y-12033984D02*
X4536848Y-12033984D01*
X4536848Y-12033984D02*
X4517801Y-12024460D01*
X4517801Y-12024460D02*
X4508277Y-12014936D01*
X4508277Y-12014936D02*
X4498753Y-11995888D01*
X4498753Y-11995888D02*
X4489229Y-11957793D01*
X4489229Y-11957793D02*
X4489229Y-11910174D01*
X4489229Y-11910174D02*
X4498753Y-11872079D01*
X4498753Y-11872079D02*
X4508277Y-11853031D01*
X4508277Y-11853031D02*
X4517801Y-11843508D01*
X4517801Y-11843508D02*
X4536848Y-11833984D01*
X4679706Y-11853031D02*
X4689229Y-11843508D01*
X4689229Y-11843508D02*
X4708277Y-11833984D01*
X4708277Y-11833984D02*
X4755896Y-11833984D01*
X4755896Y-11833984D02*
X4774944Y-11843508D01*
X4774944Y-11843508D02*
X4784468Y-11853031D01*
X4784468Y-11853031D02*
X4793991Y-11872079D01*
X4793991Y-11872079D02*
X4793991Y-11891127D01*
X4793991Y-11891127D02*
X4784468Y-11919698D01*
X4784468Y-11919698D02*
X4670182Y-12033984D01*
X4670182Y-12033984D02*
X4793991Y-12033984D01*
X4860658Y-11833984D02*
X4993991Y-11833984D01*
X4993991Y-11833984D02*
X4908277Y-12033984D01*
X5155896Y-11833984D02*
X5117801Y-11833984D01*
X5117801Y-11833984D02*
X5098753Y-11843508D01*
X5098753Y-11843508D02*
X5089229Y-11853031D01*
X5089229Y-11853031D02*
X5070182Y-11881603D01*
X5070182Y-11881603D02*
X5060658Y-11919698D01*
X5060658Y-11919698D02*
X5060658Y-11995888D01*
X5060658Y-11995888D02*
X5070182Y-12014936D01*
X5070182Y-12014936D02*
X5079706Y-12024460D01*
X5079706Y-12024460D02*
X5098753Y-12033984D01*
X5098753Y-12033984D02*
X5136849Y-12033984D01*
X5136849Y-12033984D02*
X5155896Y-12024460D01*
X5155896Y-12024460D02*
X5165420Y-12014936D01*
X5165420Y-12014936D02*
X5174944Y-11995888D01*
X5174944Y-11995888D02*
X5174944Y-11948269D01*
X5174944Y-11948269D02*
X5165420Y-11929222D01*
X5165420Y-11929222D02*
X5155896Y-11919698D01*
X5155896Y-11919698D02*
X5136849Y-11910174D01*
X5136849Y-11910174D02*
X5098753Y-11910174D01*
X5098753Y-11910174D02*
X5079706Y-11919698D01*
X5079706Y-11919698D02*
X5070182Y-11929222D01*
X5070182Y-11929222D02*
X5060658Y-11948269D01*
X5251134Y-11833984D02*
X5251134Y-11872079D01*
X5327325Y-11833984D02*
X5327325Y-11872079D01*
X5622563Y-12110174D02*
X5613039Y-12100650D01*
X5613039Y-12100650D02*
X5593991Y-12072079D01*
X5593991Y-12072079D02*
X5584468Y-12053031D01*
X5584468Y-12053031D02*
X5574944Y-12024460D01*
X5574944Y-12024460D02*
X5565420Y-11976841D01*
X5565420Y-11976841D02*
X5565420Y-11938746D01*
X5565420Y-11938746D02*
X5574944Y-11891127D01*
X5574944Y-11891127D02*
X5584468Y-11862555D01*
X5584468Y-11862555D02*
X5593991Y-11843508D01*
X5593991Y-11843508D02*
X5613039Y-11814936D01*
X5613039Y-11814936D02*
X5622563Y-11805412D01*
X5689229Y-11853031D02*
X5698753Y-11843508D01*
X5698753Y-11843508D02*
X5717801Y-11833984D01*
X5717801Y-11833984D02*
X5765420Y-11833984D01*
X5765420Y-11833984D02*
X5784468Y-11843508D01*
X5784468Y-11843508D02*
X5793991Y-11853031D01*
X5793991Y-11853031D02*
X5803515Y-11872079D01*
X5803515Y-11872079D02*
X5803515Y-11891127D01*
X5803515Y-11891127D02*
X5793991Y-11919698D01*
X5793991Y-11919698D02*
X5679706Y-12033984D01*
X5679706Y-12033984D02*
X5803515Y-12033984D01*
X6041610Y-12033984D02*
X6041610Y-11833984D01*
X6127325Y-12033984D02*
X6127325Y-11929222D01*
X6127325Y-11929222D02*
X6117801Y-11910174D01*
X6117801Y-11910174D02*
X6098753Y-11900650D01*
X6098753Y-11900650D02*
X6070182Y-11900650D01*
X6070182Y-11900650D02*
X6051134Y-11910174D01*
X6051134Y-11910174D02*
X6041610Y-11919698D01*
X6251134Y-12033984D02*
X6232087Y-12024460D01*
X6232087Y-12024460D02*
X6222563Y-12014936D01*
X6222563Y-12014936D02*
X6213039Y-11995888D01*
X6213039Y-11995888D02*
X6213039Y-11938746D01*
X6213039Y-11938746D02*
X6222563Y-11919698D01*
X6222563Y-11919698D02*
X6232087Y-11910174D01*
X6232087Y-11910174D02*
X6251134Y-11900650D01*
X6251134Y-11900650D02*
X6279706Y-11900650D01*
X6279706Y-11900650D02*
X6298753Y-11910174D01*
X6298753Y-11910174D02*
X6308277Y-11919698D01*
X6308277Y-11919698D02*
X6317801Y-11938746D01*
X6317801Y-11938746D02*
X6317801Y-11995888D01*
X6317801Y-11995888D02*
X6308277Y-12014936D01*
X6308277Y-12014936D02*
X6298753Y-12024460D01*
X6298753Y-12024460D02*
X6279706Y-12033984D01*
X6279706Y-12033984D02*
X6251134Y-12033984D01*
X6432087Y-12033984D02*
X6413039Y-12024460D01*
X6413039Y-12024460D02*
X6403515Y-12005412D01*
X6403515Y-12005412D02*
X6403515Y-11833984D01*
X6584468Y-12024460D02*
X6565420Y-12033984D01*
X6565420Y-12033984D02*
X6527325Y-12033984D01*
X6527325Y-12033984D02*
X6508277Y-12024460D01*
X6508277Y-12024460D02*
X6498753Y-12005412D01*
X6498753Y-12005412D02*
X6498753Y-11929222D01*
X6498753Y-11929222D02*
X6508277Y-11910174D01*
X6508277Y-11910174D02*
X6527325Y-11900650D01*
X6527325Y-11900650D02*
X6565420Y-11900650D01*
X6565420Y-11900650D02*
X6584468Y-11910174D01*
X6584468Y-11910174D02*
X6593991Y-11929222D01*
X6593991Y-11929222D02*
X6593991Y-11948269D01*
X6593991Y-11948269D02*
X6498753Y-11967317D01*
X6670182Y-12024460D02*
X6689230Y-12033984D01*
X6689230Y-12033984D02*
X6727325Y-12033984D01*
X6727325Y-12033984D02*
X6746372Y-12024460D01*
X6746372Y-12024460D02*
X6755896Y-12005412D01*
X6755896Y-12005412D02*
X6755896Y-11995888D01*
X6755896Y-11995888D02*
X6746372Y-11976841D01*
X6746372Y-11976841D02*
X6727325Y-11967317D01*
X6727325Y-11967317D02*
X6698753Y-11967317D01*
X6698753Y-11967317D02*
X6679706Y-11957793D01*
X6679706Y-11957793D02*
X6670182Y-11938746D01*
X6670182Y-11938746D02*
X6670182Y-11929222D01*
X6670182Y-11929222D02*
X6679706Y-11910174D01*
X6679706Y-11910174D02*
X6698753Y-11900650D01*
X6698753Y-11900650D02*
X6727325Y-11900650D01*
X6727325Y-11900650D02*
X6746372Y-11910174D01*
X6822563Y-12110174D02*
X6832087Y-12100650D01*
X6832087Y-12100650D02*
X6851134Y-12072079D01*
X6851134Y-12072079D02*
X6860658Y-12053031D01*
X6860658Y-12053031D02*
X6870182Y-12024460D01*
X6870182Y-12024460D02*
X6879706Y-11976841D01*
X6879706Y-11976841D02*
X6879706Y-11938746D01*
X6879706Y-11938746D02*
X6870182Y-11891127D01*
X6870182Y-11891127D02*
X6860658Y-11862555D01*
X6860658Y-11862555D02*
X6851134Y-11843508D01*
X6851134Y-11843508D02*
X6832087Y-11814936D01*
X6832087Y-11814936D02*
X6822563Y-11805412D01*
D12*
X2047500Y-12206500D02*
G75*
G02*
X1972500Y-12206500I-37500J0D01*
G01*
X1972500Y-12206500D02*
G75*
G02*
X2047500Y-12206500I37500J0D01*
G01*
D11*
X2346372Y-12097984D02*
X2365420Y-12097984D01*
X2365420Y-12097984D02*
X2384467Y-12107508D01*
X2384467Y-12107508D02*
X2393991Y-12117031D01*
X2393991Y-12117031D02*
X2403515Y-12136079D01*
X2403515Y-12136079D02*
X2413039Y-12174174D01*
X2413039Y-12174174D02*
X2413039Y-12221793D01*
X2413039Y-12221793D02*
X2403515Y-12259888D01*
X2403515Y-12259888D02*
X2393991Y-12278936D01*
X2393991Y-12278936D02*
X2384467Y-12288460D01*
X2384467Y-12288460D02*
X2365420Y-12297984D01*
X2365420Y-12297984D02*
X2346372Y-12297984D01*
X2346372Y-12297984D02*
X2327324Y-12288460D01*
X2327324Y-12288460D02*
X2317801Y-12278936D01*
X2317801Y-12278936D02*
X2308277Y-12259888D01*
X2308277Y-12259888D02*
X2298753Y-12221793D01*
X2298753Y-12221793D02*
X2298753Y-12174174D01*
X2298753Y-12174174D02*
X2308277Y-12136079D01*
X2308277Y-12136079D02*
X2317801Y-12117031D01*
X2317801Y-12117031D02*
X2327324Y-12107508D01*
X2327324Y-12107508D02*
X2346372Y-12097984D01*
X2498753Y-12278936D02*
X2508277Y-12288460D01*
X2508277Y-12288460D02*
X2498753Y-12297984D01*
X2498753Y-12297984D02*
X2489229Y-12288460D01*
X2489229Y-12288460D02*
X2498753Y-12278936D01*
X2498753Y-12278936D02*
X2498753Y-12297984D01*
X2574944Y-12097984D02*
X2708277Y-12097984D01*
X2708277Y-12097984D02*
X2622563Y-12297984D01*
X2879705Y-12097984D02*
X2784467Y-12097984D01*
X2784467Y-12097984D02*
X2774944Y-12193222D01*
X2774944Y-12193222D02*
X2784467Y-12183698D01*
X2784467Y-12183698D02*
X2803515Y-12174174D01*
X2803515Y-12174174D02*
X2851134Y-12174174D01*
X2851134Y-12174174D02*
X2870182Y-12183698D01*
X2870182Y-12183698D02*
X2879705Y-12193222D01*
X2879705Y-12193222D02*
X2889229Y-12212269D01*
X2889229Y-12212269D02*
X2889229Y-12259888D01*
X2889229Y-12259888D02*
X2879705Y-12278936D01*
X2879705Y-12278936D02*
X2870182Y-12288460D01*
X2870182Y-12288460D02*
X2851134Y-12297984D01*
X2851134Y-12297984D02*
X2803515Y-12297984D01*
X2803515Y-12297984D02*
X2784467Y-12288460D01*
X2784467Y-12288460D02*
X2774944Y-12278936D01*
X3013039Y-12097984D02*
X3032086Y-12097984D01*
X3032086Y-12097984D02*
X3051134Y-12107508D01*
X3051134Y-12107508D02*
X3060658Y-12117031D01*
X3060658Y-12117031D02*
X3070182Y-12136079D01*
X3070182Y-12136079D02*
X3079705Y-12174174D01*
X3079705Y-12174174D02*
X3079705Y-12221793D01*
X3079705Y-12221793D02*
X3070182Y-12259888D01*
X3070182Y-12259888D02*
X3060658Y-12278936D01*
X3060658Y-12278936D02*
X3051134Y-12288460D01*
X3051134Y-12288460D02*
X3032086Y-12297984D01*
X3032086Y-12297984D02*
X3013039Y-12297984D01*
X3013039Y-12297984D02*
X2993991Y-12288460D01*
X2993991Y-12288460D02*
X2984467Y-12278936D01*
X2984467Y-12278936D02*
X2974943Y-12259888D01*
X2974943Y-12259888D02*
X2965420Y-12221793D01*
X2965420Y-12221793D02*
X2965420Y-12174174D01*
X2965420Y-12174174D02*
X2974943Y-12136079D01*
X2974943Y-12136079D02*
X2984467Y-12117031D01*
X2984467Y-12117031D02*
X2993991Y-12107508D01*
X2993991Y-12107508D02*
X3013039Y-12097984D01*
X3165420Y-12297984D02*
X3165420Y-12164650D01*
X3165420Y-12183698D02*
X3174943Y-12174174D01*
X3174943Y-12174174D02*
X3193991Y-12164650D01*
X3193991Y-12164650D02*
X3222563Y-12164650D01*
X3222563Y-12164650D02*
X3241610Y-12174174D01*
X3241610Y-12174174D02*
X3251134Y-12193222D01*
X3251134Y-12193222D02*
X3251134Y-12297984D01*
X3251134Y-12193222D02*
X3260658Y-12174174D01*
X3260658Y-12174174D02*
X3279705Y-12164650D01*
X3279705Y-12164650D02*
X3308277Y-12164650D01*
X3308277Y-12164650D02*
X3327324Y-12174174D01*
X3327324Y-12174174D02*
X3336848Y-12193222D01*
X3336848Y-12193222D02*
X3336848Y-12297984D01*
X3432086Y-12297984D02*
X3432086Y-12164650D01*
X3432086Y-12183698D02*
X3441610Y-12174174D01*
X3441610Y-12174174D02*
X3460658Y-12164650D01*
X3460658Y-12164650D02*
X3489229Y-12164650D01*
X3489229Y-12164650D02*
X3508277Y-12174174D01*
X3508277Y-12174174D02*
X3517801Y-12193222D01*
X3517801Y-12193222D02*
X3517801Y-12297984D01*
X3517801Y-12193222D02*
X3527324Y-12174174D01*
X3527324Y-12174174D02*
X3546372Y-12164650D01*
X3546372Y-12164650D02*
X3574943Y-12164650D01*
X3574943Y-12164650D02*
X3593991Y-12174174D01*
X3593991Y-12174174D02*
X3603515Y-12193222D01*
X3603515Y-12193222D02*
X3603515Y-12297984D01*
X3993991Y-12088460D02*
X3822563Y-12345603D01*
X4251134Y-12097984D02*
X4270182Y-12097984D01*
X4270182Y-12097984D02*
X4289229Y-12107508D01*
X4289229Y-12107508D02*
X4298753Y-12117031D01*
X4298753Y-12117031D02*
X4308277Y-12136079D01*
X4308277Y-12136079D02*
X4317801Y-12174174D01*
X4317801Y-12174174D02*
X4317801Y-12221793D01*
X4317801Y-12221793D02*
X4308277Y-12259888D01*
X4308277Y-12259888D02*
X4298753Y-12278936D01*
X4298753Y-12278936D02*
X4289229Y-12288460D01*
X4289229Y-12288460D02*
X4270182Y-12297984D01*
X4270182Y-12297984D02*
X4251134Y-12297984D01*
X4251134Y-12297984D02*
X4232087Y-12288460D01*
X4232087Y-12288460D02*
X4222563Y-12278936D01*
X4222563Y-12278936D02*
X4213039Y-12259888D01*
X4213039Y-12259888D02*
X4203515Y-12221793D01*
X4203515Y-12221793D02*
X4203515Y-12174174D01*
X4203515Y-12174174D02*
X4213039Y-12136079D01*
X4213039Y-12136079D02*
X4222563Y-12117031D01*
X4222563Y-12117031D02*
X4232087Y-12107508D01*
X4232087Y-12107508D02*
X4251134Y-12097984D01*
X4403515Y-12278936D02*
X4413039Y-12288460D01*
X4413039Y-12288460D02*
X4403515Y-12297984D01*
X4403515Y-12297984D02*
X4393991Y-12288460D01*
X4393991Y-12288460D02*
X4403515Y-12278936D01*
X4403515Y-12278936D02*
X4403515Y-12297984D01*
X4536848Y-12097984D02*
X4555896Y-12097984D01*
X4555896Y-12097984D02*
X4574944Y-12107508D01*
X4574944Y-12107508D02*
X4584468Y-12117031D01*
X4584468Y-12117031D02*
X4593991Y-12136079D01*
X4593991Y-12136079D02*
X4603515Y-12174174D01*
X4603515Y-12174174D02*
X4603515Y-12221793D01*
X4603515Y-12221793D02*
X4593991Y-12259888D01*
X4593991Y-12259888D02*
X4584468Y-12278936D01*
X4584468Y-12278936D02*
X4574944Y-12288460D01*
X4574944Y-12288460D02*
X4555896Y-12297984D01*
X4555896Y-12297984D02*
X4536848Y-12297984D01*
X4536848Y-12297984D02*
X4517801Y-12288460D01*
X4517801Y-12288460D02*
X4508277Y-12278936D01*
X4508277Y-12278936D02*
X4498753Y-12259888D01*
X4498753Y-12259888D02*
X4489229Y-12221793D01*
X4489229Y-12221793D02*
X4489229Y-12174174D01*
X4489229Y-12174174D02*
X4498753Y-12136079D01*
X4498753Y-12136079D02*
X4508277Y-12117031D01*
X4508277Y-12117031D02*
X4517801Y-12107508D01*
X4517801Y-12107508D02*
X4536848Y-12097984D01*
X4679706Y-12117031D02*
X4689229Y-12107508D01*
X4689229Y-12107508D02*
X4708277Y-12097984D01*
X4708277Y-12097984D02*
X4755896Y-12097984D01*
X4755896Y-12097984D02*
X4774944Y-12107508D01*
X4774944Y-12107508D02*
X4784468Y-12117031D01*
X4784468Y-12117031D02*
X4793991Y-12136079D01*
X4793991Y-12136079D02*
X4793991Y-12155127D01*
X4793991Y-12155127D02*
X4784468Y-12183698D01*
X4784468Y-12183698D02*
X4670182Y-12297984D01*
X4670182Y-12297984D02*
X4793991Y-12297984D01*
X4889229Y-12297984D02*
X4927325Y-12297984D01*
X4927325Y-12297984D02*
X4946372Y-12288460D01*
X4946372Y-12288460D02*
X4955896Y-12278936D01*
X4955896Y-12278936D02*
X4974944Y-12250365D01*
X4974944Y-12250365D02*
X4984468Y-12212269D01*
X4984468Y-12212269D02*
X4984468Y-12136079D01*
X4984468Y-12136079D02*
X4974944Y-12117031D01*
X4974944Y-12117031D02*
X4965420Y-12107508D01*
X4965420Y-12107508D02*
X4946372Y-12097984D01*
X4946372Y-12097984D02*
X4908277Y-12097984D01*
X4908277Y-12097984D02*
X4889229Y-12107508D01*
X4889229Y-12107508D02*
X4879706Y-12117031D01*
X4879706Y-12117031D02*
X4870182Y-12136079D01*
X4870182Y-12136079D02*
X4870182Y-12183698D01*
X4870182Y-12183698D02*
X4879706Y-12202746D01*
X4879706Y-12202746D02*
X4889229Y-12212269D01*
X4889229Y-12212269D02*
X4908277Y-12221793D01*
X4908277Y-12221793D02*
X4946372Y-12221793D01*
X4946372Y-12221793D02*
X4965420Y-12212269D01*
X4965420Y-12212269D02*
X4974944Y-12202746D01*
X4974944Y-12202746D02*
X4984468Y-12183698D01*
X5165420Y-12097984D02*
X5070182Y-12097984D01*
X5070182Y-12097984D02*
X5060658Y-12193222D01*
X5060658Y-12193222D02*
X5070182Y-12183698D01*
X5070182Y-12183698D02*
X5089229Y-12174174D01*
X5089229Y-12174174D02*
X5136849Y-12174174D01*
X5136849Y-12174174D02*
X5155896Y-12183698D01*
X5155896Y-12183698D02*
X5165420Y-12193222D01*
X5165420Y-12193222D02*
X5174944Y-12212269D01*
X5174944Y-12212269D02*
X5174944Y-12259888D01*
X5174944Y-12259888D02*
X5165420Y-12278936D01*
X5165420Y-12278936D02*
X5155896Y-12288460D01*
X5155896Y-12288460D02*
X5136849Y-12297984D01*
X5136849Y-12297984D02*
X5089229Y-12297984D01*
X5089229Y-12297984D02*
X5070182Y-12288460D01*
X5070182Y-12288460D02*
X5060658Y-12278936D01*
X5251134Y-12097984D02*
X5251134Y-12136079D01*
X5327325Y-12097984D02*
X5327325Y-12136079D01*
X5622563Y-12374174D02*
X5613039Y-12364650D01*
X5613039Y-12364650D02*
X5593991Y-12336079D01*
X5593991Y-12336079D02*
X5584468Y-12317031D01*
X5584468Y-12317031D02*
X5574944Y-12288460D01*
X5574944Y-12288460D02*
X5565420Y-12240841D01*
X5565420Y-12240841D02*
X5565420Y-12202746D01*
X5565420Y-12202746D02*
X5574944Y-12155127D01*
X5574944Y-12155127D02*
X5584468Y-12126555D01*
X5584468Y-12126555D02*
X5593991Y-12107508D01*
X5593991Y-12107508D02*
X5613039Y-12078936D01*
X5613039Y-12078936D02*
X5622563Y-12069412D01*
X5689229Y-12117031D02*
X5698753Y-12107508D01*
X5698753Y-12107508D02*
X5717801Y-12097984D01*
X5717801Y-12097984D02*
X5765420Y-12097984D01*
X5765420Y-12097984D02*
X5784468Y-12107508D01*
X5784468Y-12107508D02*
X5793991Y-12117031D01*
X5793991Y-12117031D02*
X5803515Y-12136079D01*
X5803515Y-12136079D02*
X5803515Y-12155127D01*
X5803515Y-12155127D02*
X5793991Y-12183698D01*
X5793991Y-12183698D02*
X5679706Y-12297984D01*
X5679706Y-12297984D02*
X5803515Y-12297984D01*
X5993991Y-12297984D02*
X5879706Y-12297984D01*
X5936848Y-12297984D02*
X5936848Y-12097984D01*
X5936848Y-12097984D02*
X5917801Y-12126555D01*
X5917801Y-12126555D02*
X5898753Y-12145603D01*
X5898753Y-12145603D02*
X5879706Y-12155127D01*
X6232087Y-12297984D02*
X6232087Y-12097984D01*
X6317801Y-12297984D02*
X6317801Y-12193222D01*
X6317801Y-12193222D02*
X6308277Y-12174174D01*
X6308277Y-12174174D02*
X6289230Y-12164650D01*
X6289230Y-12164650D02*
X6260658Y-12164650D01*
X6260658Y-12164650D02*
X6241610Y-12174174D01*
X6241610Y-12174174D02*
X6232087Y-12183698D01*
X6441610Y-12297984D02*
X6422563Y-12288460D01*
X6422563Y-12288460D02*
X6413039Y-12278936D01*
X6413039Y-12278936D02*
X6403515Y-12259888D01*
X6403515Y-12259888D02*
X6403515Y-12202746D01*
X6403515Y-12202746D02*
X6413039Y-12183698D01*
X6413039Y-12183698D02*
X6422563Y-12174174D01*
X6422563Y-12174174D02*
X6441610Y-12164650D01*
X6441610Y-12164650D02*
X6470182Y-12164650D01*
X6470182Y-12164650D02*
X6489230Y-12174174D01*
X6489230Y-12174174D02*
X6498753Y-12183698D01*
X6498753Y-12183698D02*
X6508277Y-12202746D01*
X6508277Y-12202746D02*
X6508277Y-12259888D01*
X6508277Y-12259888D02*
X6498753Y-12278936D01*
X6498753Y-12278936D02*
X6489230Y-12288460D01*
X6489230Y-12288460D02*
X6470182Y-12297984D01*
X6470182Y-12297984D02*
X6441610Y-12297984D01*
X6622563Y-12297984D02*
X6603515Y-12288460D01*
X6603515Y-12288460D02*
X6593991Y-12269412D01*
X6593991Y-12269412D02*
X6593991Y-12097984D01*
X6774944Y-12288460D02*
X6755896Y-12297984D01*
X6755896Y-12297984D02*
X6717801Y-12297984D01*
X6717801Y-12297984D02*
X6698753Y-12288460D01*
X6698753Y-12288460D02*
X6689230Y-12269412D01*
X6689230Y-12269412D02*
X6689230Y-12193222D01*
X6689230Y-12193222D02*
X6698753Y-12174174D01*
X6698753Y-12174174D02*
X6717801Y-12164650D01*
X6717801Y-12164650D02*
X6755896Y-12164650D01*
X6755896Y-12164650D02*
X6774944Y-12174174D01*
X6774944Y-12174174D02*
X6784468Y-12193222D01*
X6784468Y-12193222D02*
X6784468Y-12212269D01*
X6784468Y-12212269D02*
X6689230Y-12231317D01*
X6860658Y-12288460D02*
X6879706Y-12297984D01*
X6879706Y-12297984D02*
X6917801Y-12297984D01*
X6917801Y-12297984D02*
X6936849Y-12288460D01*
X6936849Y-12288460D02*
X6946372Y-12269412D01*
X6946372Y-12269412D02*
X6946372Y-12259888D01*
X6946372Y-12259888D02*
X6936849Y-12240841D01*
X6936849Y-12240841D02*
X6917801Y-12231317D01*
X6917801Y-12231317D02*
X6889230Y-12231317D01*
X6889230Y-12231317D02*
X6870182Y-12221793D01*
X6870182Y-12221793D02*
X6860658Y-12202746D01*
X6860658Y-12202746D02*
X6860658Y-12193222D01*
X6860658Y-12193222D02*
X6870182Y-12174174D01*
X6870182Y-12174174D02*
X6889230Y-12164650D01*
X6889230Y-12164650D02*
X6917801Y-12164650D01*
X6917801Y-12164650D02*
X6936849Y-12174174D01*
X7013039Y-12374174D02*
X7022563Y-12364650D01*
X7022563Y-12364650D02*
X7041611Y-12336079D01*
X7041611Y-12336079D02*
X7051134Y-12317031D01*
X7051134Y-12317031D02*
X7060658Y-12288460D01*
X7060658Y-12288460D02*
X7070182Y-12240841D01*
X7070182Y-12240841D02*
X7070182Y-12202746D01*
X7070182Y-12202746D02*
X7060658Y-12155127D01*
X7060658Y-12155127D02*
X7051134Y-12126555D01*
X7051134Y-12126555D02*
X7041611Y-12107508D01*
X7041611Y-12107508D02*
X7022563Y-12078936D01*
X7022563Y-12078936D02*
X7013039Y-12069412D01*
D12*
X2007500Y-12430500D02*
X2007500Y-12510500D01*
X1967500Y-12470500D02*
X2047500Y-12470500D01*
D11*
X2346372Y-12361984D02*
X2365420Y-12361984D01*
X2365420Y-12361984D02*
X2384467Y-12371508D01*
X2384467Y-12371508D02*
X2393991Y-12381031D01*
X2393991Y-12381031D02*
X2403515Y-12400079D01*
X2403515Y-12400079D02*
X2413039Y-12438174D01*
X2413039Y-12438174D02*
X2413039Y-12485793D01*
X2413039Y-12485793D02*
X2403515Y-12523888D01*
X2403515Y-12523888D02*
X2393991Y-12542936D01*
X2393991Y-12542936D02*
X2384467Y-12552460D01*
X2384467Y-12552460D02*
X2365420Y-12561984D01*
X2365420Y-12561984D02*
X2346372Y-12561984D01*
X2346372Y-12561984D02*
X2327324Y-12552460D01*
X2327324Y-12552460D02*
X2317801Y-12542936D01*
X2317801Y-12542936D02*
X2308277Y-12523888D01*
X2308277Y-12523888D02*
X2298753Y-12485793D01*
X2298753Y-12485793D02*
X2298753Y-12438174D01*
X2298753Y-12438174D02*
X2308277Y-12400079D01*
X2308277Y-12400079D02*
X2317801Y-12381031D01*
X2317801Y-12381031D02*
X2327324Y-12371508D01*
X2327324Y-12371508D02*
X2346372Y-12361984D01*
X2498753Y-12542936D02*
X2508277Y-12552460D01*
X2508277Y-12552460D02*
X2498753Y-12561984D01*
X2498753Y-12561984D02*
X2489229Y-12552460D01*
X2489229Y-12552460D02*
X2498753Y-12542936D01*
X2498753Y-12542936D02*
X2498753Y-12561984D01*
X2622563Y-12447698D02*
X2603515Y-12438174D01*
X2603515Y-12438174D02*
X2593991Y-12428650D01*
X2593991Y-12428650D02*
X2584467Y-12409603D01*
X2584467Y-12409603D02*
X2584467Y-12400079D01*
X2584467Y-12400079D02*
X2593991Y-12381031D01*
X2593991Y-12381031D02*
X2603515Y-12371508D01*
X2603515Y-12371508D02*
X2622563Y-12361984D01*
X2622563Y-12361984D02*
X2660658Y-12361984D01*
X2660658Y-12361984D02*
X2679705Y-12371508D01*
X2679705Y-12371508D02*
X2689229Y-12381031D01*
X2689229Y-12381031D02*
X2698753Y-12400079D01*
X2698753Y-12400079D02*
X2698753Y-12409603D01*
X2698753Y-12409603D02*
X2689229Y-12428650D01*
X2689229Y-12428650D02*
X2679705Y-12438174D01*
X2679705Y-12438174D02*
X2660658Y-12447698D01*
X2660658Y-12447698D02*
X2622563Y-12447698D01*
X2622563Y-12447698D02*
X2603515Y-12457222D01*
X2603515Y-12457222D02*
X2593991Y-12466746D01*
X2593991Y-12466746D02*
X2584467Y-12485793D01*
X2584467Y-12485793D02*
X2584467Y-12523888D01*
X2584467Y-12523888D02*
X2593991Y-12542936D01*
X2593991Y-12542936D02*
X2603515Y-12552460D01*
X2603515Y-12552460D02*
X2622563Y-12561984D01*
X2622563Y-12561984D02*
X2660658Y-12561984D01*
X2660658Y-12561984D02*
X2679705Y-12552460D01*
X2679705Y-12552460D02*
X2689229Y-12542936D01*
X2689229Y-12542936D02*
X2698753Y-12523888D01*
X2698753Y-12523888D02*
X2698753Y-12485793D01*
X2698753Y-12485793D02*
X2689229Y-12466746D01*
X2689229Y-12466746D02*
X2679705Y-12457222D01*
X2679705Y-12457222D02*
X2660658Y-12447698D01*
X2822562Y-12361984D02*
X2841610Y-12361984D01*
X2841610Y-12361984D02*
X2860658Y-12371508D01*
X2860658Y-12371508D02*
X2870182Y-12381031D01*
X2870182Y-12381031D02*
X2879705Y-12400079D01*
X2879705Y-12400079D02*
X2889229Y-12438174D01*
X2889229Y-12438174D02*
X2889229Y-12485793D01*
X2889229Y-12485793D02*
X2879705Y-12523888D01*
X2879705Y-12523888D02*
X2870182Y-12542936D01*
X2870182Y-12542936D02*
X2860658Y-12552460D01*
X2860658Y-12552460D02*
X2841610Y-12561984D01*
X2841610Y-12561984D02*
X2822562Y-12561984D01*
X2822562Y-12561984D02*
X2803515Y-12552460D01*
X2803515Y-12552460D02*
X2793991Y-12542936D01*
X2793991Y-12542936D02*
X2784467Y-12523888D01*
X2784467Y-12523888D02*
X2774944Y-12485793D01*
X2774944Y-12485793D02*
X2774944Y-12438174D01*
X2774944Y-12438174D02*
X2784467Y-12400079D01*
X2784467Y-12400079D02*
X2793991Y-12381031D01*
X2793991Y-12381031D02*
X2803515Y-12371508D01*
X2803515Y-12371508D02*
X2822562Y-12361984D01*
X3013039Y-12361984D02*
X3032086Y-12361984D01*
X3032086Y-12361984D02*
X3051134Y-12371508D01*
X3051134Y-12371508D02*
X3060658Y-12381031D01*
X3060658Y-12381031D02*
X3070182Y-12400079D01*
X3070182Y-12400079D02*
X3079705Y-12438174D01*
X3079705Y-12438174D02*
X3079705Y-12485793D01*
X3079705Y-12485793D02*
X3070182Y-12523888D01*
X3070182Y-12523888D02*
X3060658Y-12542936D01*
X3060658Y-12542936D02*
X3051134Y-12552460D01*
X3051134Y-12552460D02*
X3032086Y-12561984D01*
X3032086Y-12561984D02*
X3013039Y-12561984D01*
X3013039Y-12561984D02*
X2993991Y-12552460D01*
X2993991Y-12552460D02*
X2984467Y-12542936D01*
X2984467Y-12542936D02*
X2974943Y-12523888D01*
X2974943Y-12523888D02*
X2965420Y-12485793D01*
X2965420Y-12485793D02*
X2965420Y-12438174D01*
X2965420Y-12438174D02*
X2974943Y-12400079D01*
X2974943Y-12400079D02*
X2984467Y-12381031D01*
X2984467Y-12381031D02*
X2993991Y-12371508D01*
X2993991Y-12371508D02*
X3013039Y-12361984D01*
X3165420Y-12561984D02*
X3165420Y-12428650D01*
X3165420Y-12447698D02*
X3174943Y-12438174D01*
X3174943Y-12438174D02*
X3193991Y-12428650D01*
X3193991Y-12428650D02*
X3222563Y-12428650D01*
X3222563Y-12428650D02*
X3241610Y-12438174D01*
X3241610Y-12438174D02*
X3251134Y-12457222D01*
X3251134Y-12457222D02*
X3251134Y-12561984D01*
X3251134Y-12457222D02*
X3260658Y-12438174D01*
X3260658Y-12438174D02*
X3279705Y-12428650D01*
X3279705Y-12428650D02*
X3308277Y-12428650D01*
X3308277Y-12428650D02*
X3327324Y-12438174D01*
X3327324Y-12438174D02*
X3336848Y-12457222D01*
X3336848Y-12457222D02*
X3336848Y-12561984D01*
X3432086Y-12561984D02*
X3432086Y-12428650D01*
X3432086Y-12447698D02*
X3441610Y-12438174D01*
X3441610Y-12438174D02*
X3460658Y-12428650D01*
X3460658Y-12428650D02*
X3489229Y-12428650D01*
X3489229Y-12428650D02*
X3508277Y-12438174D01*
X3508277Y-12438174D02*
X3517801Y-12457222D01*
X3517801Y-12457222D02*
X3517801Y-12561984D01*
X3517801Y-12457222D02*
X3527324Y-12438174D01*
X3527324Y-12438174D02*
X3546372Y-12428650D01*
X3546372Y-12428650D02*
X3574943Y-12428650D01*
X3574943Y-12428650D02*
X3593991Y-12438174D01*
X3593991Y-12438174D02*
X3603515Y-12457222D01*
X3603515Y-12457222D02*
X3603515Y-12561984D01*
X3993991Y-12352460D02*
X3822563Y-12609603D01*
X4251134Y-12361984D02*
X4270182Y-12361984D01*
X4270182Y-12361984D02*
X4289229Y-12371508D01*
X4289229Y-12371508D02*
X4298753Y-12381031D01*
X4298753Y-12381031D02*
X4308277Y-12400079D01*
X4308277Y-12400079D02*
X4317801Y-12438174D01*
X4317801Y-12438174D02*
X4317801Y-12485793D01*
X4317801Y-12485793D02*
X4308277Y-12523888D01*
X4308277Y-12523888D02*
X4298753Y-12542936D01*
X4298753Y-12542936D02*
X4289229Y-12552460D01*
X4289229Y-12552460D02*
X4270182Y-12561984D01*
X4270182Y-12561984D02*
X4251134Y-12561984D01*
X4251134Y-12561984D02*
X4232087Y-12552460D01*
X4232087Y-12552460D02*
X4222563Y-12542936D01*
X4222563Y-12542936D02*
X4213039Y-12523888D01*
X4213039Y-12523888D02*
X4203515Y-12485793D01*
X4203515Y-12485793D02*
X4203515Y-12438174D01*
X4203515Y-12438174D02*
X4213039Y-12400079D01*
X4213039Y-12400079D02*
X4222563Y-12381031D01*
X4222563Y-12381031D02*
X4232087Y-12371508D01*
X4232087Y-12371508D02*
X4251134Y-12361984D01*
X4403515Y-12542936D02*
X4413039Y-12552460D01*
X4413039Y-12552460D02*
X4403515Y-12561984D01*
X4403515Y-12561984D02*
X4393991Y-12552460D01*
X4393991Y-12552460D02*
X4403515Y-12542936D01*
X4403515Y-12542936D02*
X4403515Y-12561984D01*
X4536848Y-12361984D02*
X4555896Y-12361984D01*
X4555896Y-12361984D02*
X4574944Y-12371508D01*
X4574944Y-12371508D02*
X4584468Y-12381031D01*
X4584468Y-12381031D02*
X4593991Y-12400079D01*
X4593991Y-12400079D02*
X4603515Y-12438174D01*
X4603515Y-12438174D02*
X4603515Y-12485793D01*
X4603515Y-12485793D02*
X4593991Y-12523888D01*
X4593991Y-12523888D02*
X4584468Y-12542936D01*
X4584468Y-12542936D02*
X4574944Y-12552460D01*
X4574944Y-12552460D02*
X4555896Y-12561984D01*
X4555896Y-12561984D02*
X4536848Y-12561984D01*
X4536848Y-12561984D02*
X4517801Y-12552460D01*
X4517801Y-12552460D02*
X4508277Y-12542936D01*
X4508277Y-12542936D02*
X4498753Y-12523888D01*
X4498753Y-12523888D02*
X4489229Y-12485793D01*
X4489229Y-12485793D02*
X4489229Y-12438174D01*
X4489229Y-12438174D02*
X4498753Y-12400079D01*
X4498753Y-12400079D02*
X4508277Y-12381031D01*
X4508277Y-12381031D02*
X4517801Y-12371508D01*
X4517801Y-12371508D02*
X4536848Y-12361984D01*
X4670182Y-12361984D02*
X4793991Y-12361984D01*
X4793991Y-12361984D02*
X4727325Y-12438174D01*
X4727325Y-12438174D02*
X4755896Y-12438174D01*
X4755896Y-12438174D02*
X4774944Y-12447698D01*
X4774944Y-12447698D02*
X4784468Y-12457222D01*
X4784468Y-12457222D02*
X4793991Y-12476269D01*
X4793991Y-12476269D02*
X4793991Y-12523888D01*
X4793991Y-12523888D02*
X4784468Y-12542936D01*
X4784468Y-12542936D02*
X4774944Y-12552460D01*
X4774944Y-12552460D02*
X4755896Y-12561984D01*
X4755896Y-12561984D02*
X4698753Y-12561984D01*
X4698753Y-12561984D02*
X4679706Y-12552460D01*
X4679706Y-12552460D02*
X4670182Y-12542936D01*
X4984468Y-12561984D02*
X4870182Y-12561984D01*
X4927325Y-12561984D02*
X4927325Y-12361984D01*
X4927325Y-12361984D02*
X4908277Y-12390555D01*
X4908277Y-12390555D02*
X4889229Y-12409603D01*
X4889229Y-12409603D02*
X4870182Y-12419127D01*
X5165420Y-12361984D02*
X5070182Y-12361984D01*
X5070182Y-12361984D02*
X5060658Y-12457222D01*
X5060658Y-12457222D02*
X5070182Y-12447698D01*
X5070182Y-12447698D02*
X5089229Y-12438174D01*
X5089229Y-12438174D02*
X5136849Y-12438174D01*
X5136849Y-12438174D02*
X5155896Y-12447698D01*
X5155896Y-12447698D02*
X5165420Y-12457222D01*
X5165420Y-12457222D02*
X5174944Y-12476269D01*
X5174944Y-12476269D02*
X5174944Y-12523888D01*
X5174944Y-12523888D02*
X5165420Y-12542936D01*
X5165420Y-12542936D02*
X5155896Y-12552460D01*
X5155896Y-12552460D02*
X5136849Y-12561984D01*
X5136849Y-12561984D02*
X5089229Y-12561984D01*
X5089229Y-12561984D02*
X5070182Y-12552460D01*
X5070182Y-12552460D02*
X5060658Y-12542936D01*
X5251134Y-12361984D02*
X5251134Y-12400079D01*
X5327325Y-12361984D02*
X5327325Y-12400079D01*
X5622563Y-12638174D02*
X5613039Y-12628650D01*
X5613039Y-12628650D02*
X5593991Y-12600079D01*
X5593991Y-12600079D02*
X5584468Y-12581031D01*
X5584468Y-12581031D02*
X5574944Y-12552460D01*
X5574944Y-12552460D02*
X5565420Y-12504841D01*
X5565420Y-12504841D02*
X5565420Y-12466746D01*
X5565420Y-12466746D02*
X5574944Y-12419127D01*
X5574944Y-12419127D02*
X5584468Y-12390555D01*
X5584468Y-12390555D02*
X5593991Y-12371508D01*
X5593991Y-12371508D02*
X5613039Y-12342936D01*
X5613039Y-12342936D02*
X5622563Y-12333412D01*
X5784468Y-12428650D02*
X5784468Y-12561984D01*
X5736848Y-12352460D02*
X5689229Y-12495317D01*
X5689229Y-12495317D02*
X5813039Y-12495317D01*
X5879706Y-12381031D02*
X5889229Y-12371508D01*
X5889229Y-12371508D02*
X5908277Y-12361984D01*
X5908277Y-12361984D02*
X5955896Y-12361984D01*
X5955896Y-12361984D02*
X5974944Y-12371508D01*
X5974944Y-12371508D02*
X5984468Y-12381031D01*
X5984468Y-12381031D02*
X5993991Y-12400079D01*
X5993991Y-12400079D02*
X5993991Y-12419127D01*
X5993991Y-12419127D02*
X5984468Y-12447698D01*
X5984468Y-12447698D02*
X5870182Y-12561984D01*
X5870182Y-12561984D02*
X5993991Y-12561984D01*
X6232087Y-12561984D02*
X6232087Y-12361984D01*
X6317801Y-12561984D02*
X6317801Y-12457222D01*
X6317801Y-12457222D02*
X6308277Y-12438174D01*
X6308277Y-12438174D02*
X6289230Y-12428650D01*
X6289230Y-12428650D02*
X6260658Y-12428650D01*
X6260658Y-12428650D02*
X6241610Y-12438174D01*
X6241610Y-12438174D02*
X6232087Y-12447698D01*
X6441610Y-12561984D02*
X6422563Y-12552460D01*
X6422563Y-12552460D02*
X6413039Y-12542936D01*
X6413039Y-12542936D02*
X6403515Y-12523888D01*
X6403515Y-12523888D02*
X6403515Y-12466746D01*
X6403515Y-12466746D02*
X6413039Y-12447698D01*
X6413039Y-12447698D02*
X6422563Y-12438174D01*
X6422563Y-12438174D02*
X6441610Y-12428650D01*
X6441610Y-12428650D02*
X6470182Y-12428650D01*
X6470182Y-12428650D02*
X6489230Y-12438174D01*
X6489230Y-12438174D02*
X6498753Y-12447698D01*
X6498753Y-12447698D02*
X6508277Y-12466746D01*
X6508277Y-12466746D02*
X6508277Y-12523888D01*
X6508277Y-12523888D02*
X6498753Y-12542936D01*
X6498753Y-12542936D02*
X6489230Y-12552460D01*
X6489230Y-12552460D02*
X6470182Y-12561984D01*
X6470182Y-12561984D02*
X6441610Y-12561984D01*
X6622563Y-12561984D02*
X6603515Y-12552460D01*
X6603515Y-12552460D02*
X6593991Y-12533412D01*
X6593991Y-12533412D02*
X6593991Y-12361984D01*
X6774944Y-12552460D02*
X6755896Y-12561984D01*
X6755896Y-12561984D02*
X6717801Y-12561984D01*
X6717801Y-12561984D02*
X6698753Y-12552460D01*
X6698753Y-12552460D02*
X6689230Y-12533412D01*
X6689230Y-12533412D02*
X6689230Y-12457222D01*
X6689230Y-12457222D02*
X6698753Y-12438174D01*
X6698753Y-12438174D02*
X6717801Y-12428650D01*
X6717801Y-12428650D02*
X6755896Y-12428650D01*
X6755896Y-12428650D02*
X6774944Y-12438174D01*
X6774944Y-12438174D02*
X6784468Y-12457222D01*
X6784468Y-12457222D02*
X6784468Y-12476269D01*
X6784468Y-12476269D02*
X6689230Y-12495317D01*
X6860658Y-12552460D02*
X6879706Y-12561984D01*
X6879706Y-12561984D02*
X6917801Y-12561984D01*
X6917801Y-12561984D02*
X6936849Y-12552460D01*
X6936849Y-12552460D02*
X6946372Y-12533412D01*
X6946372Y-12533412D02*
X6946372Y-12523888D01*
X6946372Y-12523888D02*
X6936849Y-12504841D01*
X6936849Y-12504841D02*
X6917801Y-12495317D01*
X6917801Y-12495317D02*
X6889230Y-12495317D01*
X6889230Y-12495317D02*
X6870182Y-12485793D01*
X6870182Y-12485793D02*
X6860658Y-12466746D01*
X6860658Y-12466746D02*
X6860658Y-12457222D01*
X6860658Y-12457222D02*
X6870182Y-12438174D01*
X6870182Y-12438174D02*
X6889230Y-12428650D01*
X6889230Y-12428650D02*
X6917801Y-12428650D01*
X6917801Y-12428650D02*
X6936849Y-12438174D01*
X7013039Y-12638174D02*
X7022563Y-12628650D01*
X7022563Y-12628650D02*
X7041611Y-12600079D01*
X7041611Y-12600079D02*
X7051134Y-12581031D01*
X7051134Y-12581031D02*
X7060658Y-12552460D01*
X7060658Y-12552460D02*
X7070182Y-12504841D01*
X7070182Y-12504841D02*
X7070182Y-12466746D01*
X7070182Y-12466746D02*
X7060658Y-12419127D01*
X7060658Y-12419127D02*
X7051134Y-12390555D01*
X7051134Y-12390555D02*
X7041611Y-12371508D01*
X7041611Y-12371508D02*
X7022563Y-12342936D01*
X7022563Y-12342936D02*
X7013039Y-12333412D01*
D12*
X2032856Y-12769856D02*
X2032856Y-12699144D01*
X1962144Y-12699144D01*
X1962144Y-12769856D01*
X2032856Y-12769856D01*
D11*
X2413039Y-12825984D02*
X2298753Y-12825984D01*
X2355896Y-12825984D02*
X2355896Y-12625984D01*
X2355896Y-12625984D02*
X2336848Y-12654555D01*
X2336848Y-12654555D02*
X2317801Y-12673603D01*
X2317801Y-12673603D02*
X2298753Y-12683127D01*
X2498753Y-12806936D02*
X2508277Y-12816460D01*
X2508277Y-12816460D02*
X2498753Y-12825984D01*
X2498753Y-12825984D02*
X2489229Y-12816460D01*
X2489229Y-12816460D02*
X2498753Y-12806936D01*
X2498753Y-12806936D02*
X2498753Y-12825984D01*
X2632086Y-12625984D02*
X2651134Y-12625984D01*
X2651134Y-12625984D02*
X2670182Y-12635508D01*
X2670182Y-12635508D02*
X2679705Y-12645031D01*
X2679705Y-12645031D02*
X2689229Y-12664079D01*
X2689229Y-12664079D02*
X2698753Y-12702174D01*
X2698753Y-12702174D02*
X2698753Y-12749793D01*
X2698753Y-12749793D02*
X2689229Y-12787888D01*
X2689229Y-12787888D02*
X2679705Y-12806936D01*
X2679705Y-12806936D02*
X2670182Y-12816460D01*
X2670182Y-12816460D02*
X2651134Y-12825984D01*
X2651134Y-12825984D02*
X2632086Y-12825984D01*
X2632086Y-12825984D02*
X2613039Y-12816460D01*
X2613039Y-12816460D02*
X2603515Y-12806936D01*
X2603515Y-12806936D02*
X2593991Y-12787888D01*
X2593991Y-12787888D02*
X2584467Y-12749793D01*
X2584467Y-12749793D02*
X2584467Y-12702174D01*
X2584467Y-12702174D02*
X2593991Y-12664079D01*
X2593991Y-12664079D02*
X2603515Y-12645031D01*
X2603515Y-12645031D02*
X2613039Y-12635508D01*
X2613039Y-12635508D02*
X2632086Y-12625984D01*
X2822562Y-12625984D02*
X2841610Y-12625984D01*
X2841610Y-12625984D02*
X2860658Y-12635508D01*
X2860658Y-12635508D02*
X2870182Y-12645031D01*
X2870182Y-12645031D02*
X2879705Y-12664079D01*
X2879705Y-12664079D02*
X2889229Y-12702174D01*
X2889229Y-12702174D02*
X2889229Y-12749793D01*
X2889229Y-12749793D02*
X2879705Y-12787888D01*
X2879705Y-12787888D02*
X2870182Y-12806936D01*
X2870182Y-12806936D02*
X2860658Y-12816460D01*
X2860658Y-12816460D02*
X2841610Y-12825984D01*
X2841610Y-12825984D02*
X2822562Y-12825984D01*
X2822562Y-12825984D02*
X2803515Y-12816460D01*
X2803515Y-12816460D02*
X2793991Y-12806936D01*
X2793991Y-12806936D02*
X2784467Y-12787888D01*
X2784467Y-12787888D02*
X2774944Y-12749793D01*
X2774944Y-12749793D02*
X2774944Y-12702174D01*
X2774944Y-12702174D02*
X2784467Y-12664079D01*
X2784467Y-12664079D02*
X2793991Y-12645031D01*
X2793991Y-12645031D02*
X2803515Y-12635508D01*
X2803515Y-12635508D02*
X2822562Y-12625984D01*
X3013039Y-12625984D02*
X3032086Y-12625984D01*
X3032086Y-12625984D02*
X3051134Y-12635508D01*
X3051134Y-12635508D02*
X3060658Y-12645031D01*
X3060658Y-12645031D02*
X3070182Y-12664079D01*
X3070182Y-12664079D02*
X3079705Y-12702174D01*
X3079705Y-12702174D02*
X3079705Y-12749793D01*
X3079705Y-12749793D02*
X3070182Y-12787888D01*
X3070182Y-12787888D02*
X3060658Y-12806936D01*
X3060658Y-12806936D02*
X3051134Y-12816460D01*
X3051134Y-12816460D02*
X3032086Y-12825984D01*
X3032086Y-12825984D02*
X3013039Y-12825984D01*
X3013039Y-12825984D02*
X2993991Y-12816460D01*
X2993991Y-12816460D02*
X2984467Y-12806936D01*
X2984467Y-12806936D02*
X2974943Y-12787888D01*
X2974943Y-12787888D02*
X2965420Y-12749793D01*
X2965420Y-12749793D02*
X2965420Y-12702174D01*
X2965420Y-12702174D02*
X2974943Y-12664079D01*
X2974943Y-12664079D02*
X2984467Y-12645031D01*
X2984467Y-12645031D02*
X2993991Y-12635508D01*
X2993991Y-12635508D02*
X3013039Y-12625984D01*
X3165420Y-12825984D02*
X3165420Y-12692650D01*
X3165420Y-12711698D02*
X3174943Y-12702174D01*
X3174943Y-12702174D02*
X3193991Y-12692650D01*
X3193991Y-12692650D02*
X3222563Y-12692650D01*
X3222563Y-12692650D02*
X3241610Y-12702174D01*
X3241610Y-12702174D02*
X3251134Y-12721222D01*
X3251134Y-12721222D02*
X3251134Y-12825984D01*
X3251134Y-12721222D02*
X3260658Y-12702174D01*
X3260658Y-12702174D02*
X3279705Y-12692650D01*
X3279705Y-12692650D02*
X3308277Y-12692650D01*
X3308277Y-12692650D02*
X3327324Y-12702174D01*
X3327324Y-12702174D02*
X3336848Y-12721222D01*
X3336848Y-12721222D02*
X3336848Y-12825984D01*
X3432086Y-12825984D02*
X3432086Y-12692650D01*
X3432086Y-12711698D02*
X3441610Y-12702174D01*
X3441610Y-12702174D02*
X3460658Y-12692650D01*
X3460658Y-12692650D02*
X3489229Y-12692650D01*
X3489229Y-12692650D02*
X3508277Y-12702174D01*
X3508277Y-12702174D02*
X3517801Y-12721222D01*
X3517801Y-12721222D02*
X3517801Y-12825984D01*
X3517801Y-12721222D02*
X3527324Y-12702174D01*
X3527324Y-12702174D02*
X3546372Y-12692650D01*
X3546372Y-12692650D02*
X3574943Y-12692650D01*
X3574943Y-12692650D02*
X3593991Y-12702174D01*
X3593991Y-12702174D02*
X3603515Y-12721222D01*
X3603515Y-12721222D02*
X3603515Y-12825984D01*
X3993991Y-12616460D02*
X3822563Y-12873603D01*
X4251134Y-12625984D02*
X4270182Y-12625984D01*
X4270182Y-12625984D02*
X4289229Y-12635508D01*
X4289229Y-12635508D02*
X4298753Y-12645031D01*
X4298753Y-12645031D02*
X4308277Y-12664079D01*
X4308277Y-12664079D02*
X4317801Y-12702174D01*
X4317801Y-12702174D02*
X4317801Y-12749793D01*
X4317801Y-12749793D02*
X4308277Y-12787888D01*
X4308277Y-12787888D02*
X4298753Y-12806936D01*
X4298753Y-12806936D02*
X4289229Y-12816460D01*
X4289229Y-12816460D02*
X4270182Y-12825984D01*
X4270182Y-12825984D02*
X4251134Y-12825984D01*
X4251134Y-12825984D02*
X4232087Y-12816460D01*
X4232087Y-12816460D02*
X4222563Y-12806936D01*
X4222563Y-12806936D02*
X4213039Y-12787888D01*
X4213039Y-12787888D02*
X4203515Y-12749793D01*
X4203515Y-12749793D02*
X4203515Y-12702174D01*
X4203515Y-12702174D02*
X4213039Y-12664079D01*
X4213039Y-12664079D02*
X4222563Y-12645031D01*
X4222563Y-12645031D02*
X4232087Y-12635508D01*
X4232087Y-12635508D02*
X4251134Y-12625984D01*
X4403515Y-12806936D02*
X4413039Y-12816460D01*
X4413039Y-12816460D02*
X4403515Y-12825984D01*
X4403515Y-12825984D02*
X4393991Y-12816460D01*
X4393991Y-12816460D02*
X4403515Y-12806936D01*
X4403515Y-12806936D02*
X4403515Y-12825984D01*
X4536848Y-12625984D02*
X4555896Y-12625984D01*
X4555896Y-12625984D02*
X4574944Y-12635508D01*
X4574944Y-12635508D02*
X4584468Y-12645031D01*
X4584468Y-12645031D02*
X4593991Y-12664079D01*
X4593991Y-12664079D02*
X4603515Y-12702174D01*
X4603515Y-12702174D02*
X4603515Y-12749793D01*
X4603515Y-12749793D02*
X4593991Y-12787888D01*
X4593991Y-12787888D02*
X4584468Y-12806936D01*
X4584468Y-12806936D02*
X4574944Y-12816460D01*
X4574944Y-12816460D02*
X4555896Y-12825984D01*
X4555896Y-12825984D02*
X4536848Y-12825984D01*
X4536848Y-12825984D02*
X4517801Y-12816460D01*
X4517801Y-12816460D02*
X4508277Y-12806936D01*
X4508277Y-12806936D02*
X4498753Y-12787888D01*
X4498753Y-12787888D02*
X4489229Y-12749793D01*
X4489229Y-12749793D02*
X4489229Y-12702174D01*
X4489229Y-12702174D02*
X4498753Y-12664079D01*
X4498753Y-12664079D02*
X4508277Y-12645031D01*
X4508277Y-12645031D02*
X4517801Y-12635508D01*
X4517801Y-12635508D02*
X4536848Y-12625984D01*
X4670182Y-12625984D02*
X4793991Y-12625984D01*
X4793991Y-12625984D02*
X4727325Y-12702174D01*
X4727325Y-12702174D02*
X4755896Y-12702174D01*
X4755896Y-12702174D02*
X4774944Y-12711698D01*
X4774944Y-12711698D02*
X4784468Y-12721222D01*
X4784468Y-12721222D02*
X4793991Y-12740269D01*
X4793991Y-12740269D02*
X4793991Y-12787888D01*
X4793991Y-12787888D02*
X4784468Y-12806936D01*
X4784468Y-12806936D02*
X4774944Y-12816460D01*
X4774944Y-12816460D02*
X4755896Y-12825984D01*
X4755896Y-12825984D02*
X4698753Y-12825984D01*
X4698753Y-12825984D02*
X4679706Y-12816460D01*
X4679706Y-12816460D02*
X4670182Y-12806936D01*
X4889229Y-12825984D02*
X4927325Y-12825984D01*
X4927325Y-12825984D02*
X4946372Y-12816460D01*
X4946372Y-12816460D02*
X4955896Y-12806936D01*
X4955896Y-12806936D02*
X4974944Y-12778365D01*
X4974944Y-12778365D02*
X4984468Y-12740269D01*
X4984468Y-12740269D02*
X4984468Y-12664079D01*
X4984468Y-12664079D02*
X4974944Y-12645031D01*
X4974944Y-12645031D02*
X4965420Y-12635508D01*
X4965420Y-12635508D02*
X4946372Y-12625984D01*
X4946372Y-12625984D02*
X4908277Y-12625984D01*
X4908277Y-12625984D02*
X4889229Y-12635508D01*
X4889229Y-12635508D02*
X4879706Y-12645031D01*
X4879706Y-12645031D02*
X4870182Y-12664079D01*
X4870182Y-12664079D02*
X4870182Y-12711698D01*
X4870182Y-12711698D02*
X4879706Y-12730746D01*
X4879706Y-12730746D02*
X4889229Y-12740269D01*
X4889229Y-12740269D02*
X4908277Y-12749793D01*
X4908277Y-12749793D02*
X4946372Y-12749793D01*
X4946372Y-12749793D02*
X4965420Y-12740269D01*
X4965420Y-12740269D02*
X4974944Y-12730746D01*
X4974944Y-12730746D02*
X4984468Y-12711698D01*
X5155896Y-12692650D02*
X5155896Y-12825984D01*
X5108277Y-12616460D02*
X5060658Y-12759317D01*
X5060658Y-12759317D02*
X5184468Y-12759317D01*
X5251134Y-12625984D02*
X5251134Y-12664079D01*
X5327325Y-12625984D02*
X5327325Y-12664079D01*
X5622563Y-12902174D02*
X5613039Y-12892650D01*
X5613039Y-12892650D02*
X5593991Y-12864079D01*
X5593991Y-12864079D02*
X5584468Y-12845031D01*
X5584468Y-12845031D02*
X5574944Y-12816460D01*
X5574944Y-12816460D02*
X5565420Y-12768841D01*
X5565420Y-12768841D02*
X5565420Y-12730746D01*
X5565420Y-12730746D02*
X5574944Y-12683127D01*
X5574944Y-12683127D02*
X5584468Y-12654555D01*
X5584468Y-12654555D02*
X5593991Y-12635508D01*
X5593991Y-12635508D02*
X5613039Y-12606936D01*
X5613039Y-12606936D02*
X5622563Y-12597412D01*
X5727325Y-12711698D02*
X5708277Y-12702174D01*
X5708277Y-12702174D02*
X5698753Y-12692650D01*
X5698753Y-12692650D02*
X5689229Y-12673603D01*
X5689229Y-12673603D02*
X5689229Y-12664079D01*
X5689229Y-12664079D02*
X5698753Y-12645031D01*
X5698753Y-12645031D02*
X5708277Y-12635508D01*
X5708277Y-12635508D02*
X5727325Y-12625984D01*
X5727325Y-12625984D02*
X5765420Y-12625984D01*
X5765420Y-12625984D02*
X5784468Y-12635508D01*
X5784468Y-12635508D02*
X5793991Y-12645031D01*
X5793991Y-12645031D02*
X5803515Y-12664079D01*
X5803515Y-12664079D02*
X5803515Y-12673603D01*
X5803515Y-12673603D02*
X5793991Y-12692650D01*
X5793991Y-12692650D02*
X5784468Y-12702174D01*
X5784468Y-12702174D02*
X5765420Y-12711698D01*
X5765420Y-12711698D02*
X5727325Y-12711698D01*
X5727325Y-12711698D02*
X5708277Y-12721222D01*
X5708277Y-12721222D02*
X5698753Y-12730746D01*
X5698753Y-12730746D02*
X5689229Y-12749793D01*
X5689229Y-12749793D02*
X5689229Y-12787888D01*
X5689229Y-12787888D02*
X5698753Y-12806936D01*
X5698753Y-12806936D02*
X5708277Y-12816460D01*
X5708277Y-12816460D02*
X5727325Y-12825984D01*
X5727325Y-12825984D02*
X5765420Y-12825984D01*
X5765420Y-12825984D02*
X5784468Y-12816460D01*
X5784468Y-12816460D02*
X5793991Y-12806936D01*
X5793991Y-12806936D02*
X5803515Y-12787888D01*
X5803515Y-12787888D02*
X5803515Y-12749793D01*
X5803515Y-12749793D02*
X5793991Y-12730746D01*
X5793991Y-12730746D02*
X5784468Y-12721222D01*
X5784468Y-12721222D02*
X5765420Y-12711698D01*
X5984468Y-12625984D02*
X5889229Y-12625984D01*
X5889229Y-12625984D02*
X5879706Y-12721222D01*
X5879706Y-12721222D02*
X5889229Y-12711698D01*
X5889229Y-12711698D02*
X5908277Y-12702174D01*
X5908277Y-12702174D02*
X5955896Y-12702174D01*
X5955896Y-12702174D02*
X5974944Y-12711698D01*
X5974944Y-12711698D02*
X5984468Y-12721222D01*
X5984468Y-12721222D02*
X5993991Y-12740269D01*
X5993991Y-12740269D02*
X5993991Y-12787888D01*
X5993991Y-12787888D02*
X5984468Y-12806936D01*
X5984468Y-12806936D02*
X5974944Y-12816460D01*
X5974944Y-12816460D02*
X5955896Y-12825984D01*
X5955896Y-12825984D02*
X5908277Y-12825984D01*
X5908277Y-12825984D02*
X5889229Y-12816460D01*
X5889229Y-12816460D02*
X5879706Y-12806936D01*
X6232087Y-12825984D02*
X6232087Y-12625984D01*
X6317801Y-12825984D02*
X6317801Y-12721222D01*
X6317801Y-12721222D02*
X6308277Y-12702174D01*
X6308277Y-12702174D02*
X6289230Y-12692650D01*
X6289230Y-12692650D02*
X6260658Y-12692650D01*
X6260658Y-12692650D02*
X6241610Y-12702174D01*
X6241610Y-12702174D02*
X6232087Y-12711698D01*
X6441610Y-12825984D02*
X6422563Y-12816460D01*
X6422563Y-12816460D02*
X6413039Y-12806936D01*
X6413039Y-12806936D02*
X6403515Y-12787888D01*
X6403515Y-12787888D02*
X6403515Y-12730746D01*
X6403515Y-12730746D02*
X6413039Y-12711698D01*
X6413039Y-12711698D02*
X6422563Y-12702174D01*
X6422563Y-12702174D02*
X6441610Y-12692650D01*
X6441610Y-12692650D02*
X6470182Y-12692650D01*
X6470182Y-12692650D02*
X6489230Y-12702174D01*
X6489230Y-12702174D02*
X6498753Y-12711698D01*
X6498753Y-12711698D02*
X6508277Y-12730746D01*
X6508277Y-12730746D02*
X6508277Y-12787888D01*
X6508277Y-12787888D02*
X6498753Y-12806936D01*
X6498753Y-12806936D02*
X6489230Y-12816460D01*
X6489230Y-12816460D02*
X6470182Y-12825984D01*
X6470182Y-12825984D02*
X6441610Y-12825984D01*
X6622563Y-12825984D02*
X6603515Y-12816460D01*
X6603515Y-12816460D02*
X6593991Y-12797412D01*
X6593991Y-12797412D02*
X6593991Y-12625984D01*
X6774944Y-12816460D02*
X6755896Y-12825984D01*
X6755896Y-12825984D02*
X6717801Y-12825984D01*
X6717801Y-12825984D02*
X6698753Y-12816460D01*
X6698753Y-12816460D02*
X6689230Y-12797412D01*
X6689230Y-12797412D02*
X6689230Y-12721222D01*
X6689230Y-12721222D02*
X6698753Y-12702174D01*
X6698753Y-12702174D02*
X6717801Y-12692650D01*
X6717801Y-12692650D02*
X6755896Y-12692650D01*
X6755896Y-12692650D02*
X6774944Y-12702174D01*
X6774944Y-12702174D02*
X6784468Y-12721222D01*
X6784468Y-12721222D02*
X6784468Y-12740269D01*
X6784468Y-12740269D02*
X6689230Y-12759317D01*
X6860658Y-12816460D02*
X6879706Y-12825984D01*
X6879706Y-12825984D02*
X6917801Y-12825984D01*
X6917801Y-12825984D02*
X6936849Y-12816460D01*
X6936849Y-12816460D02*
X6946372Y-12797412D01*
X6946372Y-12797412D02*
X6946372Y-12787888D01*
X6946372Y-12787888D02*
X6936849Y-12768841D01*
X6936849Y-12768841D02*
X6917801Y-12759317D01*
X6917801Y-12759317D02*
X6889230Y-12759317D01*
X6889230Y-12759317D02*
X6870182Y-12749793D01*
X6870182Y-12749793D02*
X6860658Y-12730746D01*
X6860658Y-12730746D02*
X6860658Y-12721222D01*
X6860658Y-12721222D02*
X6870182Y-12702174D01*
X6870182Y-12702174D02*
X6889230Y-12692650D01*
X6889230Y-12692650D02*
X6917801Y-12692650D01*
X6917801Y-12692650D02*
X6936849Y-12702174D01*
X7013039Y-12902174D02*
X7022563Y-12892650D01*
X7022563Y-12892650D02*
X7041611Y-12864079D01*
X7041611Y-12864079D02*
X7051134Y-12845031D01*
X7051134Y-12845031D02*
X7060658Y-12816460D01*
X7060658Y-12816460D02*
X7070182Y-12768841D01*
X7070182Y-12768841D02*
X7070182Y-12730746D01*
X7070182Y-12730746D02*
X7060658Y-12683127D01*
X7060658Y-12683127D02*
X7051134Y-12654555D01*
X7051134Y-12654555D02*
X7041611Y-12635508D01*
X7041611Y-12635508D02*
X7022563Y-12606936D01*
X7022563Y-12606936D02*
X7013039Y-12597412D01*
M02*
