%TF.GenerationSoftware,KiCad,Pcbnew,8.0.6*%
%TF.CreationDate,2024-11-23T21:17:37+01:00*%
%TF.ProjectId,smart home,736d6172-7420-4686-9f6d-652e6b696361,rev?*%
%TF.SameCoordinates,Original*%
%TF.FileFunction,Copper,L1,Top*%
%TF.FilePolarity,Positive*%
%FSLAX46Y46*%
G04 Gerber Fmt 4.6, Leading zero omitted, Abs format (unit mm)*
G04 Created by KiCad (PCBNEW 8.0.6) date 2024-11-23 21:17:37*
%MOMM*%
%LPD*%
G01*
G04 APERTURE LIST*
G04 Aperture macros list*
%AMRoundRect*
0 Rectangle with rounded corners*
0 $1 Rounding radius*
0 $2 $3 $4 $5 $6 $7 $8 $9 X,Y pos of 4 corners*
0 Add a 4 corners polygon primitive as box body*
4,1,4,$2,$3,$4,$5,$6,$7,$8,$9,$2,$3,0*
0 Add four circle primitives for the rounded corners*
1,1,$1+$1,$2,$3*
1,1,$1+$1,$4,$5*
1,1,$1+$1,$6,$7*
1,1,$1+$1,$8,$9*
0 Add four rect primitives between the rounded corners*
20,1,$1+$1,$2,$3,$4,$5,0*
20,1,$1+$1,$4,$5,$6,$7,0*
20,1,$1+$1,$6,$7,$8,$9,0*
20,1,$1+$1,$8,$9,$2,$3,0*%
G04 Aperture macros list end*
%TA.AperFunction,ComponentPad*%
%ADD10C,1.600000*%
%TD*%
%TA.AperFunction,ComponentPad*%
%ADD11O,1.600000X1.600000*%
%TD*%
%TA.AperFunction,ComponentPad*%
%ADD12R,1.700000X1.700000*%
%TD*%
%TA.AperFunction,ComponentPad*%
%ADD13O,1.700000X1.700000*%
%TD*%
%TA.AperFunction,ComponentPad*%
%ADD14R,1.800000X1.100000*%
%TD*%
%TA.AperFunction,ComponentPad*%
%ADD15RoundRect,0.275000X0.625000X-0.275000X0.625000X0.275000X-0.625000X0.275000X-0.625000X-0.275000X0*%
%TD*%
%TA.AperFunction,ComponentPad*%
%ADD16R,1.100000X1.800000*%
%TD*%
%TA.AperFunction,ComponentPad*%
%ADD17RoundRect,0.275000X-0.275000X-0.625000X0.275000X-0.625000X0.275000X0.625000X-0.275000X0.625000X0*%
%TD*%
%TA.AperFunction,ComponentPad*%
%ADD18RoundRect,0.275000X-0.625000X0.275000X-0.625000X-0.275000X0.625000X-0.275000X0.625000X0.275000X0*%
%TD*%
%TA.AperFunction,ComponentPad*%
%ADD19R,1.600000X1.600000*%
%TD*%
%TA.AperFunction,ComponentPad*%
%ADD20C,1.050000*%
%TD*%
%TA.AperFunction,ComponentPad*%
%ADD21R,1.050000X1.050000*%
%TD*%
%TA.AperFunction,Conductor*%
%ADD22C,0.300000*%
%TD*%
%TA.AperFunction,Conductor*%
%ADD23C,0.500000*%
%TD*%
%TA.AperFunction,Conductor*%
%ADD24C,1.000000*%
%TD*%
G04 APERTURE END LIST*
D10*
%TO.P,R9,1*%
%TO.N,Net-(RGB2-B)*%
X38280000Y-46230000D03*
D11*
%TO.P,R9,2*%
%TO.N,Net-(Q2-C)*%
X48440000Y-46230000D03*
%TD*%
D12*
%TO.P,RGB1,1*%
%TO.N,VCC*%
X29250000Y-35210000D03*
D13*
%TO.P,RGB1,2*%
%TO.N,Net-(RGB1-B)*%
X29250000Y-37750000D03*
%TO.P,RGB1,3*%
%TO.N,Net-(RGB1-R)*%
X31790000Y-35210000D03*
%TO.P,RGB1,4*%
%TO.N,Net-(RGB1-G)*%
X31790000Y-37750000D03*
%TD*%
D10*
%TO.P,R7,1*%
%TO.N,Net-(RGB2-R)*%
X38280000Y-57230000D03*
D11*
%TO.P,R7,2*%
%TO.N,Net-(Q2-C)*%
X48440000Y-57230000D03*
%TD*%
D12*
%TO.P,RGB4,1*%
%TO.N,VCC*%
X29460000Y-92460000D03*
D13*
%TO.P,RGB4,2*%
%TO.N,Net-(RGB4-B)*%
X29460000Y-95000000D03*
%TO.P,RGB4,3*%
%TO.N,Net-(RGB4-R)*%
X32000000Y-92460000D03*
%TO.P,RGB4,4*%
%TO.N,Net-(RGB4-G)*%
X32000000Y-95000000D03*
%TD*%
D14*
%TO.P,Q3,1,C*%
%TO.N,Net-(M1--)*%
X78900000Y-106040000D03*
D15*
%TO.P,Q3,2,B*%
%TO.N,Net-(Q3-B)*%
X76830000Y-104770000D03*
%TO.P,Q3,3,E*%
%TO.N,GND*%
X78900000Y-103500000D03*
%TD*%
D12*
%TO.P,SW6,1,A*%
%TO.N,GND*%
X107775000Y-91500000D03*
D13*
%TO.P,SW6,2,B*%
%TO.N,fan switch*%
X105235000Y-91500000D03*
%TD*%
D12*
%TO.P,M1,1,+*%
%TO.N,Net-(M1-+)*%
X86500000Y-103725000D03*
D13*
%TO.P,M1,2,-*%
%TO.N,Net-(M1--)*%
X86500000Y-106265000D03*
%TD*%
D10*
%TO.P,R20,1*%
%TO.N,LDR*%
X112500000Y-59580000D03*
D11*
%TO.P,R20,2*%
%TO.N,GND*%
X112500000Y-49420000D03*
%TD*%
D12*
%TO.P,BT1,1,+*%
%TO.N,VCC*%
X84225000Y-29500000D03*
D13*
%TO.P,BT1,2,-*%
%TO.N,GND*%
X86765000Y-29500000D03*
%TD*%
D10*
%TO.P,R6,1*%
%TO.N,Net-(RGB1-B)*%
X38280000Y-40730000D03*
D11*
%TO.P,R6,2*%
%TO.N,Net-(Q1-C)*%
X48440000Y-40730000D03*
%TD*%
D10*
%TO.P,R24,1*%
%TO.N,Net-(RGB2-G)*%
X38280000Y-51730000D03*
D11*
%TO.P,R24,2*%
%TO.N,Net-(Q2-C)*%
X48440000Y-51730000D03*
%TD*%
D12*
%TO.P,RV3B1,1,1*%
%TO.N,GND*%
X110080000Y-73500000D03*
D13*
%TO.P,RV3B1,2,3*%
%TO.N,R3-B*%
X105000000Y-73500000D03*
%TO.P,RV3B1,3,2*%
%TO.N,+5V*%
X107540000Y-73500000D03*
%TD*%
D16*
%TO.P,Q9,1,C*%
%TO.N,Net-(Q9-C)*%
X56730000Y-103760000D03*
D17*
%TO.P,Q9,2,B*%
%TO.N,Net-(Q9-B)*%
X58000000Y-101690000D03*
%TO.P,Q9,3,E*%
%TO.N,GND*%
X59270000Y-103760000D03*
%TD*%
D12*
%TO.P,LCD_20x1,1,SDA*%
%TO.N,SDA*%
X105380000Y-69500000D03*
D13*
%TO.P,LCD_20x1,2,SCL*%
%TO.N,SCL*%
X107920000Y-69500000D03*
%TO.P,LCD_20x1,3,Vcc*%
%TO.N,+5V*%
X110460000Y-69500000D03*
%TO.P,LCD_20x1,4,GND*%
%TO.N,GND*%
X113000000Y-69500000D03*
%TD*%
D12*
%TO.P,SW4,1,1*%
%TO.N,GND*%
X67225000Y-83000000D03*
D13*
%TO.P,SW4,2,2*%
%TO.N,C_button_2*%
X69765000Y-83000000D03*
%TD*%
D12*
%TO.P,SW1,1,A*%
%TO.N,GND*%
X67460000Y-78000000D03*
D13*
%TO.P,SW1,2,B*%
%TO.N,R2_S1*%
X70000000Y-78000000D03*
%TD*%
D14*
%TO.P,Q6,1,C*%
%TO.N,GND*%
X54100000Y-60000000D03*
D18*
%TO.P,Q6,2,B*%
%TO.N,Net-(Q6-B)*%
X56170000Y-61270000D03*
%TO.P,Q6,3,E*%
%TO.N,Net-(Q6-C)*%
X54100000Y-62540000D03*
%TD*%
D10*
%TO.P,R2,1*%
%TO.N,R1-enable*%
X62500000Y-57080000D03*
D11*
%TO.P,R2,2*%
%TO.N,Net-(Q2-B)*%
X62500000Y-46920000D03*
%TD*%
D12*
%TO.P,RGB3,1*%
%TO.N,VCC*%
X29500000Y-73000000D03*
D13*
%TO.P,RGB3,2*%
%TO.N,Net-(RGB3-B)*%
X29500000Y-75540000D03*
%TO.P,RGB3,3*%
%TO.N,Net-(RGB3-R)*%
X32040000Y-73000000D03*
%TO.P,RGB3,4*%
%TO.N,Net-(RGB3-G)*%
X32040000Y-75540000D03*
%TD*%
D10*
%TO.P,R1,1*%
%TO.N,R2-enable*%
X67000000Y-54580000D03*
D11*
%TO.P,R1,2*%
%TO.N,Net-(Q1-B)*%
X67000000Y-44420000D03*
%TD*%
D12*
%TO.P,R23,1*%
%TO.N,+5V*%
X107775000Y-64000000D03*
D13*
%TO.P,R23,2*%
%TO.N,LDR*%
X105235000Y-64000000D03*
%TD*%
D12*
%TO.P,RV3R1,1,1*%
%TO.N,GND*%
X110040000Y-82500000D03*
D13*
%TO.P,RV3R1,2,3*%
%TO.N,R3-R*%
X104960000Y-82500000D03*
%TO.P,RV3R1,3,2*%
%TO.N,+5V*%
X107500000Y-82500000D03*
%TD*%
D14*
%TO.P,Q7,1,C*%
%TO.N,Net-(Q7-C)*%
X54100000Y-68000000D03*
D18*
%TO.P,Q7,2,B*%
%TO.N,Net-(Q7-B)*%
X56170000Y-69270000D03*
%TO.P,Q7,3,E*%
%TO.N,GND*%
X54100000Y-70540000D03*
%TD*%
D14*
%TO.P,Q1,1,C*%
%TO.N,Net-(Q1-C)*%
X54740000Y-36230000D03*
D18*
%TO.P,Q1,2,B*%
%TO.N,Net-(Q1-B)*%
X56810000Y-37500000D03*
%TO.P,Q1,3,E*%
%TO.N,GND*%
X54740000Y-38770000D03*
%TD*%
D12*
%TO.P,RGB2,1*%
%TO.N,VCC*%
X29460000Y-50210000D03*
D13*
%TO.P,RGB2,2*%
%TO.N,Net-(RGB2-R)*%
X29460000Y-52750000D03*
%TO.P,RGB2,3*%
%TO.N,Net-(RGB2-B)*%
X32000000Y-50210000D03*
%TO.P,RGB2,4*%
%TO.N,Net-(RGB2-G)*%
X32000000Y-52750000D03*
%TD*%
D10*
%TO.P,R11,1*%
%TO.N,Net-(Q7-B)*%
X61000000Y-65420000D03*
D11*
%TO.P,R11,2*%
%TO.N,R3G enable*%
X61000000Y-75580000D03*
%TD*%
D12*
%TO.P,RV3G1,1,1*%
%TO.N,GND*%
X110025000Y-78000000D03*
D13*
%TO.P,RV3G1,2,3*%
%TO.N,R3-G*%
X104945000Y-78000000D03*
%TO.P,RV3G1,3,2*%
%TO.N,+5V*%
X107485000Y-78000000D03*
%TD*%
D10*
%TO.P,R13,1*%
%TO.N,Net-(RGB3-G)*%
X38280000Y-71730000D03*
D11*
%TO.P,R13,2*%
%TO.N,Net-(Q7-C)*%
X48440000Y-71730000D03*
%TD*%
D10*
%TO.P,R17,1*%
%TO.N,VCC*%
X102580000Y-103500000D03*
D11*
%TO.P,R17,2*%
%TO.N,Net-(M1-+)*%
X92420000Y-103500000D03*
%TD*%
D12*
%TO.P,SW2,1,A*%
%TO.N,GND*%
X79000000Y-98775000D03*
D13*
%TO.P,SW2,2,B*%
%TO.N,R2_S2*%
X79000000Y-96235000D03*
%TD*%
D10*
%TO.P,R15,1*%
%TO.N,Net-(Q8-C)*%
X49080000Y-82000000D03*
D11*
%TO.P,R15,2*%
%TO.N,Net-(RGB3-B)*%
X38920000Y-82000000D03*
%TD*%
D10*
%TO.P,R10,1*%
%TO.N,Net-(Q6-B)*%
X65500000Y-62420000D03*
D11*
%TO.P,R10,2*%
%TO.N,R3R enable*%
X65500000Y-72580000D03*
%TD*%
D10*
%TO.P,R19,1*%
%TO.N,Net-(RGB4-B)*%
X39420000Y-99500000D03*
D11*
%TO.P,R19,2*%
%TO.N,Net-(Q9-C)*%
X49580000Y-99500000D03*
%TD*%
D12*
%TO.P,HC\u2013SR505PIR1,1,GND(-)*%
%TO.N,GND*%
X72500000Y-52025000D03*
D13*
%TO.P,HC\u2013SR505PIR1,2,Signal_O/P(S)*%
%TO.N,MC_signal*%
X72500000Y-49485000D03*
%TO.P,HC\u2013SR505PIR1,3,Possitive_ps*%
%TO.N,VCC*%
X72500000Y-46945000D03*
%TD*%
D12*
%TO.P,SW5,1,1*%
%TO.N,GND*%
X75500000Y-37225000D03*
D13*
%TO.P,SW5,2,2*%
%TO.N,C_button_1*%
X75500000Y-39765000D03*
%TD*%
D10*
%TO.P,R16,1*%
%TO.N,Net-(Q9-B)*%
X57920000Y-95500000D03*
D11*
%TO.P,R16,2*%
%TO.N,MD_light_enable*%
X68080000Y-95500000D03*
%TD*%
D14*
%TO.P,Q8,1,C*%
%TO.N,GND*%
X54830000Y-79730000D03*
D18*
%TO.P,Q8,2,B*%
%TO.N,Net-(Q8-B)*%
X56900000Y-81000000D03*
%TO.P,Q8,3,E*%
%TO.N,Net-(Q8-C)*%
X54830000Y-82270000D03*
%TD*%
D10*
%TO.P,R8,1*%
%TO.N,Net-(RGB4-G)*%
X39420000Y-94500000D03*
D11*
%TO.P,R8,2*%
%TO.N,Net-(Q9-C)*%
X49580000Y-94500000D03*
%TD*%
D12*
%TO.P,SW7,1,1*%
%TO.N,GND*%
X69960000Y-64000000D03*
D13*
%TO.P,SW7,2,2*%
%TO.N,C_button_3*%
X72500000Y-64000000D03*
%TD*%
D10*
%TO.P,R12,1*%
%TO.N,Net-(RGB3-R)*%
X38280000Y-63730000D03*
D11*
%TO.P,R12,2*%
%TO.N,Net-(Q6-C)*%
X48440000Y-63730000D03*
%TD*%
D19*
%TO.P,A1,1,D1/TX*%
%TO.N,C_button_1*%
X81390000Y-48950000D03*
D11*
%TO.P,A1,2,D0/RX*%
%TO.N,MC_signal*%
X81390000Y-51490000D03*
%TO.P,A1,3,~{RESET}*%
%TO.N,unconnected-(A1-~{RESET}-Pad3)*%
X81390000Y-54030000D03*
%TO.P,A1,4,GND*%
%TO.N,GND*%
X81390000Y-56570000D03*
%TO.P,A1,5,D2*%
%TO.N,R2-enable*%
X81390000Y-59110000D03*
%TO.P,A1,6,D3*%
%TO.N,R1-enable*%
X81390000Y-61650000D03*
%TO.P,A1,7,D4*%
%TO.N,C_button_3*%
X81390000Y-64190000D03*
%TO.P,A1,8,D5*%
%TO.N,R3R enable*%
X81390000Y-66730000D03*
%TO.P,A1,9,D6*%
%TO.N,R3G enable*%
X81390000Y-69270000D03*
%TO.P,A1,10,D7*%
%TO.N,R2_S1*%
X81390000Y-71810000D03*
%TO.P,A1,11,D8*%
%TO.N,C_button_2*%
X81390000Y-74350000D03*
%TO.P,A1,12,D9*%
%TO.N,R3B enable*%
X81390000Y-76890000D03*
%TO.P,A1,13,D10*%
%TO.N,MD_light_enable*%
X81390000Y-79430000D03*
%TO.P,A1,14,D11*%
%TO.N,fan enable*%
X81390000Y-81970000D03*
%TO.P,A1,15,D12*%
%TO.N,R2_S2*%
X81390000Y-84510000D03*
%TO.P,A1,16,D13*%
%TO.N,fan switch*%
X96630000Y-84510000D03*
%TO.P,A1,17,3V3*%
%TO.N,unconnected-(A1-3V3-Pad17)*%
X96630000Y-81970000D03*
%TO.P,A1,18,AREF*%
%TO.N,unconnected-(A1-AREF-Pad18)*%
X96630000Y-79430000D03*
%TO.P,A1,19,A0*%
%TO.N,R1-D*%
X96630000Y-76890000D03*
%TO.P,A1,20,A1*%
%TO.N,R3-R*%
X96630000Y-74350000D03*
%TO.P,A1,21,A2*%
%TO.N,R3-G*%
X96630000Y-71810000D03*
%TO.P,A1,22,A3*%
%TO.N,R3-B*%
X96630000Y-69270000D03*
%TO.P,A1,23,A4*%
%TO.N,SDA*%
X96630000Y-66730000D03*
%TO.P,A1,24,A5*%
%TO.N,SCL*%
X96630000Y-64190000D03*
%TO.P,A1,25,A6*%
%TO.N,LDR*%
X96630000Y-61650000D03*
%TO.P,A1,26,A7*%
%TO.N,R3_S1*%
X96630000Y-59110000D03*
%TO.P,A1,27,+5V*%
%TO.N,+5V*%
X96630000Y-56570000D03*
%TO.P,A1,28,~{RESET}*%
%TO.N,unconnected-(A1-~{RESET}-Pad28)*%
X96630000Y-54030000D03*
%TO.P,A1,29,GND*%
%TO.N,GND*%
X96630000Y-51490000D03*
%TO.P,A1,30,VIN*%
%TO.N,VCC*%
X96630000Y-48950000D03*
%TD*%
D10*
%TO.P,R18,1*%
%TO.N,Net-(RGB4-R)*%
X39420000Y-89500000D03*
D11*
%TO.P,R18,2*%
%TO.N,Net-(Q9-C)*%
X49580000Y-89500000D03*
%TD*%
D10*
%TO.P,R3,1*%
%TO.N,fan enable*%
X73000000Y-91420000D03*
D11*
%TO.P,R3,2*%
%TO.N,Net-(Q3-B)*%
X73000000Y-101580000D03*
%TD*%
D12*
%TO.P,SW9,1,A*%
%TO.N,GND*%
X107500000Y-58500000D03*
D13*
%TO.P,SW9,2,B*%
%TO.N,R3_S1*%
X104960000Y-58500000D03*
%TD*%
D10*
%TO.P,R4,1*%
%TO.N,Net-(RGB1-R)*%
X38280000Y-31730000D03*
D11*
%TO.P,R4,2*%
%TO.N,Net-(Q1-C)*%
X48440000Y-31730000D03*
%TD*%
D20*
%TO.P,C1,*%
%TO.N,GND*%
X86500000Y-35500000D03*
D21*
%TO.P,C1,P*%
%TO.N,VCC*%
X84500000Y-35500000D03*
%TD*%
D10*
%TO.P,R14,1*%
%TO.N,Net-(Q8-B)*%
X57420000Y-89500000D03*
D11*
%TO.P,R14,2*%
%TO.N,R3B enable*%
X67580000Y-89500000D03*
%TD*%
D12*
%TO.P,RV1,1,1*%
%TO.N,GND*%
X110040000Y-87000000D03*
D13*
%TO.P,RV1,2,3*%
%TO.N,R1-D*%
X104960000Y-87000000D03*
%TO.P,RV1,3,2*%
%TO.N,+5V*%
X107500000Y-87000000D03*
%TD*%
D14*
%TO.P,Q2,1,C*%
%TO.N,GND*%
X54100000Y-47960000D03*
D18*
%TO.P,Q2,2,B*%
%TO.N,Net-(Q2-B)*%
X56170000Y-49230000D03*
%TO.P,Q2,2,E*%
%TO.N,Net-(Q2-C)*%
X54100000Y-50500000D03*
%TD*%
D10*
%TO.P,R5,1*%
%TO.N,Net-(RGB1-G)*%
X38280000Y-36280000D03*
D11*
%TO.P,R5,2*%
%TO.N,Net-(Q1-C)*%
X48440000Y-36280000D03*
%TD*%
D22*
%TO.N,R3B enable*%
X77000000Y-80080000D02*
X67580000Y-89500000D01*
X81390000Y-76890000D02*
X79110000Y-76890000D01*
X77000000Y-79000000D02*
X77000000Y-80080000D01*
X79110000Y-76890000D02*
X77000000Y-79000000D01*
%TO.N,C_button_1*%
X75500000Y-46500000D02*
X77950000Y-48950000D01*
X77950000Y-48950000D02*
X81390000Y-48950000D01*
X75500000Y-39765000D02*
X75500000Y-46500000D01*
%TO.N,R2-enable*%
X77610000Y-59110000D02*
X73080000Y-54580000D01*
X81390000Y-59110000D02*
X77610000Y-59110000D01*
X73080000Y-54580000D02*
X67000000Y-54580000D01*
D23*
%TO.N,+5V*%
X107485000Y-78000000D02*
X107485000Y-82485000D01*
X107540000Y-77945000D02*
X107485000Y-78000000D01*
X107500000Y-82500000D02*
X107500000Y-87000000D01*
X107540000Y-72420000D02*
X110460000Y-69500000D01*
X114500000Y-64000000D02*
X107775000Y-64000000D01*
X107540000Y-73500000D02*
X107540000Y-77945000D01*
X110460000Y-66685000D02*
X107775000Y-64000000D01*
X116000000Y-62500000D02*
X114500000Y-64000000D01*
X109000000Y-46000000D02*
X115000000Y-46000000D01*
X110460000Y-69500000D02*
X110460000Y-66685000D01*
X98430000Y-56570000D02*
X109000000Y-46000000D01*
X115000000Y-46000000D02*
X116000000Y-47000000D01*
X107540000Y-73500000D02*
X107540000Y-72420000D01*
X116000000Y-47000000D02*
X116000000Y-62500000D01*
X96630000Y-56570000D02*
X98430000Y-56570000D01*
D22*
%TO.N,MC_signal*%
X73540000Y-50525000D02*
X72500000Y-49485000D01*
X80425000Y-50525000D02*
X73540000Y-50525000D01*
X81390000Y-51490000D02*
X80425000Y-50525000D01*
D23*
%TO.N,GND*%
X67225000Y-78235000D02*
X67460000Y-78000000D01*
X86765000Y-35235000D02*
X86500000Y-35500000D01*
X86765000Y-29500000D02*
X86765000Y-35235000D01*
D22*
X110025000Y-82485000D02*
X110040000Y-82500000D01*
X109500000Y-87500000D02*
X110000000Y-87000000D01*
X110000000Y-82540000D02*
X110040000Y-82500000D01*
%TO.N,R2_S1*%
X70000000Y-78000000D02*
X76190000Y-71810000D01*
X76190000Y-71810000D02*
X81390000Y-71810000D01*
%TO.N,R3-R*%
X104780000Y-82500000D02*
X104960000Y-82500000D01*
X96630000Y-74350000D02*
X104780000Y-82500000D01*
%TO.N,MD_light_enable*%
X68080000Y-93420000D02*
X68080000Y-95500000D01*
X81390000Y-79430000D02*
X79570000Y-79430000D01*
X78500000Y-80500000D02*
X78500000Y-81000000D01*
X78500000Y-81000000D02*
X70500000Y-89000000D01*
X79570000Y-79430000D02*
X78500000Y-80500000D01*
X70500000Y-89000000D02*
X70500000Y-91000000D01*
X70500000Y-91000000D02*
X68080000Y-93420000D01*
%TO.N,R3R enable*%
X65500000Y-72580000D02*
X69420000Y-72580000D01*
X69420000Y-72580000D02*
X75270000Y-66730000D01*
X75270000Y-66730000D02*
X81390000Y-66730000D01*
%TO.N,SDA*%
X100270000Y-66730000D02*
X103040000Y-69500000D01*
X100270000Y-66730000D02*
X96630000Y-66730000D01*
X103040000Y-69500000D02*
X105380000Y-69500000D01*
%TO.N,R2_S2*%
X81390000Y-84510000D02*
X79490000Y-84510000D01*
X77500000Y-94735000D02*
X79000000Y-96235000D01*
X77500000Y-86500000D02*
X77500000Y-94735000D01*
X79490000Y-84510000D02*
X77500000Y-86500000D01*
%TO.N,C_button_3*%
X79500000Y-64000000D02*
X72500000Y-64000000D01*
X81390000Y-64190000D02*
X79690000Y-64190000D01*
X79690000Y-64190000D02*
X79500000Y-64000000D01*
%TO.N,R1-enable*%
X74080000Y-59080000D02*
X76650000Y-61650000D01*
X76650000Y-61650000D02*
X81390000Y-61650000D01*
X74080000Y-59080000D02*
X72080000Y-57080000D01*
X72080000Y-57080000D02*
X62500000Y-57080000D01*
%TO.N,R1-D*%
X102500000Y-84580000D02*
X102540000Y-84580000D01*
X102540000Y-84580000D02*
X104960000Y-87000000D01*
X102500000Y-84580000D02*
X102500000Y-82000000D01*
X97390000Y-76890000D02*
X96630000Y-76890000D01*
X102500000Y-82000000D02*
X97390000Y-76890000D01*
%TO.N,SCL*%
X99690000Y-64190000D02*
X96630000Y-64190000D01*
X107920000Y-69500000D02*
X107920000Y-69420000D01*
X102500000Y-67000000D02*
X99690000Y-64190000D01*
X105500000Y-67000000D02*
X102500000Y-67000000D01*
X107920000Y-69420000D02*
X105500000Y-67000000D01*
%TO.N,LDR*%
X99150000Y-61650000D02*
X96630000Y-61650000D01*
X105235000Y-64000000D02*
X101500000Y-64000000D01*
X101500000Y-64000000D02*
X99150000Y-61650000D01*
X105235000Y-64000000D02*
X105235000Y-63265000D01*
X105235000Y-63265000D02*
X107000000Y-61500000D01*
X107000000Y-61500000D02*
X110580000Y-61500000D01*
X110580000Y-61500000D02*
X112500000Y-59580000D01*
%TO.N,C_button_2*%
X81390000Y-74350000D02*
X78415000Y-74350000D01*
X78415000Y-74350000D02*
X69765000Y-83000000D01*
%TO.N,R3-G*%
X98310000Y-71810000D02*
X103000000Y-76500000D01*
X103445000Y-76500000D02*
X104945000Y-78000000D01*
X96630000Y-71810000D02*
X98310000Y-71810000D01*
X103000000Y-76500000D02*
X103445000Y-76500000D01*
%TO.N,R3_S1*%
X96630000Y-59110000D02*
X101345000Y-59110000D01*
X101955000Y-58500000D02*
X104960000Y-58500000D01*
X101345000Y-59110000D02*
X101955000Y-58500000D01*
%TO.N,R3G enable*%
X69420000Y-75580000D02*
X75730000Y-69270000D01*
X75730000Y-69270000D02*
X81390000Y-69270000D01*
X61000000Y-75580000D02*
X69420000Y-75580000D01*
%TO.N,fan switch*%
X98245000Y-84510000D02*
X96630000Y-84510000D01*
X98245000Y-84510000D02*
X105235000Y-91500000D01*
D23*
%TO.N,VCC*%
X84225000Y-28775000D02*
X84225000Y-29500000D01*
D24*
X26000000Y-47500000D02*
X26000000Y-35000000D01*
X26000000Y-31000000D02*
X26000000Y-35000000D01*
D23*
X80235000Y-33357500D02*
X80367500Y-33357500D01*
D24*
X26000000Y-54500000D02*
X26000000Y-47500000D01*
X27000000Y-73000000D02*
X26000000Y-72000000D01*
D23*
X118500000Y-91772032D02*
X118500000Y-45500000D01*
D24*
X29500000Y-27500000D02*
X26000000Y-31000000D01*
X26000000Y-59000000D02*
X26000000Y-54500000D01*
D23*
X82235000Y-41132500D02*
X80235000Y-39132500D01*
X101000000Y-47500000D02*
X101000000Y-42897500D01*
D24*
X84225000Y-28225000D02*
X83500000Y-27500000D01*
X28710000Y-50210000D02*
X26000000Y-47500000D01*
X83500000Y-27500000D02*
X29500000Y-27500000D01*
X26210000Y-35210000D02*
X26000000Y-35000000D01*
D23*
X84225000Y-35225000D02*
X84500000Y-35500000D01*
D24*
X29500000Y-73000000D02*
X27000000Y-73000000D01*
D23*
X99500000Y-49000000D02*
X101000000Y-47500000D01*
D24*
X29460000Y-92460000D02*
X26000000Y-89000000D01*
X26000000Y-72000000D02*
X26000000Y-59000000D01*
X29460000Y-50210000D02*
X28710000Y-50210000D01*
D23*
X84225000Y-29500000D02*
X84225000Y-35225000D01*
X80367500Y-33357500D02*
X84225000Y-29500000D01*
D24*
X84225000Y-29500000D02*
X84225000Y-28225000D01*
D23*
X101000000Y-42897500D02*
X99235000Y-41132500D01*
X99500000Y-26500000D02*
X86500000Y-26500000D01*
X99235000Y-41132500D02*
X82235000Y-41132500D01*
X72500000Y-34000000D02*
X76887500Y-29612500D01*
X80235000Y-39132500D02*
X80235000Y-33357500D01*
X86500000Y-26500000D02*
X84225000Y-28775000D01*
X96630000Y-48950000D02*
X99450000Y-48950000D01*
D24*
X26000000Y-89000000D02*
X26000000Y-72000000D01*
D23*
X118500000Y-91772032D02*
X106772032Y-103500000D01*
X84112500Y-29612500D02*
X76887500Y-29612500D01*
X72500000Y-46945000D02*
X72500000Y-34000000D01*
D24*
X29250000Y-35210000D02*
X26210000Y-35210000D01*
D23*
X106772032Y-103500000D02*
X102580000Y-103500000D01*
X99450000Y-48950000D02*
X99500000Y-49000000D01*
X84225000Y-29500000D02*
X84112500Y-29612500D01*
X118500000Y-45500000D02*
X99500000Y-26500000D01*
D22*
%TO.N,R3-B*%
X96630000Y-69270000D02*
X100770000Y-69270000D01*
X100770000Y-69270000D02*
X105000000Y-73500000D01*
D23*
%TO.N,Net-(Q1-C)*%
X48440000Y-40730000D02*
X48440000Y-36280000D01*
X55090000Y-36280000D02*
X55140000Y-36230000D01*
X48440000Y-36280000D02*
X55090000Y-36280000D01*
X48440000Y-31730000D02*
X48440000Y-36280000D01*
%TO.N,Net-(Q1-B)*%
X63330000Y-44420000D02*
X67000000Y-44420000D01*
X56410000Y-37500000D02*
X63330000Y-44420000D01*
%TO.N,Net-(Q2-C)*%
X48440000Y-51730000D02*
X53270000Y-51730000D01*
X48440000Y-57230000D02*
X48440000Y-51730000D01*
X48440000Y-51730000D02*
X48440000Y-46230000D01*
X53270000Y-51730000D02*
X54500000Y-50500000D01*
%TO.N,Net-(Q2-B)*%
X58080000Y-46920000D02*
X55770000Y-49230000D01*
X62500000Y-46920000D02*
X58080000Y-46920000D01*
%TO.N,Net-(M1--)*%
X78725000Y-106265000D02*
X86500000Y-106265000D01*
X78500000Y-106040000D02*
X78725000Y-106265000D01*
%TO.N,Net-(Q3-B)*%
X74500000Y-105000000D02*
X73000000Y-103500000D01*
X77230000Y-104770000D02*
X77000000Y-105000000D01*
X77000000Y-105000000D02*
X74500000Y-105000000D01*
X73000000Y-101580000D02*
X73000000Y-103500000D01*
%TO.N,Net-(Q6-B)*%
X65500000Y-62420000D02*
X56920000Y-62420000D01*
X56920000Y-62420000D02*
X55770000Y-61270000D01*
%TO.N,Net-(Q6-C)*%
X48440000Y-63730000D02*
X53310000Y-63730000D01*
X53310000Y-63730000D02*
X54500000Y-62540000D01*
%TO.N,Net-(Q7-C)*%
X48440000Y-71730000D02*
X52170000Y-68000000D01*
X52170000Y-68000000D02*
X54500000Y-68000000D01*
%TO.N,Net-(Q7-B)*%
X59620000Y-65420000D02*
X61000000Y-65420000D01*
X55770000Y-69270000D02*
X59620000Y-65420000D01*
%TO.N,Net-(Q8-C)*%
X54960000Y-82000000D02*
X55230000Y-82270000D01*
X49080000Y-82000000D02*
X54960000Y-82000000D01*
%TO.N,Net-(Q8-B)*%
X57420000Y-81920000D02*
X56500000Y-81000000D01*
X57420000Y-81920000D02*
X57420000Y-89500000D01*
%TO.N,Net-(Q9-B)*%
X57920000Y-102010000D02*
X57920000Y-95500000D01*
X58000000Y-102090000D02*
X57920000Y-102010000D01*
%TO.N,Net-(Q9-C)*%
X49580000Y-94500000D02*
X49580000Y-89500000D01*
X52870000Y-99500000D02*
X49580000Y-99500000D01*
X49580000Y-99500000D02*
X49580000Y-94500000D01*
X56730000Y-103360000D02*
X52870000Y-99500000D01*
D22*
%TO.N,fan enable*%
X80030000Y-81970000D02*
X81390000Y-81970000D01*
X73000000Y-89000000D02*
X80030000Y-81970000D01*
X73000000Y-89000000D02*
X73000000Y-91420000D01*
D23*
%TO.N,Net-(RGB1-R)*%
X31790000Y-35210000D02*
X31790000Y-32710000D01*
X32770000Y-31730000D02*
X31790000Y-32710000D01*
X38280000Y-31730000D02*
X32770000Y-31730000D01*
%TO.N,Net-(RGB1-G)*%
X36780000Y-36280000D02*
X35310000Y-37750000D01*
X38280000Y-36280000D02*
X36780000Y-36280000D01*
X35310000Y-37750000D02*
X31790000Y-37750000D01*
%TO.N,Net-(RGB1-B)*%
X30500000Y-41500000D02*
X36010000Y-41500000D01*
X36780000Y-40730000D02*
X36010000Y-41500000D01*
X29250000Y-40250000D02*
X30500000Y-41500000D01*
X38280000Y-40730000D02*
X36780000Y-40730000D01*
X29250000Y-37750000D02*
X29250000Y-40250000D01*
%TO.N,Net-(RGB2-R)*%
X29460000Y-55960000D02*
X29460000Y-52750000D01*
X30730000Y-57230000D02*
X29460000Y-55960000D01*
X38280000Y-57230000D02*
X30730000Y-57230000D01*
%TO.N,Net-(RGB4-G)*%
X38920000Y-95000000D02*
X39420000Y-94500000D01*
X32000000Y-95000000D02*
X38920000Y-95000000D01*
%TO.N,Net-(RGB2-B)*%
X32000000Y-49000000D02*
X32000000Y-50210000D01*
X38280000Y-46230000D02*
X34770000Y-46230000D01*
X34770000Y-46230000D02*
X32000000Y-49000000D01*
%TO.N,Net-(RGB3-R)*%
X38280000Y-63730000D02*
X32510000Y-69500000D01*
X32510000Y-69500000D02*
X32500000Y-69500000D01*
X32500000Y-69500000D02*
X32040000Y-69960000D01*
X32040000Y-69960000D02*
X32040000Y-73000000D01*
%TO.N,Net-(RGB3-G)*%
X32040000Y-75540000D02*
X34470000Y-75540000D01*
X34470000Y-75540000D02*
X38280000Y-71730000D01*
%TO.N,Net-(RGB3-B)*%
X29500000Y-79000000D02*
X29500000Y-75540000D01*
X32500000Y-82000000D02*
X29500000Y-79000000D01*
X38920000Y-82000000D02*
X32500000Y-82000000D01*
%TO.N,Net-(M1-+)*%
X92195000Y-103725000D02*
X92420000Y-103500000D01*
X86500000Y-103725000D02*
X92195000Y-103725000D01*
%TO.N,Net-(RGB4-R)*%
X32000000Y-92460000D02*
X36460000Y-92460000D01*
X36460000Y-92460000D02*
X39420000Y-89500000D01*
%TO.N,Net-(RGB4-B)*%
X39420000Y-99500000D02*
X31500000Y-99500000D01*
X31500000Y-99500000D02*
X29460000Y-97460000D01*
X29460000Y-97460000D02*
X29460000Y-95000000D01*
%TO.N,Net-(RGB2-G)*%
X32000000Y-52750000D02*
X37260000Y-52750000D01*
X37260000Y-52750000D02*
X38280000Y-51730000D01*
%TD*%
M02*
