M48
; DRILL file {KiCad 8.0.6} date 2024-12-04T16:18:21+0100
; FORMAT={-:-/ absolute / metric / decimal}
; #@! TF.CreationDate,2024-12-04T16:18:21+01:00
; #@! TF.GenerationSoftware,Kicad,Pcbnew,8.0.6
; #@! TF.FileFunction,Plated,1,2,PTH
FMAT,2
METRIC
; #@! TA.AperFunction,Plated,PTH,ComponentDrill
T1C0.700
; #@! TA.AperFunction,Plated,PTH,ComponentDrill
T2C0.750
; #@! TA.AperFunction,Plated,PTH,ViaDrill
T3C0.800
; #@! TA.AperFunction,Plated,PTH,ComponentDrill
T4C0.800
; #@! TA.AperFunction,Plated,PTH,ComponentDrill
T5C1.000
%
G90
G05
T1
X84.5Y-35.5
X86.5Y-35.5
T2
X54.5Y-60.0
X54.5Y-62.54
X54.5Y-68.0
X54.5Y-70.54
X55.0Y-50.0
X55.0Y-52.54
X55.14Y-36.23
X55.14Y-38.77
X55.23Y-79.73
X55.23Y-82.27
X55.77Y-61.27
X55.77Y-69.27
X56.27Y-51.27
X56.41Y-37.5
X56.5Y-81.0
X56.73Y-103.36
X58.0Y-102.09
X59.27Y-103.36
X77.23Y-104.77
X78.5Y-103.5
X78.5Y-106.04
T3
X99.5Y-51.5
X104.5Y-48.5
T4
X38.28Y-31.73
X38.28Y-36.28
X38.28Y-40.73
X38.28Y-46.23
X38.28Y-51.73
X38.28Y-57.23
X38.28Y-63.73
X38.28Y-71.73
X38.92Y-82.0
X39.42Y-89.5
X39.42Y-94.5
X39.42Y-99.5
X48.44Y-31.73
X48.44Y-36.28
X48.44Y-40.73
X48.44Y-46.23
X48.44Y-51.73
X48.44Y-57.23
X48.44Y-63.73
X48.44Y-71.73
X49.08Y-82.0
X49.58Y-89.5
X49.58Y-94.5
X49.58Y-99.5
X56.42Y-89.5
X57.92Y-95.5
X61.0Y-65.42
X61.0Y-75.58
X62.5Y-46.92
X62.5Y-57.08
X65.5Y-62.42
X65.5Y-72.58
X66.58Y-89.5
X67.0Y-44.42
X67.0Y-54.58
X68.08Y-95.5
X73.0Y-91.42
X73.0Y-101.58
X92.42Y-103.5
X102.58Y-103.5
X104.92Y-45.5
X115.08Y-45.5
T5
X29.25Y-35.21
X29.25Y-37.75
X29.46Y-50.21
X29.46Y-52.75
X29.46Y-92.46
X29.46Y-95.0
X29.5Y-73.0
X29.5Y-75.54
X31.79Y-35.21
X31.79Y-37.75
X32.0Y-50.21
X32.0Y-52.75
X32.0Y-92.46
X32.0Y-95.0
X32.04Y-73.0
X32.04Y-75.54
X64.725Y-83.5
X64.96Y-78.5
X67.265Y-83.5
X67.5Y-78.5
X69.96Y-64.0
X72.5Y-46.945
X72.5Y-49.485
X72.5Y-52.025
X72.5Y-64.0
X75.5Y-37.225
X75.5Y-39.765
X79.0Y-96.235
X79.0Y-98.775
X81.39Y-48.95
X81.39Y-51.49
X81.39Y-54.03
X81.39Y-56.57
X81.39Y-59.11
X81.39Y-61.65
X81.39Y-64.19
X81.39Y-66.73
X81.39Y-69.27
X81.39Y-71.81
X81.39Y-74.35
X81.39Y-76.89
X81.39Y-79.43
X81.39Y-81.97
X81.39Y-84.51
X84.225Y-29.5
X86.5Y-103.725
X86.5Y-106.265
X86.765Y-29.5
X96.63Y-48.95
X96.63Y-51.49
X96.63Y-54.03
X96.63Y-56.57
X96.63Y-59.11
X96.63Y-61.65
X96.63Y-64.19
X96.63Y-66.73
X96.63Y-69.27
X96.63Y-71.81
X96.63Y-74.35
X96.63Y-76.89
X96.63Y-79.43
X96.63Y-81.97
X96.63Y-84.51
X105.735Y-52.0
X105.735Y-57.0
X105.945Y-71.5
X105.96Y-76.0
X105.96Y-80.5
X106.0Y-62.5
X106.0Y-67.0
X106.235Y-85.0
X108.275Y-52.0
X108.275Y-57.0
X108.485Y-71.5
X108.5Y-76.0
X108.5Y-80.5
X108.54Y-62.5
X108.54Y-67.0
X108.775Y-85.0
X111.025Y-71.5
X111.04Y-76.0
X111.04Y-80.5
X111.08Y-62.5
X111.08Y-67.0
X113.62Y-62.5
M30
