%TF.GenerationSoftware,KiCad,Pcbnew,8.0.6*%
%TF.CreationDate,2024-12-04T16:16:46+01:00*%
%TF.ProjectId,smart home,736d6172-7420-4686-9f6d-652e6b696361,rev?*%
%TF.SameCoordinates,Original*%
%TF.FileFunction,Legend,Top*%
%TF.FilePolarity,Positive*%
%FSLAX46Y46*%
G04 Gerber Fmt 4.6, Leading zero omitted, Abs format (unit mm)*
G04 Created by KiCad (PCBNEW 8.0.6) date 2024-12-04 16:16:46*
%MOMM*%
%LPD*%
G01*
G04 APERTURE LIST*
%ADD10C,0.150000*%
%ADD11C,0.120000*%
%ADD12C,0.200000*%
%ADD13C,0.127000*%
G04 APERTURE END LIST*
D10*
X43193333Y-44314819D02*
X42860000Y-43838628D01*
X42621905Y-44314819D02*
X42621905Y-43314819D01*
X42621905Y-43314819D02*
X43002857Y-43314819D01*
X43002857Y-43314819D02*
X43098095Y-43362438D01*
X43098095Y-43362438D02*
X43145714Y-43410057D01*
X43145714Y-43410057D02*
X43193333Y-43505295D01*
X43193333Y-43505295D02*
X43193333Y-43648152D01*
X43193333Y-43648152D02*
X43145714Y-43743390D01*
X43145714Y-43743390D02*
X43098095Y-43791009D01*
X43098095Y-43791009D02*
X43002857Y-43838628D01*
X43002857Y-43838628D02*
X42621905Y-43838628D01*
X43669524Y-44314819D02*
X43860000Y-44314819D01*
X43860000Y-44314819D02*
X43955238Y-44267200D01*
X43955238Y-44267200D02*
X44002857Y-44219580D01*
X44002857Y-44219580D02*
X44098095Y-44076723D01*
X44098095Y-44076723D02*
X44145714Y-43886247D01*
X44145714Y-43886247D02*
X44145714Y-43505295D01*
X44145714Y-43505295D02*
X44098095Y-43410057D01*
X44098095Y-43410057D02*
X44050476Y-43362438D01*
X44050476Y-43362438D02*
X43955238Y-43314819D01*
X43955238Y-43314819D02*
X43764762Y-43314819D01*
X43764762Y-43314819D02*
X43669524Y-43362438D01*
X43669524Y-43362438D02*
X43621905Y-43410057D01*
X43621905Y-43410057D02*
X43574286Y-43505295D01*
X43574286Y-43505295D02*
X43574286Y-43743390D01*
X43574286Y-43743390D02*
X43621905Y-43838628D01*
X43621905Y-43838628D02*
X43669524Y-43886247D01*
X43669524Y-43886247D02*
X43764762Y-43933866D01*
X43764762Y-43933866D02*
X43955238Y-43933866D01*
X43955238Y-43933866D02*
X44050476Y-43886247D01*
X44050476Y-43886247D02*
X44098095Y-43838628D01*
X44098095Y-43838628D02*
X44145714Y-43743390D01*
X26934819Y-37646666D02*
X26458628Y-37979999D01*
X26934819Y-38218094D02*
X25934819Y-38218094D01*
X25934819Y-38218094D02*
X25934819Y-37837142D01*
X25934819Y-37837142D02*
X25982438Y-37741904D01*
X25982438Y-37741904D02*
X26030057Y-37694285D01*
X26030057Y-37694285D02*
X26125295Y-37646666D01*
X26125295Y-37646666D02*
X26268152Y-37646666D01*
X26268152Y-37646666D02*
X26363390Y-37694285D01*
X26363390Y-37694285D02*
X26411009Y-37741904D01*
X26411009Y-37741904D02*
X26458628Y-37837142D01*
X26458628Y-37837142D02*
X26458628Y-38218094D01*
X25982438Y-36694285D02*
X25934819Y-36789523D01*
X25934819Y-36789523D02*
X25934819Y-36932380D01*
X25934819Y-36932380D02*
X25982438Y-37075237D01*
X25982438Y-37075237D02*
X26077676Y-37170475D01*
X26077676Y-37170475D02*
X26172914Y-37218094D01*
X26172914Y-37218094D02*
X26363390Y-37265713D01*
X26363390Y-37265713D02*
X26506247Y-37265713D01*
X26506247Y-37265713D02*
X26696723Y-37218094D01*
X26696723Y-37218094D02*
X26791961Y-37170475D01*
X26791961Y-37170475D02*
X26887200Y-37075237D01*
X26887200Y-37075237D02*
X26934819Y-36932380D01*
X26934819Y-36932380D02*
X26934819Y-36837142D01*
X26934819Y-36837142D02*
X26887200Y-36694285D01*
X26887200Y-36694285D02*
X26839580Y-36646666D01*
X26839580Y-36646666D02*
X26506247Y-36646666D01*
X26506247Y-36646666D02*
X26506247Y-36837142D01*
X26411009Y-35884761D02*
X26458628Y-35741904D01*
X26458628Y-35741904D02*
X26506247Y-35694285D01*
X26506247Y-35694285D02*
X26601485Y-35646666D01*
X26601485Y-35646666D02*
X26744342Y-35646666D01*
X26744342Y-35646666D02*
X26839580Y-35694285D01*
X26839580Y-35694285D02*
X26887200Y-35741904D01*
X26887200Y-35741904D02*
X26934819Y-35837142D01*
X26934819Y-35837142D02*
X26934819Y-36218094D01*
X26934819Y-36218094D02*
X25934819Y-36218094D01*
X25934819Y-36218094D02*
X25934819Y-35884761D01*
X25934819Y-35884761D02*
X25982438Y-35789523D01*
X25982438Y-35789523D02*
X26030057Y-35741904D01*
X26030057Y-35741904D02*
X26125295Y-35694285D01*
X26125295Y-35694285D02*
X26220533Y-35694285D01*
X26220533Y-35694285D02*
X26315771Y-35741904D01*
X26315771Y-35741904D02*
X26363390Y-35789523D01*
X26363390Y-35789523D02*
X26411009Y-35884761D01*
X26411009Y-35884761D02*
X26411009Y-36218094D01*
X26934819Y-34694285D02*
X26934819Y-35265713D01*
X26934819Y-34979999D02*
X25934819Y-34979999D01*
X25934819Y-34979999D02*
X26077676Y-35075237D01*
X26077676Y-35075237D02*
X26172914Y-35170475D01*
X26172914Y-35170475D02*
X26220533Y-35265713D01*
X43193333Y-55314819D02*
X42860000Y-54838628D01*
X42621905Y-55314819D02*
X42621905Y-54314819D01*
X42621905Y-54314819D02*
X43002857Y-54314819D01*
X43002857Y-54314819D02*
X43098095Y-54362438D01*
X43098095Y-54362438D02*
X43145714Y-54410057D01*
X43145714Y-54410057D02*
X43193333Y-54505295D01*
X43193333Y-54505295D02*
X43193333Y-54648152D01*
X43193333Y-54648152D02*
X43145714Y-54743390D01*
X43145714Y-54743390D02*
X43098095Y-54791009D01*
X43098095Y-54791009D02*
X43002857Y-54838628D01*
X43002857Y-54838628D02*
X42621905Y-54838628D01*
X43526667Y-54314819D02*
X44193333Y-54314819D01*
X44193333Y-54314819D02*
X43764762Y-55314819D01*
X27144819Y-94896666D02*
X26668628Y-95229999D01*
X27144819Y-95468094D02*
X26144819Y-95468094D01*
X26144819Y-95468094D02*
X26144819Y-95087142D01*
X26144819Y-95087142D02*
X26192438Y-94991904D01*
X26192438Y-94991904D02*
X26240057Y-94944285D01*
X26240057Y-94944285D02*
X26335295Y-94896666D01*
X26335295Y-94896666D02*
X26478152Y-94896666D01*
X26478152Y-94896666D02*
X26573390Y-94944285D01*
X26573390Y-94944285D02*
X26621009Y-94991904D01*
X26621009Y-94991904D02*
X26668628Y-95087142D01*
X26668628Y-95087142D02*
X26668628Y-95468094D01*
X26192438Y-93944285D02*
X26144819Y-94039523D01*
X26144819Y-94039523D02*
X26144819Y-94182380D01*
X26144819Y-94182380D02*
X26192438Y-94325237D01*
X26192438Y-94325237D02*
X26287676Y-94420475D01*
X26287676Y-94420475D02*
X26382914Y-94468094D01*
X26382914Y-94468094D02*
X26573390Y-94515713D01*
X26573390Y-94515713D02*
X26716247Y-94515713D01*
X26716247Y-94515713D02*
X26906723Y-94468094D01*
X26906723Y-94468094D02*
X27001961Y-94420475D01*
X27001961Y-94420475D02*
X27097200Y-94325237D01*
X27097200Y-94325237D02*
X27144819Y-94182380D01*
X27144819Y-94182380D02*
X27144819Y-94087142D01*
X27144819Y-94087142D02*
X27097200Y-93944285D01*
X27097200Y-93944285D02*
X27049580Y-93896666D01*
X27049580Y-93896666D02*
X26716247Y-93896666D01*
X26716247Y-93896666D02*
X26716247Y-94087142D01*
X26621009Y-93134761D02*
X26668628Y-92991904D01*
X26668628Y-92991904D02*
X26716247Y-92944285D01*
X26716247Y-92944285D02*
X26811485Y-92896666D01*
X26811485Y-92896666D02*
X26954342Y-92896666D01*
X26954342Y-92896666D02*
X27049580Y-92944285D01*
X27049580Y-92944285D02*
X27097200Y-92991904D01*
X27097200Y-92991904D02*
X27144819Y-93087142D01*
X27144819Y-93087142D02*
X27144819Y-93468094D01*
X27144819Y-93468094D02*
X26144819Y-93468094D01*
X26144819Y-93468094D02*
X26144819Y-93134761D01*
X26144819Y-93134761D02*
X26192438Y-93039523D01*
X26192438Y-93039523D02*
X26240057Y-92991904D01*
X26240057Y-92991904D02*
X26335295Y-92944285D01*
X26335295Y-92944285D02*
X26430533Y-92944285D01*
X26430533Y-92944285D02*
X26525771Y-92991904D01*
X26525771Y-92991904D02*
X26573390Y-93039523D01*
X26573390Y-93039523D02*
X26621009Y-93134761D01*
X26621009Y-93134761D02*
X26621009Y-93468094D01*
X26478152Y-92039523D02*
X27144819Y-92039523D01*
X26097200Y-92277618D02*
X26811485Y-92515713D01*
X26811485Y-92515713D02*
X26811485Y-91896666D01*
X111512200Y-86333332D02*
X111559819Y-86190475D01*
X111559819Y-86190475D02*
X111559819Y-85952380D01*
X111559819Y-85952380D02*
X111512200Y-85857142D01*
X111512200Y-85857142D02*
X111464580Y-85809523D01*
X111464580Y-85809523D02*
X111369342Y-85761904D01*
X111369342Y-85761904D02*
X111274104Y-85761904D01*
X111274104Y-85761904D02*
X111178866Y-85809523D01*
X111178866Y-85809523D02*
X111131247Y-85857142D01*
X111131247Y-85857142D02*
X111083628Y-85952380D01*
X111083628Y-85952380D02*
X111036009Y-86142856D01*
X111036009Y-86142856D02*
X110988390Y-86238094D01*
X110988390Y-86238094D02*
X110940771Y-86285713D01*
X110940771Y-86285713D02*
X110845533Y-86333332D01*
X110845533Y-86333332D02*
X110750295Y-86333332D01*
X110750295Y-86333332D02*
X110655057Y-86285713D01*
X110655057Y-86285713D02*
X110607438Y-86238094D01*
X110607438Y-86238094D02*
X110559819Y-86142856D01*
X110559819Y-86142856D02*
X110559819Y-85904761D01*
X110559819Y-85904761D02*
X110607438Y-85761904D01*
X110559819Y-85428570D02*
X111559819Y-85190475D01*
X111559819Y-85190475D02*
X110845533Y-84999999D01*
X110845533Y-84999999D02*
X111559819Y-84809523D01*
X111559819Y-84809523D02*
X110559819Y-84571428D01*
X110559819Y-83761904D02*
X110559819Y-83952380D01*
X110559819Y-83952380D02*
X110607438Y-84047618D01*
X110607438Y-84047618D02*
X110655057Y-84095237D01*
X110655057Y-84095237D02*
X110797914Y-84190475D01*
X110797914Y-84190475D02*
X110988390Y-84238094D01*
X110988390Y-84238094D02*
X111369342Y-84238094D01*
X111369342Y-84238094D02*
X111464580Y-84190475D01*
X111464580Y-84190475D02*
X111512200Y-84142856D01*
X111512200Y-84142856D02*
X111559819Y-84047618D01*
X111559819Y-84047618D02*
X111559819Y-83857142D01*
X111559819Y-83857142D02*
X111512200Y-83761904D01*
X111512200Y-83761904D02*
X111464580Y-83714285D01*
X111464580Y-83714285D02*
X111369342Y-83666666D01*
X111369342Y-83666666D02*
X111131247Y-83666666D01*
X111131247Y-83666666D02*
X111036009Y-83714285D01*
X111036009Y-83714285D02*
X110988390Y-83761904D01*
X110988390Y-83761904D02*
X110940771Y-83857142D01*
X110940771Y-83857142D02*
X110940771Y-84047618D01*
X110940771Y-84047618D02*
X110988390Y-84142856D01*
X110988390Y-84142856D02*
X111036009Y-84190475D01*
X111036009Y-84190475D02*
X111131247Y-84238094D01*
X85690476Y-101849819D02*
X85690476Y-100849819D01*
X85690476Y-100849819D02*
X86023809Y-101564104D01*
X86023809Y-101564104D02*
X86357142Y-100849819D01*
X86357142Y-100849819D02*
X86357142Y-101849819D01*
X87357142Y-101849819D02*
X86785714Y-101849819D01*
X87071428Y-101849819D02*
X87071428Y-100849819D01*
X87071428Y-100849819D02*
X86976190Y-100992676D01*
X86976190Y-100992676D02*
X86880952Y-101087914D01*
X86880952Y-101087914D02*
X86785714Y-101135533D01*
X109357142Y-48324819D02*
X109023809Y-47848628D01*
X108785714Y-48324819D02*
X108785714Y-47324819D01*
X108785714Y-47324819D02*
X109166666Y-47324819D01*
X109166666Y-47324819D02*
X109261904Y-47372438D01*
X109261904Y-47372438D02*
X109309523Y-47420057D01*
X109309523Y-47420057D02*
X109357142Y-47515295D01*
X109357142Y-47515295D02*
X109357142Y-47658152D01*
X109357142Y-47658152D02*
X109309523Y-47753390D01*
X109309523Y-47753390D02*
X109261904Y-47801009D01*
X109261904Y-47801009D02*
X109166666Y-47848628D01*
X109166666Y-47848628D02*
X108785714Y-47848628D01*
X109738095Y-47420057D02*
X109785714Y-47372438D01*
X109785714Y-47372438D02*
X109880952Y-47324819D01*
X109880952Y-47324819D02*
X110119047Y-47324819D01*
X110119047Y-47324819D02*
X110214285Y-47372438D01*
X110214285Y-47372438D02*
X110261904Y-47420057D01*
X110261904Y-47420057D02*
X110309523Y-47515295D01*
X110309523Y-47515295D02*
X110309523Y-47610533D01*
X110309523Y-47610533D02*
X110261904Y-47753390D01*
X110261904Y-47753390D02*
X109690476Y-48324819D01*
X109690476Y-48324819D02*
X110309523Y-48324819D01*
X110928571Y-47324819D02*
X111023809Y-47324819D01*
X111023809Y-47324819D02*
X111119047Y-47372438D01*
X111119047Y-47372438D02*
X111166666Y-47420057D01*
X111166666Y-47420057D02*
X111214285Y-47515295D01*
X111214285Y-47515295D02*
X111261904Y-47705771D01*
X111261904Y-47705771D02*
X111261904Y-47943866D01*
X111261904Y-47943866D02*
X111214285Y-48134342D01*
X111214285Y-48134342D02*
X111166666Y-48229580D01*
X111166666Y-48229580D02*
X111119047Y-48277200D01*
X111119047Y-48277200D02*
X111023809Y-48324819D01*
X111023809Y-48324819D02*
X110928571Y-48324819D01*
X110928571Y-48324819D02*
X110833333Y-48277200D01*
X110833333Y-48277200D02*
X110785714Y-48229580D01*
X110785714Y-48229580D02*
X110738095Y-48134342D01*
X110738095Y-48134342D02*
X110690476Y-47943866D01*
X110690476Y-47943866D02*
X110690476Y-47705771D01*
X110690476Y-47705771D02*
X110738095Y-47515295D01*
X110738095Y-47515295D02*
X110785714Y-47420057D01*
X110785714Y-47420057D02*
X110833333Y-47372438D01*
X110833333Y-47372438D02*
X110928571Y-47324819D01*
X81826009Y-30285714D02*
X81873628Y-30142857D01*
X81873628Y-30142857D02*
X81921247Y-30095238D01*
X81921247Y-30095238D02*
X82016485Y-30047619D01*
X82016485Y-30047619D02*
X82159342Y-30047619D01*
X82159342Y-30047619D02*
X82254580Y-30095238D01*
X82254580Y-30095238D02*
X82302200Y-30142857D01*
X82302200Y-30142857D02*
X82349819Y-30238095D01*
X82349819Y-30238095D02*
X82349819Y-30619047D01*
X82349819Y-30619047D02*
X81349819Y-30619047D01*
X81349819Y-30619047D02*
X81349819Y-30285714D01*
X81349819Y-30285714D02*
X81397438Y-30190476D01*
X81397438Y-30190476D02*
X81445057Y-30142857D01*
X81445057Y-30142857D02*
X81540295Y-30095238D01*
X81540295Y-30095238D02*
X81635533Y-30095238D01*
X81635533Y-30095238D02*
X81730771Y-30142857D01*
X81730771Y-30142857D02*
X81778390Y-30190476D01*
X81778390Y-30190476D02*
X81826009Y-30285714D01*
X81826009Y-30285714D02*
X81826009Y-30619047D01*
X81349819Y-29761904D02*
X81349819Y-29190476D01*
X82349819Y-29476190D02*
X81349819Y-29476190D01*
X82349819Y-28333333D02*
X82349819Y-28904761D01*
X82349819Y-28619047D02*
X81349819Y-28619047D01*
X81349819Y-28619047D02*
X81492676Y-28714285D01*
X81492676Y-28714285D02*
X81587914Y-28809523D01*
X81587914Y-28809523D02*
X81635533Y-28904761D01*
X43193333Y-38814819D02*
X42860000Y-38338628D01*
X42621905Y-38814819D02*
X42621905Y-37814819D01*
X42621905Y-37814819D02*
X43002857Y-37814819D01*
X43002857Y-37814819D02*
X43098095Y-37862438D01*
X43098095Y-37862438D02*
X43145714Y-37910057D01*
X43145714Y-37910057D02*
X43193333Y-38005295D01*
X43193333Y-38005295D02*
X43193333Y-38148152D01*
X43193333Y-38148152D02*
X43145714Y-38243390D01*
X43145714Y-38243390D02*
X43098095Y-38291009D01*
X43098095Y-38291009D02*
X43002857Y-38338628D01*
X43002857Y-38338628D02*
X42621905Y-38338628D01*
X44050476Y-37814819D02*
X43860000Y-37814819D01*
X43860000Y-37814819D02*
X43764762Y-37862438D01*
X43764762Y-37862438D02*
X43717143Y-37910057D01*
X43717143Y-37910057D02*
X43621905Y-38052914D01*
X43621905Y-38052914D02*
X43574286Y-38243390D01*
X43574286Y-38243390D02*
X43574286Y-38624342D01*
X43574286Y-38624342D02*
X43621905Y-38719580D01*
X43621905Y-38719580D02*
X43669524Y-38767200D01*
X43669524Y-38767200D02*
X43764762Y-38814819D01*
X43764762Y-38814819D02*
X43955238Y-38814819D01*
X43955238Y-38814819D02*
X44050476Y-38767200D01*
X44050476Y-38767200D02*
X44098095Y-38719580D01*
X44098095Y-38719580D02*
X44145714Y-38624342D01*
X44145714Y-38624342D02*
X44145714Y-38386247D01*
X44145714Y-38386247D02*
X44098095Y-38291009D01*
X44098095Y-38291009D02*
X44050476Y-38243390D01*
X44050476Y-38243390D02*
X43955238Y-38195771D01*
X43955238Y-38195771D02*
X43764762Y-38195771D01*
X43764762Y-38195771D02*
X43669524Y-38243390D01*
X43669524Y-38243390D02*
X43621905Y-38291009D01*
X43621905Y-38291009D02*
X43574286Y-38386247D01*
X42717142Y-49814819D02*
X42383809Y-49338628D01*
X42145714Y-49814819D02*
X42145714Y-48814819D01*
X42145714Y-48814819D02*
X42526666Y-48814819D01*
X42526666Y-48814819D02*
X42621904Y-48862438D01*
X42621904Y-48862438D02*
X42669523Y-48910057D01*
X42669523Y-48910057D02*
X42717142Y-49005295D01*
X42717142Y-49005295D02*
X42717142Y-49148152D01*
X42717142Y-49148152D02*
X42669523Y-49243390D01*
X42669523Y-49243390D02*
X42621904Y-49291009D01*
X42621904Y-49291009D02*
X42526666Y-49338628D01*
X42526666Y-49338628D02*
X42145714Y-49338628D01*
X43098095Y-48910057D02*
X43145714Y-48862438D01*
X43145714Y-48862438D02*
X43240952Y-48814819D01*
X43240952Y-48814819D02*
X43479047Y-48814819D01*
X43479047Y-48814819D02*
X43574285Y-48862438D01*
X43574285Y-48862438D02*
X43621904Y-48910057D01*
X43621904Y-48910057D02*
X43669523Y-49005295D01*
X43669523Y-49005295D02*
X43669523Y-49100533D01*
X43669523Y-49100533D02*
X43621904Y-49243390D01*
X43621904Y-49243390D02*
X43050476Y-49814819D01*
X43050476Y-49814819D02*
X43669523Y-49814819D01*
X44526666Y-49148152D02*
X44526666Y-49814819D01*
X44288571Y-48767200D02*
X44050476Y-49481485D01*
X44050476Y-49481485D02*
X44669523Y-49481485D01*
X113864819Y-68571428D02*
X113388628Y-68904761D01*
X113864819Y-69142856D02*
X112864819Y-69142856D01*
X112864819Y-69142856D02*
X112864819Y-68761904D01*
X112864819Y-68761904D02*
X112912438Y-68666666D01*
X112912438Y-68666666D02*
X112960057Y-68619047D01*
X112960057Y-68619047D02*
X113055295Y-68571428D01*
X113055295Y-68571428D02*
X113198152Y-68571428D01*
X113198152Y-68571428D02*
X113293390Y-68619047D01*
X113293390Y-68619047D02*
X113341009Y-68666666D01*
X113341009Y-68666666D02*
X113388628Y-68761904D01*
X113388628Y-68761904D02*
X113388628Y-69142856D01*
X112864819Y-68285713D02*
X113864819Y-67952380D01*
X113864819Y-67952380D02*
X112864819Y-67619047D01*
X112864819Y-67380951D02*
X112864819Y-66761904D01*
X112864819Y-66761904D02*
X113245771Y-67095237D01*
X113245771Y-67095237D02*
X113245771Y-66952380D01*
X113245771Y-66952380D02*
X113293390Y-66857142D01*
X113293390Y-66857142D02*
X113341009Y-66809523D01*
X113341009Y-66809523D02*
X113436247Y-66761904D01*
X113436247Y-66761904D02*
X113674342Y-66761904D01*
X113674342Y-66761904D02*
X113769580Y-66809523D01*
X113769580Y-66809523D02*
X113817200Y-66857142D01*
X113817200Y-66857142D02*
X113864819Y-66952380D01*
X113864819Y-66952380D02*
X113864819Y-67238094D01*
X113864819Y-67238094D02*
X113817200Y-67333332D01*
X113817200Y-67333332D02*
X113769580Y-67380951D01*
X113341009Y-65999999D02*
X113388628Y-65857142D01*
X113388628Y-65857142D02*
X113436247Y-65809523D01*
X113436247Y-65809523D02*
X113531485Y-65761904D01*
X113531485Y-65761904D02*
X113674342Y-65761904D01*
X113674342Y-65761904D02*
X113769580Y-65809523D01*
X113769580Y-65809523D02*
X113817200Y-65857142D01*
X113817200Y-65857142D02*
X113864819Y-65952380D01*
X113864819Y-65952380D02*
X113864819Y-66333332D01*
X113864819Y-66333332D02*
X112864819Y-66333332D01*
X112864819Y-66333332D02*
X112864819Y-65999999D01*
X112864819Y-65999999D02*
X112912438Y-65904761D01*
X112912438Y-65904761D02*
X112960057Y-65857142D01*
X112960057Y-65857142D02*
X113055295Y-65809523D01*
X113055295Y-65809523D02*
X113150533Y-65809523D01*
X113150533Y-65809523D02*
X113245771Y-65857142D01*
X113245771Y-65857142D02*
X113293390Y-65904761D01*
X113293390Y-65904761D02*
X113341009Y-65999999D01*
X113341009Y-65999999D02*
X113341009Y-66333332D01*
X113864819Y-64809523D02*
X113864819Y-65380951D01*
X113864819Y-65095237D02*
X112864819Y-65095237D01*
X112864819Y-65095237D02*
X113007676Y-65190475D01*
X113007676Y-65190475D02*
X113102914Y-65285713D01*
X113102914Y-65285713D02*
X113150533Y-65380951D01*
X57904761Y-99510057D02*
X57809523Y-99462438D01*
X57809523Y-99462438D02*
X57714285Y-99367200D01*
X57714285Y-99367200D02*
X57571428Y-99224342D01*
X57571428Y-99224342D02*
X57476190Y-99176723D01*
X57476190Y-99176723D02*
X57380952Y-99176723D01*
X57428571Y-99414819D02*
X57333333Y-99367200D01*
X57333333Y-99367200D02*
X57238095Y-99271961D01*
X57238095Y-99271961D02*
X57190476Y-99081485D01*
X57190476Y-99081485D02*
X57190476Y-98748152D01*
X57190476Y-98748152D02*
X57238095Y-98557676D01*
X57238095Y-98557676D02*
X57333333Y-98462438D01*
X57333333Y-98462438D02*
X57428571Y-98414819D01*
X57428571Y-98414819D02*
X57619047Y-98414819D01*
X57619047Y-98414819D02*
X57714285Y-98462438D01*
X57714285Y-98462438D02*
X57809523Y-98557676D01*
X57809523Y-98557676D02*
X57857142Y-98748152D01*
X57857142Y-98748152D02*
X57857142Y-99081485D01*
X57857142Y-99081485D02*
X57809523Y-99271961D01*
X57809523Y-99271961D02*
X57714285Y-99367200D01*
X57714285Y-99367200D02*
X57619047Y-99414819D01*
X57619047Y-99414819D02*
X57428571Y-99414819D01*
X58333333Y-99414819D02*
X58523809Y-99414819D01*
X58523809Y-99414819D02*
X58619047Y-99367200D01*
X58619047Y-99367200D02*
X58666666Y-99319580D01*
X58666666Y-99319580D02*
X58761904Y-99176723D01*
X58761904Y-99176723D02*
X58809523Y-98986247D01*
X58809523Y-98986247D02*
X58809523Y-98605295D01*
X58809523Y-98605295D02*
X58761904Y-98510057D01*
X58761904Y-98510057D02*
X58714285Y-98462438D01*
X58714285Y-98462438D02*
X58619047Y-98414819D01*
X58619047Y-98414819D02*
X58428571Y-98414819D01*
X58428571Y-98414819D02*
X58333333Y-98462438D01*
X58333333Y-98462438D02*
X58285714Y-98510057D01*
X58285714Y-98510057D02*
X58238095Y-98605295D01*
X58238095Y-98605295D02*
X58238095Y-98843390D01*
X58238095Y-98843390D02*
X58285714Y-98938628D01*
X58285714Y-98938628D02*
X58333333Y-98986247D01*
X58333333Y-98986247D02*
X58428571Y-99033866D01*
X58428571Y-99033866D02*
X58619047Y-99033866D01*
X58619047Y-99033866D02*
X58714285Y-98986247D01*
X58714285Y-98986247D02*
X58761904Y-98938628D01*
X58761904Y-98938628D02*
X58809523Y-98843390D01*
X104124819Y-65404762D02*
X104124819Y-65880952D01*
X104124819Y-65880952D02*
X103124819Y-65880952D01*
X104029580Y-64500000D02*
X104077200Y-64547619D01*
X104077200Y-64547619D02*
X104124819Y-64690476D01*
X104124819Y-64690476D02*
X104124819Y-64785714D01*
X104124819Y-64785714D02*
X104077200Y-64928571D01*
X104077200Y-64928571D02*
X103981961Y-65023809D01*
X103981961Y-65023809D02*
X103886723Y-65071428D01*
X103886723Y-65071428D02*
X103696247Y-65119047D01*
X103696247Y-65119047D02*
X103553390Y-65119047D01*
X103553390Y-65119047D02*
X103362914Y-65071428D01*
X103362914Y-65071428D02*
X103267676Y-65023809D01*
X103267676Y-65023809D02*
X103172438Y-64928571D01*
X103172438Y-64928571D02*
X103124819Y-64785714D01*
X103124819Y-64785714D02*
X103124819Y-64690476D01*
X103124819Y-64690476D02*
X103172438Y-64547619D01*
X103172438Y-64547619D02*
X103220057Y-64500000D01*
X104124819Y-64071428D02*
X103124819Y-64071428D01*
X103124819Y-64071428D02*
X103124819Y-63833333D01*
X103124819Y-63833333D02*
X103172438Y-63690476D01*
X103172438Y-63690476D02*
X103267676Y-63595238D01*
X103267676Y-63595238D02*
X103362914Y-63547619D01*
X103362914Y-63547619D02*
X103553390Y-63500000D01*
X103553390Y-63500000D02*
X103696247Y-63500000D01*
X103696247Y-63500000D02*
X103886723Y-63547619D01*
X103886723Y-63547619D02*
X103981961Y-63595238D01*
X103981961Y-63595238D02*
X104077200Y-63690476D01*
X104077200Y-63690476D02*
X104124819Y-63833333D01*
X104124819Y-63833333D02*
X104124819Y-64071428D01*
X104220057Y-63309524D02*
X104220057Y-62547619D01*
X103220057Y-62357142D02*
X103172438Y-62309523D01*
X103172438Y-62309523D02*
X103124819Y-62214285D01*
X103124819Y-62214285D02*
X103124819Y-61976190D01*
X103124819Y-61976190D02*
X103172438Y-61880952D01*
X103172438Y-61880952D02*
X103220057Y-61833333D01*
X103220057Y-61833333D02*
X103315295Y-61785714D01*
X103315295Y-61785714D02*
X103410533Y-61785714D01*
X103410533Y-61785714D02*
X103553390Y-61833333D01*
X103553390Y-61833333D02*
X104124819Y-62404761D01*
X104124819Y-62404761D02*
X104124819Y-61785714D01*
X103124819Y-61166666D02*
X103124819Y-61071428D01*
X103124819Y-61071428D02*
X103172438Y-60976190D01*
X103172438Y-60976190D02*
X103220057Y-60928571D01*
X103220057Y-60928571D02*
X103315295Y-60880952D01*
X103315295Y-60880952D02*
X103505771Y-60833333D01*
X103505771Y-60833333D02*
X103743866Y-60833333D01*
X103743866Y-60833333D02*
X103934342Y-60880952D01*
X103934342Y-60880952D02*
X104029580Y-60928571D01*
X104029580Y-60928571D02*
X104077200Y-60976190D01*
X104077200Y-60976190D02*
X104124819Y-61071428D01*
X104124819Y-61071428D02*
X104124819Y-61166666D01*
X104124819Y-61166666D02*
X104077200Y-61261904D01*
X104077200Y-61261904D02*
X104029580Y-61309523D01*
X104029580Y-61309523D02*
X103934342Y-61357142D01*
X103934342Y-61357142D02*
X103743866Y-61404761D01*
X103743866Y-61404761D02*
X103505771Y-61404761D01*
X103505771Y-61404761D02*
X103315295Y-61357142D01*
X103315295Y-61357142D02*
X103220057Y-61309523D01*
X103220057Y-61309523D02*
X103172438Y-61261904D01*
X103172438Y-61261904D02*
X103124819Y-61166666D01*
X104124819Y-60499999D02*
X103458152Y-59976190D01*
X103458152Y-60499999D02*
X104124819Y-59976190D01*
X104124819Y-59071428D02*
X104124819Y-59642856D01*
X104124819Y-59357142D02*
X103124819Y-59357142D01*
X103124819Y-59357142D02*
X103267676Y-59452380D01*
X103267676Y-59452380D02*
X103362914Y-59547618D01*
X103362914Y-59547618D02*
X103410533Y-59642856D01*
X62802200Y-84833332D02*
X62849819Y-84690475D01*
X62849819Y-84690475D02*
X62849819Y-84452380D01*
X62849819Y-84452380D02*
X62802200Y-84357142D01*
X62802200Y-84357142D02*
X62754580Y-84309523D01*
X62754580Y-84309523D02*
X62659342Y-84261904D01*
X62659342Y-84261904D02*
X62564104Y-84261904D01*
X62564104Y-84261904D02*
X62468866Y-84309523D01*
X62468866Y-84309523D02*
X62421247Y-84357142D01*
X62421247Y-84357142D02*
X62373628Y-84452380D01*
X62373628Y-84452380D02*
X62326009Y-84642856D01*
X62326009Y-84642856D02*
X62278390Y-84738094D01*
X62278390Y-84738094D02*
X62230771Y-84785713D01*
X62230771Y-84785713D02*
X62135533Y-84833332D01*
X62135533Y-84833332D02*
X62040295Y-84833332D01*
X62040295Y-84833332D02*
X61945057Y-84785713D01*
X61945057Y-84785713D02*
X61897438Y-84738094D01*
X61897438Y-84738094D02*
X61849819Y-84642856D01*
X61849819Y-84642856D02*
X61849819Y-84404761D01*
X61849819Y-84404761D02*
X61897438Y-84261904D01*
X61849819Y-83928570D02*
X62849819Y-83690475D01*
X62849819Y-83690475D02*
X62135533Y-83499999D01*
X62135533Y-83499999D02*
X62849819Y-83309523D01*
X62849819Y-83309523D02*
X61849819Y-83071428D01*
X62183152Y-82261904D02*
X62849819Y-82261904D01*
X61802200Y-82499999D02*
X62516485Y-82738094D01*
X62516485Y-82738094D02*
X62516485Y-82119047D01*
X63037200Y-79833332D02*
X63084819Y-79690475D01*
X63084819Y-79690475D02*
X63084819Y-79452380D01*
X63084819Y-79452380D02*
X63037200Y-79357142D01*
X63037200Y-79357142D02*
X62989580Y-79309523D01*
X62989580Y-79309523D02*
X62894342Y-79261904D01*
X62894342Y-79261904D02*
X62799104Y-79261904D01*
X62799104Y-79261904D02*
X62703866Y-79309523D01*
X62703866Y-79309523D02*
X62656247Y-79357142D01*
X62656247Y-79357142D02*
X62608628Y-79452380D01*
X62608628Y-79452380D02*
X62561009Y-79642856D01*
X62561009Y-79642856D02*
X62513390Y-79738094D01*
X62513390Y-79738094D02*
X62465771Y-79785713D01*
X62465771Y-79785713D02*
X62370533Y-79833332D01*
X62370533Y-79833332D02*
X62275295Y-79833332D01*
X62275295Y-79833332D02*
X62180057Y-79785713D01*
X62180057Y-79785713D02*
X62132438Y-79738094D01*
X62132438Y-79738094D02*
X62084819Y-79642856D01*
X62084819Y-79642856D02*
X62084819Y-79404761D01*
X62084819Y-79404761D02*
X62132438Y-79261904D01*
X62084819Y-78928570D02*
X63084819Y-78690475D01*
X63084819Y-78690475D02*
X62370533Y-78499999D01*
X62370533Y-78499999D02*
X63084819Y-78309523D01*
X63084819Y-78309523D02*
X62084819Y-78071428D01*
X63084819Y-77166666D02*
X63084819Y-77738094D01*
X63084819Y-77452380D02*
X62084819Y-77452380D01*
X62084819Y-77452380D02*
X62227676Y-77547618D01*
X62227676Y-77547618D02*
X62322914Y-77642856D01*
X62322914Y-77642856D02*
X62370533Y-77738094D01*
X59450057Y-61365238D02*
X59402438Y-61460476D01*
X59402438Y-61460476D02*
X59307200Y-61555714D01*
X59307200Y-61555714D02*
X59164342Y-61698571D01*
X59164342Y-61698571D02*
X59116723Y-61793809D01*
X59116723Y-61793809D02*
X59116723Y-61889047D01*
X59354819Y-61841428D02*
X59307200Y-61936666D01*
X59307200Y-61936666D02*
X59211961Y-62031904D01*
X59211961Y-62031904D02*
X59021485Y-62079523D01*
X59021485Y-62079523D02*
X58688152Y-62079523D01*
X58688152Y-62079523D02*
X58497676Y-62031904D01*
X58497676Y-62031904D02*
X58402438Y-61936666D01*
X58402438Y-61936666D02*
X58354819Y-61841428D01*
X58354819Y-61841428D02*
X58354819Y-61650952D01*
X58354819Y-61650952D02*
X58402438Y-61555714D01*
X58402438Y-61555714D02*
X58497676Y-61460476D01*
X58497676Y-61460476D02*
X58688152Y-61412857D01*
X58688152Y-61412857D02*
X59021485Y-61412857D01*
X59021485Y-61412857D02*
X59211961Y-61460476D01*
X59211961Y-61460476D02*
X59307200Y-61555714D01*
X59307200Y-61555714D02*
X59354819Y-61650952D01*
X59354819Y-61650952D02*
X59354819Y-61841428D01*
X58354819Y-60555714D02*
X58354819Y-60746190D01*
X58354819Y-60746190D02*
X58402438Y-60841428D01*
X58402438Y-60841428D02*
X58450057Y-60889047D01*
X58450057Y-60889047D02*
X58592914Y-60984285D01*
X58592914Y-60984285D02*
X58783390Y-61031904D01*
X58783390Y-61031904D02*
X59164342Y-61031904D01*
X59164342Y-61031904D02*
X59259580Y-60984285D01*
X59259580Y-60984285D02*
X59307200Y-60936666D01*
X59307200Y-60936666D02*
X59354819Y-60841428D01*
X59354819Y-60841428D02*
X59354819Y-60650952D01*
X59354819Y-60650952D02*
X59307200Y-60555714D01*
X59307200Y-60555714D02*
X59259580Y-60508095D01*
X59259580Y-60508095D02*
X59164342Y-60460476D01*
X59164342Y-60460476D02*
X58926247Y-60460476D01*
X58926247Y-60460476D02*
X58831009Y-60508095D01*
X58831009Y-60508095D02*
X58783390Y-60555714D01*
X58783390Y-60555714D02*
X58735771Y-60650952D01*
X58735771Y-60650952D02*
X58735771Y-60841428D01*
X58735771Y-60841428D02*
X58783390Y-60936666D01*
X58783390Y-60936666D02*
X58831009Y-60984285D01*
X58831009Y-60984285D02*
X58926247Y-61031904D01*
X60584819Y-52166666D02*
X60108628Y-52499999D01*
X60584819Y-52738094D02*
X59584819Y-52738094D01*
X59584819Y-52738094D02*
X59584819Y-52357142D01*
X59584819Y-52357142D02*
X59632438Y-52261904D01*
X59632438Y-52261904D02*
X59680057Y-52214285D01*
X59680057Y-52214285D02*
X59775295Y-52166666D01*
X59775295Y-52166666D02*
X59918152Y-52166666D01*
X59918152Y-52166666D02*
X60013390Y-52214285D01*
X60013390Y-52214285D02*
X60061009Y-52261904D01*
X60061009Y-52261904D02*
X60108628Y-52357142D01*
X60108628Y-52357142D02*
X60108628Y-52738094D01*
X59680057Y-51785713D02*
X59632438Y-51738094D01*
X59632438Y-51738094D02*
X59584819Y-51642856D01*
X59584819Y-51642856D02*
X59584819Y-51404761D01*
X59584819Y-51404761D02*
X59632438Y-51309523D01*
X59632438Y-51309523D02*
X59680057Y-51261904D01*
X59680057Y-51261904D02*
X59775295Y-51214285D01*
X59775295Y-51214285D02*
X59870533Y-51214285D01*
X59870533Y-51214285D02*
X60013390Y-51261904D01*
X60013390Y-51261904D02*
X60584819Y-51833332D01*
X60584819Y-51833332D02*
X60584819Y-51214285D01*
X27184819Y-75436666D02*
X26708628Y-75769999D01*
X27184819Y-76008094D02*
X26184819Y-76008094D01*
X26184819Y-76008094D02*
X26184819Y-75627142D01*
X26184819Y-75627142D02*
X26232438Y-75531904D01*
X26232438Y-75531904D02*
X26280057Y-75484285D01*
X26280057Y-75484285D02*
X26375295Y-75436666D01*
X26375295Y-75436666D02*
X26518152Y-75436666D01*
X26518152Y-75436666D02*
X26613390Y-75484285D01*
X26613390Y-75484285D02*
X26661009Y-75531904D01*
X26661009Y-75531904D02*
X26708628Y-75627142D01*
X26708628Y-75627142D02*
X26708628Y-76008094D01*
X26232438Y-74484285D02*
X26184819Y-74579523D01*
X26184819Y-74579523D02*
X26184819Y-74722380D01*
X26184819Y-74722380D02*
X26232438Y-74865237D01*
X26232438Y-74865237D02*
X26327676Y-74960475D01*
X26327676Y-74960475D02*
X26422914Y-75008094D01*
X26422914Y-75008094D02*
X26613390Y-75055713D01*
X26613390Y-75055713D02*
X26756247Y-75055713D01*
X26756247Y-75055713D02*
X26946723Y-75008094D01*
X26946723Y-75008094D02*
X27041961Y-74960475D01*
X27041961Y-74960475D02*
X27137200Y-74865237D01*
X27137200Y-74865237D02*
X27184819Y-74722380D01*
X27184819Y-74722380D02*
X27184819Y-74627142D01*
X27184819Y-74627142D02*
X27137200Y-74484285D01*
X27137200Y-74484285D02*
X27089580Y-74436666D01*
X27089580Y-74436666D02*
X26756247Y-74436666D01*
X26756247Y-74436666D02*
X26756247Y-74627142D01*
X26661009Y-73674761D02*
X26708628Y-73531904D01*
X26708628Y-73531904D02*
X26756247Y-73484285D01*
X26756247Y-73484285D02*
X26851485Y-73436666D01*
X26851485Y-73436666D02*
X26994342Y-73436666D01*
X26994342Y-73436666D02*
X27089580Y-73484285D01*
X27089580Y-73484285D02*
X27137200Y-73531904D01*
X27137200Y-73531904D02*
X27184819Y-73627142D01*
X27184819Y-73627142D02*
X27184819Y-74008094D01*
X27184819Y-74008094D02*
X26184819Y-74008094D01*
X26184819Y-74008094D02*
X26184819Y-73674761D01*
X26184819Y-73674761D02*
X26232438Y-73579523D01*
X26232438Y-73579523D02*
X26280057Y-73531904D01*
X26280057Y-73531904D02*
X26375295Y-73484285D01*
X26375295Y-73484285D02*
X26470533Y-73484285D01*
X26470533Y-73484285D02*
X26565771Y-73531904D01*
X26565771Y-73531904D02*
X26613390Y-73579523D01*
X26613390Y-73579523D02*
X26661009Y-73674761D01*
X26661009Y-73674761D02*
X26661009Y-74008094D01*
X26184819Y-73103332D02*
X26184819Y-72484285D01*
X26184819Y-72484285D02*
X26565771Y-72817618D01*
X26565771Y-72817618D02*
X26565771Y-72674761D01*
X26565771Y-72674761D02*
X26613390Y-72579523D01*
X26613390Y-72579523D02*
X26661009Y-72531904D01*
X26661009Y-72531904D02*
X26756247Y-72484285D01*
X26756247Y-72484285D02*
X26994342Y-72484285D01*
X26994342Y-72484285D02*
X27089580Y-72531904D01*
X27089580Y-72531904D02*
X27137200Y-72579523D01*
X27137200Y-72579523D02*
X27184819Y-72674761D01*
X27184819Y-72674761D02*
X27184819Y-72960475D01*
X27184819Y-72960475D02*
X27137200Y-73055713D01*
X27137200Y-73055713D02*
X27089580Y-73103332D01*
X65084819Y-49666666D02*
X64608628Y-49999999D01*
X65084819Y-50238094D02*
X64084819Y-50238094D01*
X64084819Y-50238094D02*
X64084819Y-49857142D01*
X64084819Y-49857142D02*
X64132438Y-49761904D01*
X64132438Y-49761904D02*
X64180057Y-49714285D01*
X64180057Y-49714285D02*
X64275295Y-49666666D01*
X64275295Y-49666666D02*
X64418152Y-49666666D01*
X64418152Y-49666666D02*
X64513390Y-49714285D01*
X64513390Y-49714285D02*
X64561009Y-49761904D01*
X64561009Y-49761904D02*
X64608628Y-49857142D01*
X64608628Y-49857142D02*
X64608628Y-50238094D01*
X65084819Y-48714285D02*
X65084819Y-49285713D01*
X65084819Y-48999999D02*
X64084819Y-48999999D01*
X64084819Y-48999999D02*
X64227676Y-49095237D01*
X64227676Y-49095237D02*
X64322914Y-49190475D01*
X64322914Y-49190475D02*
X64370533Y-49285713D01*
X111059819Y-57642857D02*
X110583628Y-57976190D01*
X111059819Y-58214285D02*
X110059819Y-58214285D01*
X110059819Y-58214285D02*
X110059819Y-57833333D01*
X110059819Y-57833333D02*
X110107438Y-57738095D01*
X110107438Y-57738095D02*
X110155057Y-57690476D01*
X110155057Y-57690476D02*
X110250295Y-57642857D01*
X110250295Y-57642857D02*
X110393152Y-57642857D01*
X110393152Y-57642857D02*
X110488390Y-57690476D01*
X110488390Y-57690476D02*
X110536009Y-57738095D01*
X110536009Y-57738095D02*
X110583628Y-57833333D01*
X110583628Y-57833333D02*
X110583628Y-58214285D01*
X110155057Y-57261904D02*
X110107438Y-57214285D01*
X110107438Y-57214285D02*
X110059819Y-57119047D01*
X110059819Y-57119047D02*
X110059819Y-56880952D01*
X110059819Y-56880952D02*
X110107438Y-56785714D01*
X110107438Y-56785714D02*
X110155057Y-56738095D01*
X110155057Y-56738095D02*
X110250295Y-56690476D01*
X110250295Y-56690476D02*
X110345533Y-56690476D01*
X110345533Y-56690476D02*
X110488390Y-56738095D01*
X110488390Y-56738095D02*
X111059819Y-57309523D01*
X111059819Y-57309523D02*
X111059819Y-56690476D01*
X110059819Y-56357142D02*
X110059819Y-55738095D01*
X110059819Y-55738095D02*
X110440771Y-56071428D01*
X110440771Y-56071428D02*
X110440771Y-55928571D01*
X110440771Y-55928571D02*
X110488390Y-55833333D01*
X110488390Y-55833333D02*
X110536009Y-55785714D01*
X110536009Y-55785714D02*
X110631247Y-55738095D01*
X110631247Y-55738095D02*
X110869342Y-55738095D01*
X110869342Y-55738095D02*
X110964580Y-55785714D01*
X110964580Y-55785714D02*
X111012200Y-55833333D01*
X111012200Y-55833333D02*
X111059819Y-55928571D01*
X111059819Y-55928571D02*
X111059819Y-56214285D01*
X111059819Y-56214285D02*
X111012200Y-56309523D01*
X111012200Y-56309523D02*
X110964580Y-56357142D01*
X113824819Y-77571428D02*
X113348628Y-77904761D01*
X113824819Y-78142856D02*
X112824819Y-78142856D01*
X112824819Y-78142856D02*
X112824819Y-77761904D01*
X112824819Y-77761904D02*
X112872438Y-77666666D01*
X112872438Y-77666666D02*
X112920057Y-77619047D01*
X112920057Y-77619047D02*
X113015295Y-77571428D01*
X113015295Y-77571428D02*
X113158152Y-77571428D01*
X113158152Y-77571428D02*
X113253390Y-77619047D01*
X113253390Y-77619047D02*
X113301009Y-77666666D01*
X113301009Y-77666666D02*
X113348628Y-77761904D01*
X113348628Y-77761904D02*
X113348628Y-78142856D01*
X112824819Y-77285713D02*
X113824819Y-76952380D01*
X113824819Y-76952380D02*
X112824819Y-76619047D01*
X112824819Y-76380951D02*
X112824819Y-75761904D01*
X112824819Y-75761904D02*
X113205771Y-76095237D01*
X113205771Y-76095237D02*
X113205771Y-75952380D01*
X113205771Y-75952380D02*
X113253390Y-75857142D01*
X113253390Y-75857142D02*
X113301009Y-75809523D01*
X113301009Y-75809523D02*
X113396247Y-75761904D01*
X113396247Y-75761904D02*
X113634342Y-75761904D01*
X113634342Y-75761904D02*
X113729580Y-75809523D01*
X113729580Y-75809523D02*
X113777200Y-75857142D01*
X113777200Y-75857142D02*
X113824819Y-75952380D01*
X113824819Y-75952380D02*
X113824819Y-76238094D01*
X113824819Y-76238094D02*
X113777200Y-76333332D01*
X113777200Y-76333332D02*
X113729580Y-76380951D01*
X113824819Y-74761904D02*
X113348628Y-75095237D01*
X113824819Y-75333332D02*
X112824819Y-75333332D01*
X112824819Y-75333332D02*
X112824819Y-74952380D01*
X112824819Y-74952380D02*
X112872438Y-74857142D01*
X112872438Y-74857142D02*
X112920057Y-74809523D01*
X112920057Y-74809523D02*
X113015295Y-74761904D01*
X113015295Y-74761904D02*
X113158152Y-74761904D01*
X113158152Y-74761904D02*
X113253390Y-74809523D01*
X113253390Y-74809523D02*
X113301009Y-74857142D01*
X113301009Y-74857142D02*
X113348628Y-74952380D01*
X113348628Y-74952380D02*
X113348628Y-75333332D01*
X113824819Y-73809523D02*
X113824819Y-74380951D01*
X113824819Y-74095237D02*
X112824819Y-74095237D01*
X112824819Y-74095237D02*
X112967676Y-74190475D01*
X112967676Y-74190475D02*
X113062914Y-74285713D01*
X113062914Y-74285713D02*
X113110533Y-74380951D01*
X59450057Y-69365238D02*
X59402438Y-69460476D01*
X59402438Y-69460476D02*
X59307200Y-69555714D01*
X59307200Y-69555714D02*
X59164342Y-69698571D01*
X59164342Y-69698571D02*
X59116723Y-69793809D01*
X59116723Y-69793809D02*
X59116723Y-69889047D01*
X59354819Y-69841428D02*
X59307200Y-69936666D01*
X59307200Y-69936666D02*
X59211961Y-70031904D01*
X59211961Y-70031904D02*
X59021485Y-70079523D01*
X59021485Y-70079523D02*
X58688152Y-70079523D01*
X58688152Y-70079523D02*
X58497676Y-70031904D01*
X58497676Y-70031904D02*
X58402438Y-69936666D01*
X58402438Y-69936666D02*
X58354819Y-69841428D01*
X58354819Y-69841428D02*
X58354819Y-69650952D01*
X58354819Y-69650952D02*
X58402438Y-69555714D01*
X58402438Y-69555714D02*
X58497676Y-69460476D01*
X58497676Y-69460476D02*
X58688152Y-69412857D01*
X58688152Y-69412857D02*
X59021485Y-69412857D01*
X59021485Y-69412857D02*
X59211961Y-69460476D01*
X59211961Y-69460476D02*
X59307200Y-69555714D01*
X59307200Y-69555714D02*
X59354819Y-69650952D01*
X59354819Y-69650952D02*
X59354819Y-69841428D01*
X58354819Y-69079523D02*
X58354819Y-68412857D01*
X58354819Y-68412857D02*
X59354819Y-68841428D01*
X60090057Y-37595238D02*
X60042438Y-37690476D01*
X60042438Y-37690476D02*
X59947200Y-37785714D01*
X59947200Y-37785714D02*
X59804342Y-37928571D01*
X59804342Y-37928571D02*
X59756723Y-38023809D01*
X59756723Y-38023809D02*
X59756723Y-38119047D01*
X59994819Y-38071428D02*
X59947200Y-38166666D01*
X59947200Y-38166666D02*
X59851961Y-38261904D01*
X59851961Y-38261904D02*
X59661485Y-38309523D01*
X59661485Y-38309523D02*
X59328152Y-38309523D01*
X59328152Y-38309523D02*
X59137676Y-38261904D01*
X59137676Y-38261904D02*
X59042438Y-38166666D01*
X59042438Y-38166666D02*
X58994819Y-38071428D01*
X58994819Y-38071428D02*
X58994819Y-37880952D01*
X58994819Y-37880952D02*
X59042438Y-37785714D01*
X59042438Y-37785714D02*
X59137676Y-37690476D01*
X59137676Y-37690476D02*
X59328152Y-37642857D01*
X59328152Y-37642857D02*
X59661485Y-37642857D01*
X59661485Y-37642857D02*
X59851961Y-37690476D01*
X59851961Y-37690476D02*
X59947200Y-37785714D01*
X59947200Y-37785714D02*
X59994819Y-37880952D01*
X59994819Y-37880952D02*
X59994819Y-38071428D01*
X59994819Y-36690476D02*
X59994819Y-37261904D01*
X59994819Y-36976190D02*
X58994819Y-36976190D01*
X58994819Y-36976190D02*
X59137676Y-37071428D01*
X59137676Y-37071428D02*
X59232914Y-37166666D01*
X59232914Y-37166666D02*
X59280533Y-37261904D01*
X28454819Y-46416666D02*
X27978628Y-46749999D01*
X28454819Y-46988094D02*
X27454819Y-46988094D01*
X27454819Y-46988094D02*
X27454819Y-46607142D01*
X27454819Y-46607142D02*
X27502438Y-46511904D01*
X27502438Y-46511904D02*
X27550057Y-46464285D01*
X27550057Y-46464285D02*
X27645295Y-46416666D01*
X27645295Y-46416666D02*
X27788152Y-46416666D01*
X27788152Y-46416666D02*
X27883390Y-46464285D01*
X27883390Y-46464285D02*
X27931009Y-46511904D01*
X27931009Y-46511904D02*
X27978628Y-46607142D01*
X27978628Y-46607142D02*
X27978628Y-46988094D01*
X27502438Y-45464285D02*
X27454819Y-45559523D01*
X27454819Y-45559523D02*
X27454819Y-45702380D01*
X27454819Y-45702380D02*
X27502438Y-45845237D01*
X27502438Y-45845237D02*
X27597676Y-45940475D01*
X27597676Y-45940475D02*
X27692914Y-45988094D01*
X27692914Y-45988094D02*
X27883390Y-46035713D01*
X27883390Y-46035713D02*
X28026247Y-46035713D01*
X28026247Y-46035713D02*
X28216723Y-45988094D01*
X28216723Y-45988094D02*
X28311961Y-45940475D01*
X28311961Y-45940475D02*
X28407200Y-45845237D01*
X28407200Y-45845237D02*
X28454819Y-45702380D01*
X28454819Y-45702380D02*
X28454819Y-45607142D01*
X28454819Y-45607142D02*
X28407200Y-45464285D01*
X28407200Y-45464285D02*
X28359580Y-45416666D01*
X28359580Y-45416666D02*
X28026247Y-45416666D01*
X28026247Y-45416666D02*
X28026247Y-45607142D01*
X27931009Y-44654761D02*
X27978628Y-44511904D01*
X27978628Y-44511904D02*
X28026247Y-44464285D01*
X28026247Y-44464285D02*
X28121485Y-44416666D01*
X28121485Y-44416666D02*
X28264342Y-44416666D01*
X28264342Y-44416666D02*
X28359580Y-44464285D01*
X28359580Y-44464285D02*
X28407200Y-44511904D01*
X28407200Y-44511904D02*
X28454819Y-44607142D01*
X28454819Y-44607142D02*
X28454819Y-44988094D01*
X28454819Y-44988094D02*
X27454819Y-44988094D01*
X27454819Y-44988094D02*
X27454819Y-44654761D01*
X27454819Y-44654761D02*
X27502438Y-44559523D01*
X27502438Y-44559523D02*
X27550057Y-44511904D01*
X27550057Y-44511904D02*
X27645295Y-44464285D01*
X27645295Y-44464285D02*
X27740533Y-44464285D01*
X27740533Y-44464285D02*
X27835771Y-44511904D01*
X27835771Y-44511904D02*
X27883390Y-44559523D01*
X27883390Y-44559523D02*
X27931009Y-44654761D01*
X27931009Y-44654761D02*
X27931009Y-44988094D01*
X27550057Y-44035713D02*
X27502438Y-43988094D01*
X27502438Y-43988094D02*
X27454819Y-43892856D01*
X27454819Y-43892856D02*
X27454819Y-43654761D01*
X27454819Y-43654761D02*
X27502438Y-43559523D01*
X27502438Y-43559523D02*
X27550057Y-43511904D01*
X27550057Y-43511904D02*
X27645295Y-43464285D01*
X27645295Y-43464285D02*
X27740533Y-43464285D01*
X27740533Y-43464285D02*
X27883390Y-43511904D01*
X27883390Y-43511904D02*
X28454819Y-44083332D01*
X28454819Y-44083332D02*
X28454819Y-43464285D01*
X63824819Y-71142857D02*
X63348628Y-71476190D01*
X63824819Y-71714285D02*
X62824819Y-71714285D01*
X62824819Y-71714285D02*
X62824819Y-71333333D01*
X62824819Y-71333333D02*
X62872438Y-71238095D01*
X62872438Y-71238095D02*
X62920057Y-71190476D01*
X62920057Y-71190476D02*
X63015295Y-71142857D01*
X63015295Y-71142857D02*
X63158152Y-71142857D01*
X63158152Y-71142857D02*
X63253390Y-71190476D01*
X63253390Y-71190476D02*
X63301009Y-71238095D01*
X63301009Y-71238095D02*
X63348628Y-71333333D01*
X63348628Y-71333333D02*
X63348628Y-71714285D01*
X63824819Y-70190476D02*
X63824819Y-70761904D01*
X63824819Y-70476190D02*
X62824819Y-70476190D01*
X62824819Y-70476190D02*
X62967676Y-70571428D01*
X62967676Y-70571428D02*
X63062914Y-70666666D01*
X63062914Y-70666666D02*
X63110533Y-70761904D01*
X63824819Y-69238095D02*
X63824819Y-69809523D01*
X63824819Y-69523809D02*
X62824819Y-69523809D01*
X62824819Y-69523809D02*
X62967676Y-69619047D01*
X62967676Y-69619047D02*
X63062914Y-69714285D01*
X63062914Y-69714285D02*
X63110533Y-69809523D01*
X113809819Y-73071428D02*
X113333628Y-73404761D01*
X113809819Y-73642856D02*
X112809819Y-73642856D01*
X112809819Y-73642856D02*
X112809819Y-73261904D01*
X112809819Y-73261904D02*
X112857438Y-73166666D01*
X112857438Y-73166666D02*
X112905057Y-73119047D01*
X112905057Y-73119047D02*
X113000295Y-73071428D01*
X113000295Y-73071428D02*
X113143152Y-73071428D01*
X113143152Y-73071428D02*
X113238390Y-73119047D01*
X113238390Y-73119047D02*
X113286009Y-73166666D01*
X113286009Y-73166666D02*
X113333628Y-73261904D01*
X113333628Y-73261904D02*
X113333628Y-73642856D01*
X112809819Y-72785713D02*
X113809819Y-72452380D01*
X113809819Y-72452380D02*
X112809819Y-72119047D01*
X112809819Y-71880951D02*
X112809819Y-71261904D01*
X112809819Y-71261904D02*
X113190771Y-71595237D01*
X113190771Y-71595237D02*
X113190771Y-71452380D01*
X113190771Y-71452380D02*
X113238390Y-71357142D01*
X113238390Y-71357142D02*
X113286009Y-71309523D01*
X113286009Y-71309523D02*
X113381247Y-71261904D01*
X113381247Y-71261904D02*
X113619342Y-71261904D01*
X113619342Y-71261904D02*
X113714580Y-71309523D01*
X113714580Y-71309523D02*
X113762200Y-71357142D01*
X113762200Y-71357142D02*
X113809819Y-71452380D01*
X113809819Y-71452380D02*
X113809819Y-71738094D01*
X113809819Y-71738094D02*
X113762200Y-71833332D01*
X113762200Y-71833332D02*
X113714580Y-71880951D01*
X112857438Y-70309523D02*
X112809819Y-70404761D01*
X112809819Y-70404761D02*
X112809819Y-70547618D01*
X112809819Y-70547618D02*
X112857438Y-70690475D01*
X112857438Y-70690475D02*
X112952676Y-70785713D01*
X112952676Y-70785713D02*
X113047914Y-70833332D01*
X113047914Y-70833332D02*
X113238390Y-70880951D01*
X113238390Y-70880951D02*
X113381247Y-70880951D01*
X113381247Y-70880951D02*
X113571723Y-70833332D01*
X113571723Y-70833332D02*
X113666961Y-70785713D01*
X113666961Y-70785713D02*
X113762200Y-70690475D01*
X113762200Y-70690475D02*
X113809819Y-70547618D01*
X113809819Y-70547618D02*
X113809819Y-70452380D01*
X113809819Y-70452380D02*
X113762200Y-70309523D01*
X113762200Y-70309523D02*
X113714580Y-70261904D01*
X113714580Y-70261904D02*
X113381247Y-70261904D01*
X113381247Y-70261904D02*
X113381247Y-70452380D01*
X113809819Y-69309523D02*
X113809819Y-69880951D01*
X113809819Y-69595237D02*
X112809819Y-69595237D01*
X112809819Y-69595237D02*
X112952676Y-69690475D01*
X112952676Y-69690475D02*
X113047914Y-69785713D01*
X113047914Y-69785713D02*
X113095533Y-69880951D01*
X42717142Y-69814819D02*
X42383809Y-69338628D01*
X42145714Y-69814819D02*
X42145714Y-68814819D01*
X42145714Y-68814819D02*
X42526666Y-68814819D01*
X42526666Y-68814819D02*
X42621904Y-68862438D01*
X42621904Y-68862438D02*
X42669523Y-68910057D01*
X42669523Y-68910057D02*
X42717142Y-69005295D01*
X42717142Y-69005295D02*
X42717142Y-69148152D01*
X42717142Y-69148152D02*
X42669523Y-69243390D01*
X42669523Y-69243390D02*
X42621904Y-69291009D01*
X42621904Y-69291009D02*
X42526666Y-69338628D01*
X42526666Y-69338628D02*
X42145714Y-69338628D01*
X43669523Y-69814819D02*
X43098095Y-69814819D01*
X43383809Y-69814819D02*
X43383809Y-68814819D01*
X43383809Y-68814819D02*
X43288571Y-68957676D01*
X43288571Y-68957676D02*
X43193333Y-69052914D01*
X43193333Y-69052914D02*
X43098095Y-69100533D01*
X44002857Y-68814819D02*
X44621904Y-68814819D01*
X44621904Y-68814819D02*
X44288571Y-69195771D01*
X44288571Y-69195771D02*
X44431428Y-69195771D01*
X44431428Y-69195771D02*
X44526666Y-69243390D01*
X44526666Y-69243390D02*
X44574285Y-69291009D01*
X44574285Y-69291009D02*
X44621904Y-69386247D01*
X44621904Y-69386247D02*
X44621904Y-69624342D01*
X44621904Y-69624342D02*
X44574285Y-69719580D01*
X44574285Y-69719580D02*
X44526666Y-69767200D01*
X44526666Y-69767200D02*
X44431428Y-69814819D01*
X44431428Y-69814819D02*
X44145714Y-69814819D01*
X44145714Y-69814819D02*
X44050476Y-69767200D01*
X44050476Y-69767200D02*
X44002857Y-69719580D01*
X96857142Y-106324819D02*
X96523809Y-105848628D01*
X96285714Y-106324819D02*
X96285714Y-105324819D01*
X96285714Y-105324819D02*
X96666666Y-105324819D01*
X96666666Y-105324819D02*
X96761904Y-105372438D01*
X96761904Y-105372438D02*
X96809523Y-105420057D01*
X96809523Y-105420057D02*
X96857142Y-105515295D01*
X96857142Y-105515295D02*
X96857142Y-105658152D01*
X96857142Y-105658152D02*
X96809523Y-105753390D01*
X96809523Y-105753390D02*
X96761904Y-105801009D01*
X96761904Y-105801009D02*
X96666666Y-105848628D01*
X96666666Y-105848628D02*
X96285714Y-105848628D01*
X97809523Y-106324819D02*
X97238095Y-106324819D01*
X97523809Y-106324819D02*
X97523809Y-105324819D01*
X97523809Y-105324819D02*
X97428571Y-105467676D01*
X97428571Y-105467676D02*
X97333333Y-105562914D01*
X97333333Y-105562914D02*
X97238095Y-105610533D01*
X98142857Y-105324819D02*
X98809523Y-105324819D01*
X98809523Y-105324819D02*
X98380952Y-106324819D01*
X77666667Y-101512200D02*
X77809524Y-101559819D01*
X77809524Y-101559819D02*
X78047619Y-101559819D01*
X78047619Y-101559819D02*
X78142857Y-101512200D01*
X78142857Y-101512200D02*
X78190476Y-101464580D01*
X78190476Y-101464580D02*
X78238095Y-101369342D01*
X78238095Y-101369342D02*
X78238095Y-101274104D01*
X78238095Y-101274104D02*
X78190476Y-101178866D01*
X78190476Y-101178866D02*
X78142857Y-101131247D01*
X78142857Y-101131247D02*
X78047619Y-101083628D01*
X78047619Y-101083628D02*
X77857143Y-101036009D01*
X77857143Y-101036009D02*
X77761905Y-100988390D01*
X77761905Y-100988390D02*
X77714286Y-100940771D01*
X77714286Y-100940771D02*
X77666667Y-100845533D01*
X77666667Y-100845533D02*
X77666667Y-100750295D01*
X77666667Y-100750295D02*
X77714286Y-100655057D01*
X77714286Y-100655057D02*
X77761905Y-100607438D01*
X77761905Y-100607438D02*
X77857143Y-100559819D01*
X77857143Y-100559819D02*
X78095238Y-100559819D01*
X78095238Y-100559819D02*
X78238095Y-100607438D01*
X78571429Y-100559819D02*
X78809524Y-101559819D01*
X78809524Y-101559819D02*
X79000000Y-100845533D01*
X79000000Y-100845533D02*
X79190476Y-101559819D01*
X79190476Y-101559819D02*
X79428572Y-100559819D01*
X79761905Y-100655057D02*
X79809524Y-100607438D01*
X79809524Y-100607438D02*
X79904762Y-100559819D01*
X79904762Y-100559819D02*
X80142857Y-100559819D01*
X80142857Y-100559819D02*
X80238095Y-100607438D01*
X80238095Y-100607438D02*
X80285714Y-100655057D01*
X80285714Y-100655057D02*
X80333333Y-100750295D01*
X80333333Y-100750295D02*
X80333333Y-100845533D01*
X80333333Y-100845533D02*
X80285714Y-100988390D01*
X80285714Y-100988390D02*
X79714286Y-101559819D01*
X79714286Y-101559819D02*
X80333333Y-101559819D01*
X43357142Y-84824819D02*
X43023809Y-84348628D01*
X42785714Y-84824819D02*
X42785714Y-83824819D01*
X42785714Y-83824819D02*
X43166666Y-83824819D01*
X43166666Y-83824819D02*
X43261904Y-83872438D01*
X43261904Y-83872438D02*
X43309523Y-83920057D01*
X43309523Y-83920057D02*
X43357142Y-84015295D01*
X43357142Y-84015295D02*
X43357142Y-84158152D01*
X43357142Y-84158152D02*
X43309523Y-84253390D01*
X43309523Y-84253390D02*
X43261904Y-84301009D01*
X43261904Y-84301009D02*
X43166666Y-84348628D01*
X43166666Y-84348628D02*
X42785714Y-84348628D01*
X44309523Y-84824819D02*
X43738095Y-84824819D01*
X44023809Y-84824819D02*
X44023809Y-83824819D01*
X44023809Y-83824819D02*
X43928571Y-83967676D01*
X43928571Y-83967676D02*
X43833333Y-84062914D01*
X43833333Y-84062914D02*
X43738095Y-84110533D01*
X45214285Y-83824819D02*
X44738095Y-83824819D01*
X44738095Y-83824819D02*
X44690476Y-84301009D01*
X44690476Y-84301009D02*
X44738095Y-84253390D01*
X44738095Y-84253390D02*
X44833333Y-84205771D01*
X44833333Y-84205771D02*
X45071428Y-84205771D01*
X45071428Y-84205771D02*
X45166666Y-84253390D01*
X45166666Y-84253390D02*
X45214285Y-84301009D01*
X45214285Y-84301009D02*
X45261904Y-84396247D01*
X45261904Y-84396247D02*
X45261904Y-84634342D01*
X45261904Y-84634342D02*
X45214285Y-84729580D01*
X45214285Y-84729580D02*
X45166666Y-84777200D01*
X45166666Y-84777200D02*
X45071428Y-84824819D01*
X45071428Y-84824819D02*
X44833333Y-84824819D01*
X44833333Y-84824819D02*
X44738095Y-84777200D01*
X44738095Y-84777200D02*
X44690476Y-84729580D01*
X68324819Y-68142857D02*
X67848628Y-68476190D01*
X68324819Y-68714285D02*
X67324819Y-68714285D01*
X67324819Y-68714285D02*
X67324819Y-68333333D01*
X67324819Y-68333333D02*
X67372438Y-68238095D01*
X67372438Y-68238095D02*
X67420057Y-68190476D01*
X67420057Y-68190476D02*
X67515295Y-68142857D01*
X67515295Y-68142857D02*
X67658152Y-68142857D01*
X67658152Y-68142857D02*
X67753390Y-68190476D01*
X67753390Y-68190476D02*
X67801009Y-68238095D01*
X67801009Y-68238095D02*
X67848628Y-68333333D01*
X67848628Y-68333333D02*
X67848628Y-68714285D01*
X68324819Y-67190476D02*
X68324819Y-67761904D01*
X68324819Y-67476190D02*
X67324819Y-67476190D01*
X67324819Y-67476190D02*
X67467676Y-67571428D01*
X67467676Y-67571428D02*
X67562914Y-67666666D01*
X67562914Y-67666666D02*
X67610533Y-67761904D01*
X67324819Y-66571428D02*
X67324819Y-66476190D01*
X67324819Y-66476190D02*
X67372438Y-66380952D01*
X67372438Y-66380952D02*
X67420057Y-66333333D01*
X67420057Y-66333333D02*
X67515295Y-66285714D01*
X67515295Y-66285714D02*
X67705771Y-66238095D01*
X67705771Y-66238095D02*
X67943866Y-66238095D01*
X67943866Y-66238095D02*
X68134342Y-66285714D01*
X68134342Y-66285714D02*
X68229580Y-66333333D01*
X68229580Y-66333333D02*
X68277200Y-66380952D01*
X68277200Y-66380952D02*
X68324819Y-66476190D01*
X68324819Y-66476190D02*
X68324819Y-66571428D01*
X68324819Y-66571428D02*
X68277200Y-66666666D01*
X68277200Y-66666666D02*
X68229580Y-66714285D01*
X68229580Y-66714285D02*
X68134342Y-66761904D01*
X68134342Y-66761904D02*
X67943866Y-66809523D01*
X67943866Y-66809523D02*
X67705771Y-66809523D01*
X67705771Y-66809523D02*
X67515295Y-66761904D01*
X67515295Y-66761904D02*
X67420057Y-66714285D01*
X67420057Y-66714285D02*
X67372438Y-66666666D01*
X67372438Y-66666666D02*
X67324819Y-66571428D01*
X43857142Y-97584819D02*
X43523809Y-97108628D01*
X43285714Y-97584819D02*
X43285714Y-96584819D01*
X43285714Y-96584819D02*
X43666666Y-96584819D01*
X43666666Y-96584819D02*
X43761904Y-96632438D01*
X43761904Y-96632438D02*
X43809523Y-96680057D01*
X43809523Y-96680057D02*
X43857142Y-96775295D01*
X43857142Y-96775295D02*
X43857142Y-96918152D01*
X43857142Y-96918152D02*
X43809523Y-97013390D01*
X43809523Y-97013390D02*
X43761904Y-97061009D01*
X43761904Y-97061009D02*
X43666666Y-97108628D01*
X43666666Y-97108628D02*
X43285714Y-97108628D01*
X44809523Y-97584819D02*
X44238095Y-97584819D01*
X44523809Y-97584819D02*
X44523809Y-96584819D01*
X44523809Y-96584819D02*
X44428571Y-96727676D01*
X44428571Y-96727676D02*
X44333333Y-96822914D01*
X44333333Y-96822914D02*
X44238095Y-96870533D01*
X45285714Y-97584819D02*
X45476190Y-97584819D01*
X45476190Y-97584819D02*
X45571428Y-97537200D01*
X45571428Y-97537200D02*
X45619047Y-97489580D01*
X45619047Y-97489580D02*
X45714285Y-97346723D01*
X45714285Y-97346723D02*
X45761904Y-97156247D01*
X45761904Y-97156247D02*
X45761904Y-96775295D01*
X45761904Y-96775295D02*
X45714285Y-96680057D01*
X45714285Y-96680057D02*
X45666666Y-96632438D01*
X45666666Y-96632438D02*
X45571428Y-96584819D01*
X45571428Y-96584819D02*
X45380952Y-96584819D01*
X45380952Y-96584819D02*
X45285714Y-96632438D01*
X45285714Y-96632438D02*
X45238095Y-96680057D01*
X45238095Y-96680057D02*
X45190476Y-96775295D01*
X45190476Y-96775295D02*
X45190476Y-97013390D01*
X45190476Y-97013390D02*
X45238095Y-97108628D01*
X45238095Y-97108628D02*
X45285714Y-97156247D01*
X45285714Y-97156247D02*
X45380952Y-97203866D01*
X45380952Y-97203866D02*
X45571428Y-97203866D01*
X45571428Y-97203866D02*
X45666666Y-97156247D01*
X45666666Y-97156247D02*
X45714285Y-97108628D01*
X45714285Y-97108628D02*
X45761904Y-97013390D01*
X74166667Y-35302200D02*
X74309524Y-35349819D01*
X74309524Y-35349819D02*
X74547619Y-35349819D01*
X74547619Y-35349819D02*
X74642857Y-35302200D01*
X74642857Y-35302200D02*
X74690476Y-35254580D01*
X74690476Y-35254580D02*
X74738095Y-35159342D01*
X74738095Y-35159342D02*
X74738095Y-35064104D01*
X74738095Y-35064104D02*
X74690476Y-34968866D01*
X74690476Y-34968866D02*
X74642857Y-34921247D01*
X74642857Y-34921247D02*
X74547619Y-34873628D01*
X74547619Y-34873628D02*
X74357143Y-34826009D01*
X74357143Y-34826009D02*
X74261905Y-34778390D01*
X74261905Y-34778390D02*
X74214286Y-34730771D01*
X74214286Y-34730771D02*
X74166667Y-34635533D01*
X74166667Y-34635533D02*
X74166667Y-34540295D01*
X74166667Y-34540295D02*
X74214286Y-34445057D01*
X74214286Y-34445057D02*
X74261905Y-34397438D01*
X74261905Y-34397438D02*
X74357143Y-34349819D01*
X74357143Y-34349819D02*
X74595238Y-34349819D01*
X74595238Y-34349819D02*
X74738095Y-34397438D01*
X75071429Y-34349819D02*
X75309524Y-35349819D01*
X75309524Y-35349819D02*
X75500000Y-34635533D01*
X75500000Y-34635533D02*
X75690476Y-35349819D01*
X75690476Y-35349819D02*
X75928572Y-34349819D01*
X76785714Y-34349819D02*
X76309524Y-34349819D01*
X76309524Y-34349819D02*
X76261905Y-34826009D01*
X76261905Y-34826009D02*
X76309524Y-34778390D01*
X76309524Y-34778390D02*
X76404762Y-34730771D01*
X76404762Y-34730771D02*
X76642857Y-34730771D01*
X76642857Y-34730771D02*
X76738095Y-34778390D01*
X76738095Y-34778390D02*
X76785714Y-34826009D01*
X76785714Y-34826009D02*
X76833333Y-34921247D01*
X76833333Y-34921247D02*
X76833333Y-35159342D01*
X76833333Y-35159342D02*
X76785714Y-35254580D01*
X76785714Y-35254580D02*
X76738095Y-35302200D01*
X76738095Y-35302200D02*
X76642857Y-35349819D01*
X76642857Y-35349819D02*
X76404762Y-35349819D01*
X76404762Y-35349819D02*
X76309524Y-35302200D01*
X76309524Y-35302200D02*
X76261905Y-35254580D01*
X62357142Y-93584819D02*
X62023809Y-93108628D01*
X61785714Y-93584819D02*
X61785714Y-92584819D01*
X61785714Y-92584819D02*
X62166666Y-92584819D01*
X62166666Y-92584819D02*
X62261904Y-92632438D01*
X62261904Y-92632438D02*
X62309523Y-92680057D01*
X62309523Y-92680057D02*
X62357142Y-92775295D01*
X62357142Y-92775295D02*
X62357142Y-92918152D01*
X62357142Y-92918152D02*
X62309523Y-93013390D01*
X62309523Y-93013390D02*
X62261904Y-93061009D01*
X62261904Y-93061009D02*
X62166666Y-93108628D01*
X62166666Y-93108628D02*
X61785714Y-93108628D01*
X63309523Y-93584819D02*
X62738095Y-93584819D01*
X63023809Y-93584819D02*
X63023809Y-92584819D01*
X63023809Y-92584819D02*
X62928571Y-92727676D01*
X62928571Y-92727676D02*
X62833333Y-92822914D01*
X62833333Y-92822914D02*
X62738095Y-92870533D01*
X64166666Y-92584819D02*
X63976190Y-92584819D01*
X63976190Y-92584819D02*
X63880952Y-92632438D01*
X63880952Y-92632438D02*
X63833333Y-92680057D01*
X63833333Y-92680057D02*
X63738095Y-92822914D01*
X63738095Y-92822914D02*
X63690476Y-93013390D01*
X63690476Y-93013390D02*
X63690476Y-93394342D01*
X63690476Y-93394342D02*
X63738095Y-93489580D01*
X63738095Y-93489580D02*
X63785714Y-93537200D01*
X63785714Y-93537200D02*
X63880952Y-93584819D01*
X63880952Y-93584819D02*
X64071428Y-93584819D01*
X64071428Y-93584819D02*
X64166666Y-93537200D01*
X64166666Y-93537200D02*
X64214285Y-93489580D01*
X64214285Y-93489580D02*
X64261904Y-93394342D01*
X64261904Y-93394342D02*
X64261904Y-93156247D01*
X64261904Y-93156247D02*
X64214285Y-93061009D01*
X64214285Y-93061009D02*
X64166666Y-93013390D01*
X64166666Y-93013390D02*
X64071428Y-92965771D01*
X64071428Y-92965771D02*
X63880952Y-92965771D01*
X63880952Y-92965771D02*
X63785714Y-93013390D01*
X63785714Y-93013390D02*
X63738095Y-93061009D01*
X63738095Y-93061009D02*
X63690476Y-93156247D01*
X60180057Y-81095238D02*
X60132438Y-81190476D01*
X60132438Y-81190476D02*
X60037200Y-81285714D01*
X60037200Y-81285714D02*
X59894342Y-81428571D01*
X59894342Y-81428571D02*
X59846723Y-81523809D01*
X59846723Y-81523809D02*
X59846723Y-81619047D01*
X60084819Y-81571428D02*
X60037200Y-81666666D01*
X60037200Y-81666666D02*
X59941961Y-81761904D01*
X59941961Y-81761904D02*
X59751485Y-81809523D01*
X59751485Y-81809523D02*
X59418152Y-81809523D01*
X59418152Y-81809523D02*
X59227676Y-81761904D01*
X59227676Y-81761904D02*
X59132438Y-81666666D01*
X59132438Y-81666666D02*
X59084819Y-81571428D01*
X59084819Y-81571428D02*
X59084819Y-81380952D01*
X59084819Y-81380952D02*
X59132438Y-81285714D01*
X59132438Y-81285714D02*
X59227676Y-81190476D01*
X59227676Y-81190476D02*
X59418152Y-81142857D01*
X59418152Y-81142857D02*
X59751485Y-81142857D01*
X59751485Y-81142857D02*
X59941961Y-81190476D01*
X59941961Y-81190476D02*
X60037200Y-81285714D01*
X60037200Y-81285714D02*
X60084819Y-81380952D01*
X60084819Y-81380952D02*
X60084819Y-81571428D01*
X59513390Y-80571428D02*
X59465771Y-80666666D01*
X59465771Y-80666666D02*
X59418152Y-80714285D01*
X59418152Y-80714285D02*
X59322914Y-80761904D01*
X59322914Y-80761904D02*
X59275295Y-80761904D01*
X59275295Y-80761904D02*
X59180057Y-80714285D01*
X59180057Y-80714285D02*
X59132438Y-80666666D01*
X59132438Y-80666666D02*
X59084819Y-80571428D01*
X59084819Y-80571428D02*
X59084819Y-80380952D01*
X59084819Y-80380952D02*
X59132438Y-80285714D01*
X59132438Y-80285714D02*
X59180057Y-80238095D01*
X59180057Y-80238095D02*
X59275295Y-80190476D01*
X59275295Y-80190476D02*
X59322914Y-80190476D01*
X59322914Y-80190476D02*
X59418152Y-80238095D01*
X59418152Y-80238095D02*
X59465771Y-80285714D01*
X59465771Y-80285714D02*
X59513390Y-80380952D01*
X59513390Y-80380952D02*
X59513390Y-80571428D01*
X59513390Y-80571428D02*
X59561009Y-80666666D01*
X59561009Y-80666666D02*
X59608628Y-80714285D01*
X59608628Y-80714285D02*
X59703866Y-80761904D01*
X59703866Y-80761904D02*
X59894342Y-80761904D01*
X59894342Y-80761904D02*
X59989580Y-80714285D01*
X59989580Y-80714285D02*
X60037200Y-80666666D01*
X60037200Y-80666666D02*
X60084819Y-80571428D01*
X60084819Y-80571428D02*
X60084819Y-80380952D01*
X60084819Y-80380952D02*
X60037200Y-80285714D01*
X60037200Y-80285714D02*
X59989580Y-80238095D01*
X59989580Y-80238095D02*
X59894342Y-80190476D01*
X59894342Y-80190476D02*
X59703866Y-80190476D01*
X59703866Y-80190476D02*
X59608628Y-80238095D01*
X59608628Y-80238095D02*
X59561009Y-80285714D01*
X59561009Y-80285714D02*
X59513390Y-80380952D01*
X44333333Y-92584819D02*
X44000000Y-92108628D01*
X43761905Y-92584819D02*
X43761905Y-91584819D01*
X43761905Y-91584819D02*
X44142857Y-91584819D01*
X44142857Y-91584819D02*
X44238095Y-91632438D01*
X44238095Y-91632438D02*
X44285714Y-91680057D01*
X44285714Y-91680057D02*
X44333333Y-91775295D01*
X44333333Y-91775295D02*
X44333333Y-91918152D01*
X44333333Y-91918152D02*
X44285714Y-92013390D01*
X44285714Y-92013390D02*
X44238095Y-92061009D01*
X44238095Y-92061009D02*
X44142857Y-92108628D01*
X44142857Y-92108628D02*
X43761905Y-92108628D01*
X44904762Y-92013390D02*
X44809524Y-91965771D01*
X44809524Y-91965771D02*
X44761905Y-91918152D01*
X44761905Y-91918152D02*
X44714286Y-91822914D01*
X44714286Y-91822914D02*
X44714286Y-91775295D01*
X44714286Y-91775295D02*
X44761905Y-91680057D01*
X44761905Y-91680057D02*
X44809524Y-91632438D01*
X44809524Y-91632438D02*
X44904762Y-91584819D01*
X44904762Y-91584819D02*
X45095238Y-91584819D01*
X45095238Y-91584819D02*
X45190476Y-91632438D01*
X45190476Y-91632438D02*
X45238095Y-91680057D01*
X45238095Y-91680057D02*
X45285714Y-91775295D01*
X45285714Y-91775295D02*
X45285714Y-91822914D01*
X45285714Y-91822914D02*
X45238095Y-91918152D01*
X45238095Y-91918152D02*
X45190476Y-91965771D01*
X45190476Y-91965771D02*
X45095238Y-92013390D01*
X45095238Y-92013390D02*
X44904762Y-92013390D01*
X44904762Y-92013390D02*
X44809524Y-92061009D01*
X44809524Y-92061009D02*
X44761905Y-92108628D01*
X44761905Y-92108628D02*
X44714286Y-92203866D01*
X44714286Y-92203866D02*
X44714286Y-92394342D01*
X44714286Y-92394342D02*
X44761905Y-92489580D01*
X44761905Y-92489580D02*
X44809524Y-92537200D01*
X44809524Y-92537200D02*
X44904762Y-92584819D01*
X44904762Y-92584819D02*
X45095238Y-92584819D01*
X45095238Y-92584819D02*
X45190476Y-92537200D01*
X45190476Y-92537200D02*
X45238095Y-92489580D01*
X45238095Y-92489580D02*
X45285714Y-92394342D01*
X45285714Y-92394342D02*
X45285714Y-92203866D01*
X45285714Y-92203866D02*
X45238095Y-92108628D01*
X45238095Y-92108628D02*
X45190476Y-92061009D01*
X45190476Y-92061009D02*
X45095238Y-92013390D01*
X68037200Y-65333332D02*
X68084819Y-65190475D01*
X68084819Y-65190475D02*
X68084819Y-64952380D01*
X68084819Y-64952380D02*
X68037200Y-64857142D01*
X68037200Y-64857142D02*
X67989580Y-64809523D01*
X67989580Y-64809523D02*
X67894342Y-64761904D01*
X67894342Y-64761904D02*
X67799104Y-64761904D01*
X67799104Y-64761904D02*
X67703866Y-64809523D01*
X67703866Y-64809523D02*
X67656247Y-64857142D01*
X67656247Y-64857142D02*
X67608628Y-64952380D01*
X67608628Y-64952380D02*
X67561009Y-65142856D01*
X67561009Y-65142856D02*
X67513390Y-65238094D01*
X67513390Y-65238094D02*
X67465771Y-65285713D01*
X67465771Y-65285713D02*
X67370533Y-65333332D01*
X67370533Y-65333332D02*
X67275295Y-65333332D01*
X67275295Y-65333332D02*
X67180057Y-65285713D01*
X67180057Y-65285713D02*
X67132438Y-65238094D01*
X67132438Y-65238094D02*
X67084819Y-65142856D01*
X67084819Y-65142856D02*
X67084819Y-64904761D01*
X67084819Y-64904761D02*
X67132438Y-64761904D01*
X67084819Y-64428570D02*
X68084819Y-64190475D01*
X68084819Y-64190475D02*
X67370533Y-63999999D01*
X67370533Y-63999999D02*
X68084819Y-63809523D01*
X68084819Y-63809523D02*
X67084819Y-63571428D01*
X67084819Y-63285713D02*
X67084819Y-62619047D01*
X67084819Y-62619047D02*
X68084819Y-63047618D01*
X42717142Y-61814819D02*
X42383809Y-61338628D01*
X42145714Y-61814819D02*
X42145714Y-60814819D01*
X42145714Y-60814819D02*
X42526666Y-60814819D01*
X42526666Y-60814819D02*
X42621904Y-60862438D01*
X42621904Y-60862438D02*
X42669523Y-60910057D01*
X42669523Y-60910057D02*
X42717142Y-61005295D01*
X42717142Y-61005295D02*
X42717142Y-61148152D01*
X42717142Y-61148152D02*
X42669523Y-61243390D01*
X42669523Y-61243390D02*
X42621904Y-61291009D01*
X42621904Y-61291009D02*
X42526666Y-61338628D01*
X42526666Y-61338628D02*
X42145714Y-61338628D01*
X43669523Y-61814819D02*
X43098095Y-61814819D01*
X43383809Y-61814819D02*
X43383809Y-60814819D01*
X43383809Y-60814819D02*
X43288571Y-60957676D01*
X43288571Y-60957676D02*
X43193333Y-61052914D01*
X43193333Y-61052914D02*
X43098095Y-61100533D01*
X44050476Y-60910057D02*
X44098095Y-60862438D01*
X44098095Y-60862438D02*
X44193333Y-60814819D01*
X44193333Y-60814819D02*
X44431428Y-60814819D01*
X44431428Y-60814819D02*
X44526666Y-60862438D01*
X44526666Y-60862438D02*
X44574285Y-60910057D01*
X44574285Y-60910057D02*
X44621904Y-61005295D01*
X44621904Y-61005295D02*
X44621904Y-61100533D01*
X44621904Y-61100533D02*
X44574285Y-61243390D01*
X44574285Y-61243390D02*
X44002857Y-61814819D01*
X44002857Y-61814819D02*
X44621904Y-61814819D01*
X87748095Y-83964819D02*
X87748095Y-84774342D01*
X87748095Y-84774342D02*
X87795714Y-84869580D01*
X87795714Y-84869580D02*
X87843333Y-84917200D01*
X87843333Y-84917200D02*
X87938571Y-84964819D01*
X87938571Y-84964819D02*
X88129047Y-84964819D01*
X88129047Y-84964819D02*
X88224285Y-84917200D01*
X88224285Y-84917200D02*
X88271904Y-84869580D01*
X88271904Y-84869580D02*
X88319523Y-84774342D01*
X88319523Y-84774342D02*
X88319523Y-83964819D01*
X88748095Y-84917200D02*
X88890952Y-84964819D01*
X88890952Y-84964819D02*
X89129047Y-84964819D01*
X89129047Y-84964819D02*
X89224285Y-84917200D01*
X89224285Y-84917200D02*
X89271904Y-84869580D01*
X89271904Y-84869580D02*
X89319523Y-84774342D01*
X89319523Y-84774342D02*
X89319523Y-84679104D01*
X89319523Y-84679104D02*
X89271904Y-84583866D01*
X89271904Y-84583866D02*
X89224285Y-84536247D01*
X89224285Y-84536247D02*
X89129047Y-84488628D01*
X89129047Y-84488628D02*
X88938571Y-84441009D01*
X88938571Y-84441009D02*
X88843333Y-84393390D01*
X88843333Y-84393390D02*
X88795714Y-84345771D01*
X88795714Y-84345771D02*
X88748095Y-84250533D01*
X88748095Y-84250533D02*
X88748095Y-84155295D01*
X88748095Y-84155295D02*
X88795714Y-84060057D01*
X88795714Y-84060057D02*
X88843333Y-84012438D01*
X88843333Y-84012438D02*
X88938571Y-83964819D01*
X88938571Y-83964819D02*
X89176666Y-83964819D01*
X89176666Y-83964819D02*
X89319523Y-84012438D01*
X90081428Y-84441009D02*
X90224285Y-84488628D01*
X90224285Y-84488628D02*
X90271904Y-84536247D01*
X90271904Y-84536247D02*
X90319523Y-84631485D01*
X90319523Y-84631485D02*
X90319523Y-84774342D01*
X90319523Y-84774342D02*
X90271904Y-84869580D01*
X90271904Y-84869580D02*
X90224285Y-84917200D01*
X90224285Y-84917200D02*
X90129047Y-84964819D01*
X90129047Y-84964819D02*
X89748095Y-84964819D01*
X89748095Y-84964819D02*
X89748095Y-83964819D01*
X89748095Y-83964819D02*
X90081428Y-83964819D01*
X90081428Y-83964819D02*
X90176666Y-84012438D01*
X90176666Y-84012438D02*
X90224285Y-84060057D01*
X90224285Y-84060057D02*
X90271904Y-84155295D01*
X90271904Y-84155295D02*
X90271904Y-84250533D01*
X90271904Y-84250533D02*
X90224285Y-84345771D01*
X90224285Y-84345771D02*
X90176666Y-84393390D01*
X90176666Y-84393390D02*
X90081428Y-84441009D01*
X90081428Y-84441009D02*
X89748095Y-84441009D01*
X43857142Y-87584819D02*
X43523809Y-87108628D01*
X43285714Y-87584819D02*
X43285714Y-86584819D01*
X43285714Y-86584819D02*
X43666666Y-86584819D01*
X43666666Y-86584819D02*
X43761904Y-86632438D01*
X43761904Y-86632438D02*
X43809523Y-86680057D01*
X43809523Y-86680057D02*
X43857142Y-86775295D01*
X43857142Y-86775295D02*
X43857142Y-86918152D01*
X43857142Y-86918152D02*
X43809523Y-87013390D01*
X43809523Y-87013390D02*
X43761904Y-87061009D01*
X43761904Y-87061009D02*
X43666666Y-87108628D01*
X43666666Y-87108628D02*
X43285714Y-87108628D01*
X44809523Y-87584819D02*
X44238095Y-87584819D01*
X44523809Y-87584819D02*
X44523809Y-86584819D01*
X44523809Y-86584819D02*
X44428571Y-86727676D01*
X44428571Y-86727676D02*
X44333333Y-86822914D01*
X44333333Y-86822914D02*
X44238095Y-86870533D01*
X45380952Y-87013390D02*
X45285714Y-86965771D01*
X45285714Y-86965771D02*
X45238095Y-86918152D01*
X45238095Y-86918152D02*
X45190476Y-86822914D01*
X45190476Y-86822914D02*
X45190476Y-86775295D01*
X45190476Y-86775295D02*
X45238095Y-86680057D01*
X45238095Y-86680057D02*
X45285714Y-86632438D01*
X45285714Y-86632438D02*
X45380952Y-86584819D01*
X45380952Y-86584819D02*
X45571428Y-86584819D01*
X45571428Y-86584819D02*
X45666666Y-86632438D01*
X45666666Y-86632438D02*
X45714285Y-86680057D01*
X45714285Y-86680057D02*
X45761904Y-86775295D01*
X45761904Y-86775295D02*
X45761904Y-86822914D01*
X45761904Y-86822914D02*
X45714285Y-86918152D01*
X45714285Y-86918152D02*
X45666666Y-86965771D01*
X45666666Y-86965771D02*
X45571428Y-87013390D01*
X45571428Y-87013390D02*
X45380952Y-87013390D01*
X45380952Y-87013390D02*
X45285714Y-87061009D01*
X45285714Y-87061009D02*
X45238095Y-87108628D01*
X45238095Y-87108628D02*
X45190476Y-87203866D01*
X45190476Y-87203866D02*
X45190476Y-87394342D01*
X45190476Y-87394342D02*
X45238095Y-87489580D01*
X45238095Y-87489580D02*
X45285714Y-87537200D01*
X45285714Y-87537200D02*
X45380952Y-87584819D01*
X45380952Y-87584819D02*
X45571428Y-87584819D01*
X45571428Y-87584819D02*
X45666666Y-87537200D01*
X45666666Y-87537200D02*
X45714285Y-87489580D01*
X45714285Y-87489580D02*
X45761904Y-87394342D01*
X45761904Y-87394342D02*
X45761904Y-87203866D01*
X45761904Y-87203866D02*
X45714285Y-87108628D01*
X45714285Y-87108628D02*
X45666666Y-87061009D01*
X45666666Y-87061009D02*
X45571428Y-87013390D01*
X75824819Y-96666666D02*
X75348628Y-96999999D01*
X75824819Y-97238094D02*
X74824819Y-97238094D01*
X74824819Y-97238094D02*
X74824819Y-96857142D01*
X74824819Y-96857142D02*
X74872438Y-96761904D01*
X74872438Y-96761904D02*
X74920057Y-96714285D01*
X74920057Y-96714285D02*
X75015295Y-96666666D01*
X75015295Y-96666666D02*
X75158152Y-96666666D01*
X75158152Y-96666666D02*
X75253390Y-96714285D01*
X75253390Y-96714285D02*
X75301009Y-96761904D01*
X75301009Y-96761904D02*
X75348628Y-96857142D01*
X75348628Y-96857142D02*
X75348628Y-97238094D01*
X74824819Y-96333332D02*
X74824819Y-95714285D01*
X74824819Y-95714285D02*
X75205771Y-96047618D01*
X75205771Y-96047618D02*
X75205771Y-95904761D01*
X75205771Y-95904761D02*
X75253390Y-95809523D01*
X75253390Y-95809523D02*
X75301009Y-95761904D01*
X75301009Y-95761904D02*
X75396247Y-95714285D01*
X75396247Y-95714285D02*
X75634342Y-95714285D01*
X75634342Y-95714285D02*
X75729580Y-95761904D01*
X75729580Y-95761904D02*
X75777200Y-95809523D01*
X75777200Y-95809523D02*
X75824819Y-95904761D01*
X75824819Y-95904761D02*
X75824819Y-96190475D01*
X75824819Y-96190475D02*
X75777200Y-96285713D01*
X75777200Y-96285713D02*
X75729580Y-96333332D01*
X111012200Y-53333332D02*
X111059819Y-53190475D01*
X111059819Y-53190475D02*
X111059819Y-52952380D01*
X111059819Y-52952380D02*
X111012200Y-52857142D01*
X111012200Y-52857142D02*
X110964580Y-52809523D01*
X110964580Y-52809523D02*
X110869342Y-52761904D01*
X110869342Y-52761904D02*
X110774104Y-52761904D01*
X110774104Y-52761904D02*
X110678866Y-52809523D01*
X110678866Y-52809523D02*
X110631247Y-52857142D01*
X110631247Y-52857142D02*
X110583628Y-52952380D01*
X110583628Y-52952380D02*
X110536009Y-53142856D01*
X110536009Y-53142856D02*
X110488390Y-53238094D01*
X110488390Y-53238094D02*
X110440771Y-53285713D01*
X110440771Y-53285713D02*
X110345533Y-53333332D01*
X110345533Y-53333332D02*
X110250295Y-53333332D01*
X110250295Y-53333332D02*
X110155057Y-53285713D01*
X110155057Y-53285713D02*
X110107438Y-53238094D01*
X110107438Y-53238094D02*
X110059819Y-53142856D01*
X110059819Y-53142856D02*
X110059819Y-52904761D01*
X110059819Y-52904761D02*
X110107438Y-52761904D01*
X110059819Y-52428570D02*
X111059819Y-52190475D01*
X111059819Y-52190475D02*
X110345533Y-51999999D01*
X110345533Y-51999999D02*
X111059819Y-51809523D01*
X111059819Y-51809523D02*
X110059819Y-51571428D01*
X111059819Y-51142856D02*
X111059819Y-50952380D01*
X111059819Y-50952380D02*
X111012200Y-50857142D01*
X111012200Y-50857142D02*
X110964580Y-50809523D01*
X110964580Y-50809523D02*
X110821723Y-50714285D01*
X110821723Y-50714285D02*
X110631247Y-50666666D01*
X110631247Y-50666666D02*
X110250295Y-50666666D01*
X110250295Y-50666666D02*
X110155057Y-50714285D01*
X110155057Y-50714285D02*
X110107438Y-50761904D01*
X110107438Y-50761904D02*
X110059819Y-50857142D01*
X110059819Y-50857142D02*
X110059819Y-51047618D01*
X110059819Y-51047618D02*
X110107438Y-51142856D01*
X110107438Y-51142856D02*
X110155057Y-51190475D01*
X110155057Y-51190475D02*
X110250295Y-51238094D01*
X110250295Y-51238094D02*
X110488390Y-51238094D01*
X110488390Y-51238094D02*
X110583628Y-51190475D01*
X110583628Y-51190475D02*
X110631247Y-51142856D01*
X110631247Y-51142856D02*
X110678866Y-51047618D01*
X110678866Y-51047618D02*
X110678866Y-50857142D01*
X110678866Y-50857142D02*
X110631247Y-50761904D01*
X110631247Y-50761904D02*
X110583628Y-50714285D01*
X110583628Y-50714285D02*
X110488390Y-50666666D01*
X43193333Y-29814819D02*
X42860000Y-29338628D01*
X42621905Y-29814819D02*
X42621905Y-28814819D01*
X42621905Y-28814819D02*
X43002857Y-28814819D01*
X43002857Y-28814819D02*
X43098095Y-28862438D01*
X43098095Y-28862438D02*
X43145714Y-28910057D01*
X43145714Y-28910057D02*
X43193333Y-29005295D01*
X43193333Y-29005295D02*
X43193333Y-29148152D01*
X43193333Y-29148152D02*
X43145714Y-29243390D01*
X43145714Y-29243390D02*
X43098095Y-29291009D01*
X43098095Y-29291009D02*
X43002857Y-29338628D01*
X43002857Y-29338628D02*
X42621905Y-29338628D01*
X44050476Y-29148152D02*
X44050476Y-29814819D01*
X43812381Y-28767200D02*
X43574286Y-29481485D01*
X43574286Y-29481485D02*
X44193333Y-29481485D01*
X86216633Y-32024580D02*
X86169014Y-32072200D01*
X86169014Y-32072200D02*
X86026157Y-32119819D01*
X86026157Y-32119819D02*
X85930919Y-32119819D01*
X85930919Y-32119819D02*
X85788062Y-32072200D01*
X85788062Y-32072200D02*
X85692824Y-31976961D01*
X85692824Y-31976961D02*
X85645205Y-31881723D01*
X85645205Y-31881723D02*
X85597586Y-31691247D01*
X85597586Y-31691247D02*
X85597586Y-31548390D01*
X85597586Y-31548390D02*
X85645205Y-31357914D01*
X85645205Y-31357914D02*
X85692824Y-31262676D01*
X85692824Y-31262676D02*
X85788062Y-31167438D01*
X85788062Y-31167438D02*
X85930919Y-31119819D01*
X85930919Y-31119819D02*
X86026157Y-31119819D01*
X86026157Y-31119819D02*
X86169014Y-31167438D01*
X86169014Y-31167438D02*
X86216633Y-31215057D01*
X87169014Y-32119819D02*
X86597586Y-32119819D01*
X86883300Y-32119819D02*
X86883300Y-31119819D01*
X86883300Y-31119819D02*
X86788062Y-31262676D01*
X86788062Y-31262676D02*
X86692824Y-31357914D01*
X86692824Y-31357914D02*
X86597586Y-31405533D01*
X60857142Y-87584819D02*
X60523809Y-87108628D01*
X60285714Y-87584819D02*
X60285714Y-86584819D01*
X60285714Y-86584819D02*
X60666666Y-86584819D01*
X60666666Y-86584819D02*
X60761904Y-86632438D01*
X60761904Y-86632438D02*
X60809523Y-86680057D01*
X60809523Y-86680057D02*
X60857142Y-86775295D01*
X60857142Y-86775295D02*
X60857142Y-86918152D01*
X60857142Y-86918152D02*
X60809523Y-87013390D01*
X60809523Y-87013390D02*
X60761904Y-87061009D01*
X60761904Y-87061009D02*
X60666666Y-87108628D01*
X60666666Y-87108628D02*
X60285714Y-87108628D01*
X61809523Y-87584819D02*
X61238095Y-87584819D01*
X61523809Y-87584819D02*
X61523809Y-86584819D01*
X61523809Y-86584819D02*
X61428571Y-86727676D01*
X61428571Y-86727676D02*
X61333333Y-86822914D01*
X61333333Y-86822914D02*
X61238095Y-86870533D01*
X62666666Y-86918152D02*
X62666666Y-87584819D01*
X62428571Y-86537200D02*
X62190476Y-87251485D01*
X62190476Y-87251485D02*
X62809523Y-87251485D01*
X113824819Y-81095238D02*
X113348628Y-81428571D01*
X113824819Y-81666666D02*
X112824819Y-81666666D01*
X112824819Y-81666666D02*
X112824819Y-81285714D01*
X112824819Y-81285714D02*
X112872438Y-81190476D01*
X112872438Y-81190476D02*
X112920057Y-81142857D01*
X112920057Y-81142857D02*
X113015295Y-81095238D01*
X113015295Y-81095238D02*
X113158152Y-81095238D01*
X113158152Y-81095238D02*
X113253390Y-81142857D01*
X113253390Y-81142857D02*
X113301009Y-81190476D01*
X113301009Y-81190476D02*
X113348628Y-81285714D01*
X113348628Y-81285714D02*
X113348628Y-81666666D01*
X112824819Y-80809523D02*
X113824819Y-80476190D01*
X113824819Y-80476190D02*
X112824819Y-80142857D01*
X113824819Y-79285714D02*
X113824819Y-79857142D01*
X113824819Y-79571428D02*
X112824819Y-79571428D01*
X112824819Y-79571428D02*
X112967676Y-79666666D01*
X112967676Y-79666666D02*
X113062914Y-79761904D01*
X113062914Y-79761904D02*
X113110533Y-79857142D01*
X59950057Y-51365238D02*
X59902438Y-51460476D01*
X59902438Y-51460476D02*
X59807200Y-51555714D01*
X59807200Y-51555714D02*
X59664342Y-51698571D01*
X59664342Y-51698571D02*
X59616723Y-51793809D01*
X59616723Y-51793809D02*
X59616723Y-51889047D01*
X59854819Y-51841428D02*
X59807200Y-51936666D01*
X59807200Y-51936666D02*
X59711961Y-52031904D01*
X59711961Y-52031904D02*
X59521485Y-52079523D01*
X59521485Y-52079523D02*
X59188152Y-52079523D01*
X59188152Y-52079523D02*
X58997676Y-52031904D01*
X58997676Y-52031904D02*
X58902438Y-51936666D01*
X58902438Y-51936666D02*
X58854819Y-51841428D01*
X58854819Y-51841428D02*
X58854819Y-51650952D01*
X58854819Y-51650952D02*
X58902438Y-51555714D01*
X58902438Y-51555714D02*
X58997676Y-51460476D01*
X58997676Y-51460476D02*
X59188152Y-51412857D01*
X59188152Y-51412857D02*
X59521485Y-51412857D01*
X59521485Y-51412857D02*
X59711961Y-51460476D01*
X59711961Y-51460476D02*
X59807200Y-51555714D01*
X59807200Y-51555714D02*
X59854819Y-51650952D01*
X59854819Y-51650952D02*
X59854819Y-51841428D01*
X58950057Y-51031904D02*
X58902438Y-50984285D01*
X58902438Y-50984285D02*
X58854819Y-50889047D01*
X58854819Y-50889047D02*
X58854819Y-50650952D01*
X58854819Y-50650952D02*
X58902438Y-50555714D01*
X58902438Y-50555714D02*
X58950057Y-50508095D01*
X58950057Y-50508095D02*
X59045295Y-50460476D01*
X59045295Y-50460476D02*
X59140533Y-50460476D01*
X59140533Y-50460476D02*
X59283390Y-50508095D01*
X59283390Y-50508095D02*
X59854819Y-51079523D01*
X59854819Y-51079523D02*
X59854819Y-50460476D01*
X43193333Y-34364819D02*
X42860000Y-33888628D01*
X42621905Y-34364819D02*
X42621905Y-33364819D01*
X42621905Y-33364819D02*
X43002857Y-33364819D01*
X43002857Y-33364819D02*
X43098095Y-33412438D01*
X43098095Y-33412438D02*
X43145714Y-33460057D01*
X43145714Y-33460057D02*
X43193333Y-33555295D01*
X43193333Y-33555295D02*
X43193333Y-33698152D01*
X43193333Y-33698152D02*
X43145714Y-33793390D01*
X43145714Y-33793390D02*
X43098095Y-33841009D01*
X43098095Y-33841009D02*
X43002857Y-33888628D01*
X43002857Y-33888628D02*
X42621905Y-33888628D01*
X44098095Y-33364819D02*
X43621905Y-33364819D01*
X43621905Y-33364819D02*
X43574286Y-33841009D01*
X43574286Y-33841009D02*
X43621905Y-33793390D01*
X43621905Y-33793390D02*
X43717143Y-33745771D01*
X43717143Y-33745771D02*
X43955238Y-33745771D01*
X43955238Y-33745771D02*
X44050476Y-33793390D01*
X44050476Y-33793390D02*
X44098095Y-33841009D01*
X44098095Y-33841009D02*
X44145714Y-33936247D01*
X44145714Y-33936247D02*
X44145714Y-34174342D01*
X44145714Y-34174342D02*
X44098095Y-34269580D01*
X44098095Y-34269580D02*
X44050476Y-34317200D01*
X44050476Y-34317200D02*
X43955238Y-34364819D01*
X43955238Y-34364819D02*
X43717143Y-34364819D01*
X43717143Y-34364819D02*
X43621905Y-34317200D01*
X43621905Y-34317200D02*
X43574286Y-34269580D01*
D11*
%TO.C,R9*%
X39320000Y-46230000D02*
X40090000Y-46230000D01*
X40090000Y-44860000D02*
X40090000Y-47600000D01*
X40090000Y-47600000D02*
X46630000Y-47600000D01*
X46630000Y-44860000D02*
X40090000Y-44860000D01*
X46630000Y-47600000D02*
X46630000Y-44860000D01*
X47400000Y-46230000D02*
X46630000Y-46230000D01*
%TO.C,RGB1*%
X27920000Y-33880000D02*
X29250000Y-33880000D01*
X27920000Y-35210000D02*
X27920000Y-33880000D01*
X27920000Y-36480000D02*
X30520000Y-36480000D01*
X27920000Y-39080000D02*
X27920000Y-36480000D01*
X27920000Y-39080000D02*
X33120000Y-39080000D01*
X30520000Y-33880000D02*
X33120000Y-33880000D01*
X30520000Y-36480000D02*
X30520000Y-33880000D01*
X33120000Y-39080000D02*
X33120000Y-33880000D01*
%TO.C,R7*%
X39320000Y-57230000D02*
X40090000Y-57230000D01*
X40090000Y-55860000D02*
X40090000Y-58600000D01*
X40090000Y-58600000D02*
X46630000Y-58600000D01*
X46630000Y-55860000D02*
X40090000Y-55860000D01*
X46630000Y-58600000D02*
X46630000Y-55860000D01*
X47400000Y-57230000D02*
X46630000Y-57230000D01*
%TO.C,RGB4*%
X28130000Y-91130000D02*
X29460000Y-91130000D01*
X28130000Y-92460000D02*
X28130000Y-91130000D01*
X28130000Y-93730000D02*
X30730000Y-93730000D01*
X28130000Y-96330000D02*
X28130000Y-93730000D01*
X28130000Y-96330000D02*
X33330000Y-96330000D01*
X30730000Y-91130000D02*
X33330000Y-91130000D01*
X30730000Y-93730000D02*
X30730000Y-91130000D01*
X33330000Y-96330000D02*
X33330000Y-91130000D01*
%TO.C,Q3*%
X80350000Y-106570000D02*
X80350000Y-102970000D01*
X76050000Y-103990000D02*
G75*
G02*
X80327684Y-102961555I2450000J-780000D01*
G01*
X80341741Y-106581875D02*
G75*
G02*
X76050000Y-105590000I-1841741J1811875D01*
G01*
%TO.C,SW6*%
X104905000Y-83670000D02*
X104905000Y-86330000D01*
X107505000Y-83670000D02*
X104905000Y-83670000D01*
X107505000Y-83670000D02*
X107505000Y-86330000D01*
X107505000Y-86330000D02*
X104905000Y-86330000D01*
X108775000Y-83670000D02*
X110105000Y-83670000D01*
X110105000Y-83670000D02*
X110105000Y-85000000D01*
%TO.C,M1*%
X85170000Y-102395000D02*
X86500000Y-102395000D01*
X85170000Y-103725000D02*
X85170000Y-102395000D01*
X85170000Y-104995000D02*
X85170000Y-107595000D01*
X85170000Y-104995000D02*
X87830000Y-104995000D01*
X85170000Y-107595000D02*
X87830000Y-107595000D01*
X87830000Y-104995000D02*
X87830000Y-107595000D01*
%TO.C,R20*%
X105960000Y-45500000D02*
X106730000Y-45500000D01*
X106730000Y-44130000D02*
X106730000Y-46870000D01*
X106730000Y-46870000D02*
X113270000Y-46870000D01*
X113270000Y-44130000D02*
X106730000Y-44130000D01*
X113270000Y-46870000D02*
X113270000Y-44130000D01*
X114040000Y-45500000D02*
X113270000Y-45500000D01*
%TO.C,BT1*%
X82895000Y-30830000D02*
X82895000Y-29500000D01*
X84225000Y-30830000D02*
X82895000Y-30830000D01*
X85495000Y-28170000D02*
X88095000Y-28170000D01*
X85495000Y-30830000D02*
X85495000Y-28170000D01*
X85495000Y-30830000D02*
X88095000Y-30830000D01*
X88095000Y-30830000D02*
X88095000Y-28170000D01*
%TO.C,R6*%
X39320000Y-40730000D02*
X40090000Y-40730000D01*
X40090000Y-39360000D02*
X40090000Y-42100000D01*
X40090000Y-42100000D02*
X46630000Y-42100000D01*
X46630000Y-39360000D02*
X40090000Y-39360000D01*
X46630000Y-42100000D02*
X46630000Y-39360000D01*
X47400000Y-40730000D02*
X46630000Y-40730000D01*
%TO.C,R24*%
X39320000Y-51730000D02*
X40090000Y-51730000D01*
X40090000Y-50360000D02*
X40090000Y-53100000D01*
X40090000Y-53100000D02*
X46630000Y-53100000D01*
X46630000Y-50360000D02*
X40090000Y-50360000D01*
X46630000Y-53100000D02*
X46630000Y-50360000D01*
X47400000Y-51730000D02*
X46630000Y-51730000D01*
%TO.C,RV3B1*%
X104670000Y-65670000D02*
X104670000Y-68330000D01*
X109810000Y-65670000D02*
X104670000Y-65670000D01*
X109810000Y-65670000D02*
X109810000Y-68330000D01*
X109810000Y-68330000D02*
X104670000Y-68330000D01*
X111080000Y-65670000D02*
X112410000Y-65670000D01*
X112410000Y-65670000D02*
X112410000Y-67000000D01*
%TO.C,Q9*%
X56200000Y-105210000D02*
X59800000Y-105210000D01*
X56188125Y-105201741D02*
G75*
G02*
X57180000Y-100910000I1811875J1841741D01*
G01*
X58780000Y-100910000D02*
G75*
G02*
X59808445Y-105187684I-780000J-2450000D01*
G01*
%TO.C,LCD_20x1*%
X104670000Y-63830000D02*
X104670000Y-62500000D01*
X106000000Y-63830000D02*
X104670000Y-63830000D01*
X107270000Y-61170000D02*
X114950000Y-61170000D01*
X107270000Y-63830000D02*
X107270000Y-61170000D01*
X107270000Y-63830000D02*
X114950000Y-63830000D01*
X114950000Y-63830000D02*
X114950000Y-61170000D01*
%TO.C,SW4*%
X63395000Y-84830000D02*
X63395000Y-83500000D01*
X64725000Y-84830000D02*
X63395000Y-84830000D01*
X65995000Y-82170000D02*
X68595000Y-82170000D01*
X65995000Y-84830000D02*
X65995000Y-82170000D01*
X65995000Y-84830000D02*
X68595000Y-84830000D01*
X68595000Y-84830000D02*
X68595000Y-82170000D01*
%TO.C,SW1*%
X63630000Y-79830000D02*
X63630000Y-78500000D01*
X64960000Y-79830000D02*
X63630000Y-79830000D01*
X66230000Y-77170000D02*
X68830000Y-77170000D01*
X66230000Y-79830000D02*
X66230000Y-77170000D01*
X66230000Y-79830000D02*
X68830000Y-79830000D01*
X68830000Y-79830000D02*
X68830000Y-77170000D01*
%TO.C,Q6*%
X52650000Y-59470000D02*
X52650000Y-63070000D01*
X52658259Y-59458125D02*
G75*
G02*
X56950000Y-60450000I1841741J-1811875D01*
G01*
X56950000Y-62050000D02*
G75*
G02*
X52672316Y-63078445I-2450000J780000D01*
G01*
%TO.C,R2*%
X61130000Y-48730000D02*
X61130000Y-55270000D01*
X61130000Y-55270000D02*
X63870000Y-55270000D01*
X62500000Y-47960000D02*
X62500000Y-48730000D01*
X62500000Y-56040000D02*
X62500000Y-55270000D01*
X63870000Y-48730000D02*
X61130000Y-48730000D01*
X63870000Y-55270000D02*
X63870000Y-48730000D01*
%TO.C,RGB3*%
X28170000Y-71670000D02*
X29500000Y-71670000D01*
X28170000Y-73000000D02*
X28170000Y-71670000D01*
X28170000Y-74270000D02*
X30770000Y-74270000D01*
X28170000Y-76870000D02*
X28170000Y-74270000D01*
X28170000Y-76870000D02*
X33370000Y-76870000D01*
X30770000Y-71670000D02*
X33370000Y-71670000D01*
X30770000Y-74270000D02*
X30770000Y-71670000D01*
X33370000Y-76870000D02*
X33370000Y-71670000D01*
%TO.C,R1*%
X65630000Y-46230000D02*
X65630000Y-52770000D01*
X65630000Y-52770000D02*
X68370000Y-52770000D01*
X67000000Y-45460000D02*
X67000000Y-46230000D01*
X67000000Y-53540000D02*
X67000000Y-52770000D01*
X68370000Y-46230000D02*
X65630000Y-46230000D01*
X68370000Y-52770000D02*
X68370000Y-46230000D01*
%TO.C,R23*%
X104405000Y-55670000D02*
X104405000Y-58330000D01*
X107005000Y-55670000D02*
X104405000Y-55670000D01*
X107005000Y-55670000D02*
X107005000Y-58330000D01*
X107005000Y-58330000D02*
X104405000Y-58330000D01*
X108275000Y-55670000D02*
X109605000Y-55670000D01*
X109605000Y-55670000D02*
X109605000Y-57000000D01*
%TO.C,RV3R1*%
X104630000Y-74670000D02*
X104630000Y-77330000D01*
X109770000Y-74670000D02*
X104630000Y-74670000D01*
X109770000Y-74670000D02*
X109770000Y-77330000D01*
X109770000Y-77330000D02*
X104630000Y-77330000D01*
X111040000Y-74670000D02*
X112370000Y-74670000D01*
X112370000Y-74670000D02*
X112370000Y-76000000D01*
%TO.C,Q7*%
X52650000Y-67470000D02*
X52650000Y-71070000D01*
X52658259Y-67458125D02*
G75*
G02*
X56950000Y-68450000I1841741J-1811875D01*
G01*
X56950000Y-70050000D02*
G75*
G02*
X52672316Y-71078445I-2450000J780000D01*
G01*
%TO.C,Q1*%
X53290000Y-35700000D02*
X53290000Y-39300000D01*
X53298259Y-35688125D02*
G75*
G02*
X57590000Y-36680000I1841741J-1811875D01*
G01*
X57590000Y-38280000D02*
G75*
G02*
X53312316Y-39308445I-2450000J780000D01*
G01*
%TO.C,RGB2*%
X28130000Y-48880000D02*
X29460000Y-48880000D01*
X28130000Y-50210000D02*
X28130000Y-48880000D01*
X28130000Y-51480000D02*
X30730000Y-51480000D01*
X28130000Y-54080000D02*
X28130000Y-51480000D01*
X28130000Y-54080000D02*
X33330000Y-54080000D01*
X30730000Y-48880000D02*
X33330000Y-48880000D01*
X30730000Y-51480000D02*
X30730000Y-48880000D01*
X33330000Y-54080000D02*
X33330000Y-48880000D01*
%TO.C,R11*%
X59630000Y-67230000D02*
X59630000Y-73770000D01*
X59630000Y-73770000D02*
X62370000Y-73770000D01*
X61000000Y-66460000D02*
X61000000Y-67230000D01*
X61000000Y-74540000D02*
X61000000Y-73770000D01*
X62370000Y-67230000D02*
X59630000Y-67230000D01*
X62370000Y-73770000D02*
X62370000Y-67230000D01*
%TO.C,RV3G1*%
X104615000Y-70170000D02*
X104615000Y-72830000D01*
X109755000Y-70170000D02*
X104615000Y-70170000D01*
X109755000Y-70170000D02*
X109755000Y-72830000D01*
X109755000Y-72830000D02*
X104615000Y-72830000D01*
X111025000Y-70170000D02*
X112355000Y-70170000D01*
X112355000Y-70170000D02*
X112355000Y-71500000D01*
%TO.C,R13*%
X39320000Y-71730000D02*
X40090000Y-71730000D01*
X40090000Y-70360000D02*
X40090000Y-73100000D01*
X40090000Y-73100000D02*
X46630000Y-73100000D01*
X46630000Y-70360000D02*
X40090000Y-70360000D01*
X46630000Y-73100000D02*
X46630000Y-70360000D01*
X47400000Y-71730000D02*
X46630000Y-71730000D01*
%TO.C,R17*%
X93460000Y-103500000D02*
X94230000Y-103500000D01*
X94230000Y-102130000D02*
X94230000Y-104870000D01*
X94230000Y-104870000D02*
X100770000Y-104870000D01*
X100770000Y-102130000D02*
X94230000Y-102130000D01*
X100770000Y-104870000D02*
X100770000Y-102130000D01*
X101540000Y-103500000D02*
X100770000Y-103500000D01*
%TO.C,SW2*%
X77670000Y-97505000D02*
X77670000Y-94905000D01*
X80330000Y-94905000D02*
X77670000Y-94905000D01*
X80330000Y-97505000D02*
X77670000Y-97505000D01*
X80330000Y-97505000D02*
X80330000Y-94905000D01*
X80330000Y-98775000D02*
X80330000Y-100105000D01*
X80330000Y-100105000D02*
X79000000Y-100105000D01*
%TO.C,R15*%
X39960000Y-82000000D02*
X40730000Y-82000000D01*
X40730000Y-80630000D02*
X40730000Y-83370000D01*
X40730000Y-83370000D02*
X47270000Y-83370000D01*
X47270000Y-80630000D02*
X40730000Y-80630000D01*
X47270000Y-83370000D02*
X47270000Y-80630000D01*
X48040000Y-82000000D02*
X47270000Y-82000000D01*
%TO.C,R10*%
X64130000Y-64230000D02*
X64130000Y-70770000D01*
X64130000Y-70770000D02*
X66870000Y-70770000D01*
X65500000Y-63460000D02*
X65500000Y-64230000D01*
X65500000Y-71540000D02*
X65500000Y-70770000D01*
X66870000Y-64230000D02*
X64130000Y-64230000D01*
X66870000Y-70770000D02*
X66870000Y-64230000D01*
%TO.C,R19*%
X40460000Y-99500000D02*
X41230000Y-99500000D01*
X41230000Y-98130000D02*
X41230000Y-100870000D01*
X41230000Y-100870000D02*
X47770000Y-100870000D01*
X47770000Y-98130000D02*
X41230000Y-98130000D01*
X47770000Y-100870000D02*
X47770000Y-98130000D01*
X48540000Y-99500000D02*
X47770000Y-99500000D01*
%TO.C,HC\u2013SR505PIR1*%
X71170000Y-50755000D02*
X71170000Y-45615000D01*
X73830000Y-45615000D02*
X71170000Y-45615000D01*
X73830000Y-50755000D02*
X71170000Y-50755000D01*
X73830000Y-50755000D02*
X73830000Y-45615000D01*
X73830000Y-52025000D02*
X73830000Y-53355000D01*
X73830000Y-53355000D02*
X72500000Y-53355000D01*
%TO.C,SW5*%
X74170000Y-35895000D02*
X75500000Y-35895000D01*
X74170000Y-37225000D02*
X74170000Y-35895000D01*
X74170000Y-38495000D02*
X74170000Y-41095000D01*
X74170000Y-38495000D02*
X76830000Y-38495000D01*
X74170000Y-41095000D02*
X76830000Y-41095000D01*
X76830000Y-38495000D02*
X76830000Y-41095000D01*
%TO.C,R16*%
X58960000Y-95500000D02*
X59730000Y-95500000D01*
X59730000Y-94130000D02*
X59730000Y-96870000D01*
X59730000Y-96870000D02*
X66270000Y-96870000D01*
X66270000Y-94130000D02*
X59730000Y-94130000D01*
X66270000Y-96870000D02*
X66270000Y-94130000D01*
X67040000Y-95500000D02*
X66270000Y-95500000D01*
%TO.C,Q8*%
X53380000Y-79200000D02*
X53380000Y-82800000D01*
X53388259Y-79188125D02*
G75*
G02*
X57680000Y-80180000I1841741J-1811875D01*
G01*
X57680000Y-81780000D02*
G75*
G02*
X53402316Y-82808445I-2450000J780000D01*
G01*
%TO.C,R8*%
X40460000Y-94500000D02*
X41230000Y-94500000D01*
X41230000Y-93130000D02*
X41230000Y-95870000D01*
X41230000Y-95870000D02*
X47770000Y-95870000D01*
X47770000Y-93130000D02*
X41230000Y-93130000D01*
X47770000Y-95870000D02*
X47770000Y-93130000D01*
X48540000Y-94500000D02*
X47770000Y-94500000D01*
%TO.C,SW7*%
X68630000Y-65330000D02*
X68630000Y-64000000D01*
X69960000Y-65330000D02*
X68630000Y-65330000D01*
X71230000Y-62670000D02*
X73830000Y-62670000D01*
X71230000Y-65330000D02*
X71230000Y-62670000D01*
X71230000Y-65330000D02*
X73830000Y-65330000D01*
X73830000Y-65330000D02*
X73830000Y-62670000D01*
%TO.C,R12*%
X39320000Y-63730000D02*
X40090000Y-63730000D01*
X40090000Y-62360000D02*
X40090000Y-65100000D01*
X40090000Y-65100000D02*
X46630000Y-65100000D01*
X46630000Y-62360000D02*
X40090000Y-62360000D01*
X46630000Y-65100000D02*
X46630000Y-62360000D01*
X47400000Y-63730000D02*
X46630000Y-63730000D01*
%TO.C,A1*%
X79990000Y-45010000D02*
X79990000Y-47680000D01*
X79990000Y-50220000D02*
X79990000Y-88450000D01*
X79990000Y-88450000D02*
X85070000Y-88450000D01*
X82660000Y-47680000D02*
X79990000Y-47680000D01*
X82660000Y-50220000D02*
X79990000Y-50220000D01*
X82660000Y-50220000D02*
X82660000Y-47680000D01*
X82660000Y-50220000D02*
X82660000Y-85780000D01*
X82660000Y-85780000D02*
X79990000Y-85780000D01*
X85070000Y-80570000D02*
X92950000Y-80570000D01*
X85070000Y-90990000D02*
X85070000Y-80570000D01*
X92950000Y-80570000D02*
X92950000Y-90990000D01*
X92950000Y-90990000D02*
X85070000Y-90990000D01*
X95360000Y-47680000D02*
X95360000Y-85780000D01*
X95360000Y-47680000D02*
X98030000Y-47680000D01*
X95360000Y-85780000D02*
X98030000Y-85780000D01*
X98030000Y-45010000D02*
X79990000Y-45010000D01*
X98030000Y-88450000D02*
X92950000Y-88450000D01*
X98030000Y-88450000D02*
X98030000Y-45010000D01*
%TO.C,R18*%
X40460000Y-89500000D02*
X41230000Y-89500000D01*
X41230000Y-88130000D02*
X41230000Y-90870000D01*
X41230000Y-90870000D02*
X47770000Y-90870000D01*
X47770000Y-88130000D02*
X41230000Y-88130000D01*
X47770000Y-90870000D02*
X47770000Y-88130000D01*
X48540000Y-89500000D02*
X47770000Y-89500000D01*
%TO.C,R3*%
X71630000Y-93230000D02*
X71630000Y-99770000D01*
X71630000Y-99770000D02*
X74370000Y-99770000D01*
X73000000Y-92460000D02*
X73000000Y-93230000D01*
X73000000Y-100540000D02*
X73000000Y-99770000D01*
X74370000Y-93230000D02*
X71630000Y-93230000D01*
X74370000Y-99770000D02*
X74370000Y-93230000D01*
%TO.C,SW9*%
X104405000Y-50670000D02*
X104405000Y-53330000D01*
X107005000Y-50670000D02*
X104405000Y-50670000D01*
X107005000Y-50670000D02*
X107005000Y-53330000D01*
X107005000Y-53330000D02*
X104405000Y-53330000D01*
X108275000Y-50670000D02*
X109605000Y-50670000D01*
X109605000Y-50670000D02*
X109605000Y-52000000D01*
%TO.C,R4*%
X39320000Y-31730000D02*
X40090000Y-31730000D01*
X40090000Y-30360000D02*
X40090000Y-33100000D01*
X40090000Y-33100000D02*
X46630000Y-33100000D01*
X46630000Y-30360000D02*
X40090000Y-30360000D01*
X46630000Y-33100000D02*
X46630000Y-30360000D01*
X47400000Y-31730000D02*
X46630000Y-31730000D01*
D12*
%TO.C,C1*%
X82350000Y-35500000D02*
G75*
G02*
X82150000Y-35500000I-100000J0D01*
G01*
X82150000Y-35500000D02*
G75*
G02*
X82350000Y-35500000I100000J0D01*
G01*
D13*
X88000000Y-35500000D02*
G75*
G02*
X83000000Y-35500000I-2500000J0D01*
G01*
X83000000Y-35500000D02*
G75*
G02*
X88000000Y-35500000I2500000J0D01*
G01*
D11*
%TO.C,R14*%
X57460000Y-89500000D02*
X58230000Y-89500000D01*
X58230000Y-88130000D02*
X58230000Y-90870000D01*
X58230000Y-90870000D02*
X64770000Y-90870000D01*
X64770000Y-88130000D02*
X58230000Y-88130000D01*
X64770000Y-90870000D02*
X64770000Y-88130000D01*
X65540000Y-89500000D02*
X64770000Y-89500000D01*
%TO.C,RV1*%
X104630000Y-79170000D02*
X104630000Y-81830000D01*
X109770000Y-79170000D02*
X104630000Y-79170000D01*
X109770000Y-79170000D02*
X109770000Y-81830000D01*
X109770000Y-81830000D02*
X104630000Y-81830000D01*
X111040000Y-79170000D02*
X112370000Y-79170000D01*
X112370000Y-79170000D02*
X112370000Y-80500000D01*
%TO.C,Q2*%
X53150000Y-49470000D02*
X53150000Y-53070000D01*
X53158259Y-49458125D02*
G75*
G02*
X57450000Y-50450000I1841741J-1811875D01*
G01*
X57450000Y-52050000D02*
G75*
G02*
X53172316Y-53078445I-2450000J780000D01*
G01*
%TO.C,R5*%
X39320000Y-36280000D02*
X40090000Y-36280000D01*
X40090000Y-34910000D02*
X40090000Y-37650000D01*
X40090000Y-37650000D02*
X46630000Y-37650000D01*
X46630000Y-34910000D02*
X40090000Y-34910000D01*
X46630000Y-37650000D02*
X46630000Y-34910000D01*
X47400000Y-36280000D02*
X46630000Y-36280000D01*
%TD*%
M02*
